<svg viewBox="0 0 62.7 74.217" xml:space="preserve" xmlns="http://www.w3.org/2000/svg"><path d="m51.829.359-4.254 3.52H15.124L10.437 0 5.022 7.424l4.229 2.704a12.628 12.628 0 0 0-2.072 4.948 12.756 12.756 0 0 0-.033 4.426c-.025-.026-.062-.075-.04-.01.415 2.352.828 4.705 1.248 7.056a57.19 57.19 0 0 0 9.376 19.854 57.683 57.683 0 0 0 6.196 7.124h-4.712a2.925 2.925 0 0 0-.337-.234c0-.626.003-1.253-.005-1.88a2.693 2.693 0 0 0-1.413-2.2 2.808 2.808 0 0 0-1.455-.316c-.76 0-1.521-.004-2.281.005-.75.038-1.474.41-1.941.998a2.674 2.674 0 0 0-.59 1.661c-.005.326 0 .653-.002.98 0 2.99 0 5.98.002 8.97-.64 1.123-1.384 1.19-3.368 1.14-1.19.075-2.37.322-3.494.726-.634.224-1.26.498-1.803.901-.435.326-.803.76-.982 1.28a2.28 2.28 0 0 0 .173 1.903 2.2 2.2 0 0 0 .333.436c-.111.302-.218.605-.338.902A2.394 2.394 0 0 0 .208 70.08a2.329 2.329 0 0 0-.088 1.702c.143.438.421.825.772 1.122.476.407 1.065.656 1.662.825a7.033 7.033 0 0 0 2.823.176c.202-.029.402-.072.597-.132.813.22 1.66.308 2.5.286.397-.02.793-.058 1.182-.139a5.71 5.71 0 0 0 1.336-.443c.517.34 1.132.501 1.743.56a7.472 7.472 0 0 0 1.566-.039 8.537 8.537 0 0 0 1.699-.4c.523.302 1.127.44 1.727.46.615.024 1.227-.078 1.82-.23.105-.025.208-.052.312-.081.57.25 1.202.325 1.821.313a8.849 8.849 0 0 0 2.42-.374c.223-.066.443-.14.66-.22.744.371 1.577.525 2.402.576.639.038 1.28.017 1.917-.045.872-.09 1.733-.286 2.553-.597.547-.2 1.088-.426 1.584-.734.279-.18.527-.41.72-.681.436.692 1.1 1.227 1.847 1.55.778.343 1.63.48 2.474.516 1.203.054 2.425-.112 3.547-.56a7.551 7.551 0 0 0 1.434-.752c.41.549.965.996 1.608 1.241a3.72 3.72 0 0 0 2.127.147 5.73 5.73 0 0 0 1.387-.498 3.14 3.14 0 0 0 1.621.54c.5.02 1-.064 1.481-.2.751-.215 1.457-.57 2.111-.994.092-.06.183-.122.274-.185.287.405.69.724 1.145.922.651.287 1.374.367 2.08.346 1.1-.025 2.187-.292 3.194-.73.535-.23 1.07-.478 1.529-.843.46-.376.795-.917.88-1.51a2.264 2.264 0 0 0-.715-2.011 2.22 2.22 0 0 0-.772-.454c.266-.71.53-1.422.726-2.155.12-.455.196-.935.11-1.403a2.354 2.354 0 0 0-1.287-1.69 2.536 2.536 0 0 0-1.252-.224c-.743.02-1.487.03-2.23.056-.623.044-1.24.305-1.665.77-.716 1.346-.648 1.146-2.302 1.169-1.807.26-1.785-2.26-1.78-3.696.002-2.715 0-5.43 0-8.146-.001-.577.001-1.154-.002-1.732a2.69 2.69 0 0 0-1.409-2.243 2.801 2.801 0 0 0-1.461-.32c-.76.001-1.52-.004-2.28.005a2.686 2.686 0 0 0-2.533 2.74c-.002.55 0 1.1 0 1.65-.118.071-.231.15-.338.235h-4.711A57.637 57.637 0 0 0 48.982 40.13a56.991 56.991 0 0 0 5.366-13.595c.125-.68.242-1.36.363-2.039l.893-5.046c-.021.02-.065.084-.044.019a12.724 12.724 0 0 0-.399-5.848 12.622 12.622 0 0 0-1.712-3.493l4.228-2.704c-1.804-2.475-3.61-4.95-5.415-7.424l-.433.359z" fill="#fff" stroke-width="0"/><path d="M17.942 5.996c4.468 3.7 8.94 7.397 13.408 11.097 4.469-3.7 8.939-7.397 13.407-11.097zm-4.069 45.017a.566.566 0 0 0-.566.566v9.827a.566.566 0 0 0 .566.566h2.321a.566.566 0 0 0 .566-.566v-3.41h.626a.85.85 0 0 0 .798-.654h26.332a.85.85 0 0 0 .797.654h.626v3.41a.566.566 0 0 0 .566.566h2.321a.566.566 0 0 0 .566-.566v-9.827a.566.566 0 0 0-.566-.567h-2.321a.566.566 0 0 0-.566.567v3.41h-.626a.85.85 0 0 0-.797.654H18.184a.85.85 0 0 0-.797-.654h-.627v-3.41a.566.566 0 0 0-.566-.567h-2.32zm27.782-26.995c-3.078 0-4.605-1.07-5.86-3.666l9.59-7.27 2.269-1.76a7.762 7.762 0 0 1 1.765 4.931 7.764 7.764 0 0 1-7.764 7.765zm-20.61 0a7.764 7.764 0 0 1-6-12.695l2.27 1.657 9.59 7.372c-1.256 2.596-2.783 3.666-5.86 3.666zM50.253 9.66l4.388-2.807-2.763-3.788-5.282 4.372-1.978 1.637-3.366 2.785-7.203 5.963-1.422 1.176-1.277 1.057-1.278-1.057-1.422-1.176-7.203-5.963-3.366-2.785-1.977-1.637h-.001L10.82 3.065 8.058 6.853l4.388 2.807a10.524 10.524 0 0 0-3.361 7.724v.012c0 1.025.147 2.014.422 2.949 1.278 4.388 5.33 7.593 10.132 7.593 3.09 0 5.872-1.327 7.8-3.445l3.91 6.775 3.91-6.775a10.521 10.521 0 0 0 7.801 3.445c4.801 0 8.854-3.205 10.133-7.593.274-.935.42-1.924.422-2.949v-.012a10.527 10.527 0 0 0-3.362-7.724M32.734 52.562c.003.007-.005-12.898-.005-15.15l3.606-6.208a10.716 10.716 0 0 0 5.95 1.81c2.064 0 3.338-.067 5.335-.952-3.292 7.916-8.217 14.69-14.886 20.5zM50.158 28.16a11.622 11.622 0 0 1-7.098 2.39c-2.763 0-5.433-.983-7.53-2.738l-4.18 7.24-4.18-7.24a11.746 11.746 0 0 1-7.53 2.739c-2.589 0-5.044-.827-7.098-2.391a11.715 11.715 0 0 1-2.13-2.104c3.2 12.622 10.738 23.512 20.938 30.994 10.199-7.48 17.738-18.37 20.936-30.992a11.737 11.737 0 0 1-2.128 2.103M32.09 70.495q.156 0 .156.148 0 .142-.214.267-.21.12-.522.264-.312.137-.86.33-1.262.44-2.848.44-3.014 0-3.014-1.854 0-.905.57-1.605.576-.704 1.539-1.074.962-.375 2.099-.375 1.137 0 1.663.353.53.352.53.967 0 .633-.508 1.035-.504.4-1.341.597-.843.196-1.931.276.071.69.99.86.236.04.5.04 1.042 0 3.008-.628.12-.04.183-.04zm-4.676-.722q.775-.213 1.225-.655.45-.441.45-1.065 0-.165-.107-.263-.106-.098-.324-.098-.215 0-.45.187-.233.188-.393.49-.339.629-.401 1.404zm12.048-2.853q-.74.602-1.127 1.788-.205.642-.205 1.302 0 1.154.753 1.154.383 0 .794-.317.41-.316.735-.82.33-.508.54-1.203.213-.695.213-1.39 0-.981-.347-1.396-.348-.414-1.168-.414-.455 0-.98.097-.527.099-.892.22-.361.115-.651.213-.29.098-.335.098-.165 0-.165-.134 0-.107.22-.276.222-.174.614-.361.392-.192.87-.357 1.11-.383 2.17-.383 2.038 0 2.88 1.186.495.7.495 1.729 0 .78-.272 1.467-.272.682-.758 1.195-.486.512-1.141.882-1.324.744-3 .744-3.28 0-3.28-2.242 0-.629.27-1.203.273-.58.714-1.003.446-.428.999-.749 1.123-.642 2.255-.642.179 0 .254.067.08.062.08.13 0 .066-.022.115-.018.045-.075.107-.058.063-.103.107-.111.098-.335.29zm6.063.26 2.358-.05q.174 0 .174.174 0 .102-.107.236-.383.482-.647 1.092-.258.611-.258 1.244 0 .664.21.834.089.07.227.07.29 0 .543-.226.26-.227.438-.575.182-.348.33-.803.244-.784.356-1.698.01-.107.076-.2.071-.099.223-.099l2.358-.049q.174 0 .174.148 0 .115-.107.262-.906 1.257-.906 2.43 0 .766.451.766.343 0 .637-.289.295-.29.486-.758.41-.994.41-2.21 0-.26.3-.3.097-.013.814-.03.723-.019.928-.019.205 0 .205.188 0 .668-.37 1.345.205.04.414.04.7 0 1.275-.32.125-.072.21-.072.179 0 .179.165 0 .16-.193.308-.641.49-1.729.49-.29 0-.517-.044l-.201.272q-.521.69-1.27 1.283-.744.59-1.52.932-.771.339-1.373.339-.388 0-.762-.339-.37-.338-.597-.86-.683.562-1.382.905-.7.339-1.226.339-.736 0-1.208-.638t-.472-1.667q0-.437.182-1.181.188-.745.437-1.155.103-.165.191-.223.09-.058.259-.058zm-27.571 0 2.016-.05q.115 0 .173.071.058.067.058.205 0 .134-.25.705-.245.566-.494 1.208-.25.638-.25.931 0 .553.589.553.28 0 .614-.07.108-.38.357-1.003.633-1.566.762-2.381.023-.165.237-.165.647 0 1.36-.027.712-.027.82-.027.111 0 .169.063.062.058.062.111 0 .214-.276.905-.277.691-.553 1.43-.276.736-.276 1.075 0 .34.299.34.302 0 .833-.161.535-.165.744-.282.215-.116.277-.116.17 0 .17.16 0 .161-.241.309-.236.142-.575.294-.335.147-.807.312-1.088.375-2.216.375-1.128 0-1.27-.607-.433.178-.709.281-.276.098-.767.21-.49.116-.9.116-1.31 0-1.31-1.07 0-.37.142-.896.142-.53.317-.959.459-1.136.459-1.409 0-.276.08-.352.08-.08.356-.08zm-9.749 4.765q-1.305 0-2.398-.464-.227.227-.566.299-.334.075-.896.075-.556 0-1.083-.129-.526-.13-.833-.317-.313-.187-.313-.365 0-.103.09-.165.089-.063.205-.063.41 0 .606-.129.2-.133.383-.49.188-.357.361-.82.175-.468.321-.873.152-.407.34-.82.413-.907 1.038-1.204.299-.143.78-.219.481-.08.753-.08.276 0 .357.008.084.005.169.028.17.044.17.187 0 .097-.04.183-.036.08-.201.347-.165.267-.437 1.12 1.088-.068 1.663-.451.575-.388.575-.99 0-.815-1.382-.927-.28-.023-.82-.023-.54 0-1.2.13-.66.125-1.034.276-.37.152-.669.28-.298.126-.383.126-.231 0-.231-.152 0-.156.29-.37.289-.213.797-.423.513-.21 1.133-.388 1.399-.401 2.893-.401 1.493 0 2.264.468.776.463.776 1.23 0 .767-.771 1.275-.767.508-2.11.562.861.009 1.584.414.347.192.566.504.218.312.218.722t-.174.772q-.17.355-.454.588-.281.231-.673.383-.718.285-1.663.285zm-1.32-3.5-.333 1.137q-.25.851-.348 1.141l-.102.294q.142.018.454.018.317 0 .705-.084.392-.09.7-.268.312-.178.485-.481.179-.304.179-.736 0-.433-.504-.718t-1.235-.303zm7.076-3.245 2.184-.049q.116 0 .173.071.058.067.058.152 0 .468-.855 2.701-.852 2.234-.852 2.63 0 .165.067.25.067.08.237.08.53 0 1.644-.49.111-.05.214-.05.183 0 .183.143 0 .12-.183.25t-.504.285q-.32.156-.78.339-.46.183-1.043.308-.58.125-1.216.125-.638 0-1.022-.175-.383-.168-.383-.628 0-.321.825-2.519.308-.82.566-1.703.258-.886.258-1.328l-.004-.17q0-.222.433-.222zm43.569 0 2.183-.049q.117 0 .175.071.058.067.058.152 0 .468-.856 2.701-.852 2.234-.852 2.63 0 .165.067.25.067.08.236.08.53 0 1.645-.49.112-.05.214-.05.183 0 .183.143 0 .12-.183.25t-.504.285q-.32.156-.78.339-.46.183-1.043.308-.58.125-1.217.125-.637 0-1.02-.175-.384-.168-.384-.628 0-.321.825-2.519.308-.82.566-1.703.259-.886.259-1.328l-.005-.17q0-.222.432-.222z" fill="#01acf4" stroke-width="4.492"/></svg>