<svg viewBox="0 0 39.92 9.023" xmlns="http://www.w3.org/2000/svg"><path d="M3.047 9.024q-1.389 0-2.22-.838Q0 7.342 0 5.953q0-1.511.861-2.361.868-.85 2.332-.85 1.407 0 2.192.827.785.826.785 2.29 0 1.436-.85 2.303-.843.862-2.273.862Zm.064-5.198q-.797 0-1.26.557-.462.557-.462 1.535 0 .944.468 1.488.47.54 1.254.54.803 0 1.23-.534.434-.533.434-1.517 0-.99-.433-1.53-.428-.539-1.23-.539Zm12.51-.943-1.77 6h-1.423l-1.09-4.066q-.065-.235-.082-.528h-.024q-.011.2-.105.516L9.943 8.883H8.55l-1.764-6h1.406l1.09 4.324q.053.194.07.516h.042q.017-.246.093-.528L10.7 2.883h1.278l1.078 4.342q.052.205.076.515h.04q.013-.216.089-.515l1.066-4.342Zm2.373 6H16.63V0h1.365zm6.065-.275q-.721.416-1.705.416-1.336 0-2.157-.832-.82-.838-.82-2.168 0-1.483.879-2.38.885-.902 2.361-.902.82 0 1.447.287v1.266q-.626-.469-1.335-.469-.862 0-1.413.586-.55.58-.55 1.524 0 .931.515 1.47.522.54 1.395.54.732 0 1.383-.522zm10.318.275h-1.36v-3.27q0-.943-.269-1.365-.264-.422-.896-.422-.534 0-.909.534-.369.533-.369 1.277v3.246H29.21v-3.38q0-1.677-1.184-1.677-.55 0-.908.504-.351.504-.351 1.307v3.246h-1.36v-6h1.36v.95h.023q.65-1.09 1.893-1.09.62 0 1.084.345.468.34.638.897.668-1.243 1.993-1.243 1.98 0 1.98 2.444zm1.283-.188v-1.26q.762.58 1.682.58 1.23 0 1.23-.726 0-.205-.105-.345-.106-.147-.287-.258-.176-.112-.422-.2-.24-.087-.54-.199-.368-.146-.667-.31-.293-.164-.492-.37-.194-.21-.293-.474-.1-.264-.1-.615 0-.434.205-.762.205-.334.55-.557.347-.228.786-.34.44-.117.908-.117.832 0 1.489.252v1.19q-.633-.434-1.454-.434-.257 0-.468.053-.205.053-.352.146-.146.094-.228.229-.082.129-.082.287 0 .193.082.328t.24.24q.164.1.387.188.228.082.521.182.387.158.691.322.311.164.528.375.217.205.334.48.117.27.117.645 0 .457-.211.797-.21.34-.562.562-.352.223-.815.328-.457.112-.967.112-.984 0-1.705-.329z"/></svg>