<?xml version="1.0" encoding="UTF-8" standalone="no"?>
<svg
   viewBox="0 0 41.7 38.85"
   version="1.1"
   id="svg14"
   sodipodi:docname="owlcms-log_black.svg"
   inkscape:version="1.2.2 (732a01da63, 2022-12-09)"
   xmlns:inkscape="http://www.inkscape.org/namespaces/inkscape"
   xmlns:sodipodi="http://sodipodi.sourceforge.net/DTD/sodipodi-0.dtd"
   xmlns="http://www.w3.org/2000/svg"
   xmlns:svg="http://www.w3.org/2000/svg">
  <defs
     id="defs18" />
  <sodipodi:namedview
     id="namedview16"
     pagecolor="#ffffff"
     bordercolor="#000000"
     borderopacity="0.25"
     inkscape:showpageshadow="2"
     inkscape:pageopacity="0.0"
     inkscape:pagecheckerboard="0"
     inkscape:deskcolor="#d1d1d1"
     showgrid="false"
     inkscape:zoom="15.543609"
     inkscape:cx="20.941082"
     inkscape:cy="20.136893"
     inkscape:window-width="1920"
     inkscape:window-height="1009"
     inkscape:window-x="1912"
     inkscape:window-y="-8"
     inkscape:window-maximized="1"
     inkscape:current-layer="svg14" />
  <rect
     width="5.7"
     height="38.55"
     x="11.725"
     y=".15"
     rx="1.5"
     ry="1.5"
     fill="red"
     stroke="#fff"
     stroke-width=".3"
     stroke-linejoin="round"
     id="rect2"
     style="stroke:#000000;stroke-opacity:1" />
  <rect
     width="4.825"
     height="38.55"
     x="18.475"
     y=".15"
     rx="1.5"
     ry="1.5"
     fill="green"
     stroke="#fff"
     stroke-width=".3"
     stroke-linejoin="round"
     id="rect4"
     style="stroke:#000000;stroke-opacity:1" />
  <rect
     width="2.45"
     height="19.525"
     x="24.35"
     y="9.662"
     rx="1.25"
     ry="1.25"
     fill="red"
     stroke="#fff"
     stroke-width=".3"
     stroke-linejoin="round"
     id="rect6"
     style="stroke:#000000;stroke-opacity:1" />
  <rect
     width="2.45"
     height="17.868"
     x="33.85"
     y="10.491"
     rx="1.25"
     ry="1.25"
     fill="#00f"
     stroke="#fff"
     stroke-width=".3"
     stroke-linejoin="round"
     id="rect8"
     style="stroke:#000000;stroke-opacity:1" />
  <rect
     width="5.5"
     height="8.924"
     x="27.575"
     y="14.963"
     rx=".25"
     ry=".25"
     stroke="#fff"
     stroke-width=".5"
     stroke-linejoin="round"
     id="rect10" />
  <path
     fill="gray"
     d="M36.825 17.39H41.7v4.071h-4.875zm-28.38-1.73a.5.5 0 0 0-.5.5v2.022H0v2.487h7.945v2.02a.5.5 0 0 0 .5.5H10.7a.5.5 0 0 0 .5-.5v-6.528a.5.5 0 0 0-.5-.5H8.445z"
     id="path12" />
</svg>
