<svg width="1280" height="720" xmlns="http://www.w3.org/2000/svg" xmlns:xlink="http://www.w3.org/1999/xlink" overflow="hidden"><defs><clipPath id="clip0"><path d="M0 0 1280 0 1280 720 0 720Z" fill-rule="evenodd" clip-rule="evenodd"/></clipPath><clipPath id="clip1"><path d="M68 63 164 63 164 159 68 159Z" fill-rule="evenodd" clip-rule="evenodd"/></clipPath><clipPath id="clip2"><path d="M68 63 164 63 164 159 68 159Z" fill-rule="evenodd" clip-rule="evenodd"/></clipPath><clipPath id="clip3"><path d="M68 63 164 63 164 159 68 159Z" fill-rule="evenodd" clip-rule="evenodd"/></clipPath><clipPath id="clip4"><path d="M737 373 833 373 833 469 737 469Z" fill-rule="evenodd" clip-rule="evenodd"/></clipPath><clipPath id="clip5"><path d="M737 373 833 373 833 469 737 469Z" fill-rule="evenodd" clip-rule="evenodd"/></clipPath><clipPath id="clip6"><path d="M737 373 833 373 833 469 737 469Z" fill-rule="evenodd" clip-rule="evenodd"/></clipPath><clipPath id="clip7"><path d="M68 262 116 262 116 310 68 310Z" fill-rule="evenodd" clip-rule="evenodd"/></clipPath><clipPath id="clip8"><path d="M68 262 116 262 116 310 68 310Z" fill-rule="evenodd" clip-rule="evenodd"/></clipPath><clipPath id="clip9"><path d="M68 262 116 262 116 310 68 310Z" fill-rule="evenodd" clip-rule="evenodd"/></clipPath><clipPath id="clip10"><path d="M158 262 206 262 206 310 158 310Z" fill-rule="evenodd" clip-rule="evenodd"/></clipPath><clipPath id="clip11"><path d="M158 262 206 262 206 310 158 310Z" fill-rule="evenodd" clip-rule="evenodd"/></clipPath><clipPath id="clip12"><path d="M158 262 206 262 206 310 158 310Z" fill-rule="evenodd" clip-rule="evenodd"/></clipPath><clipPath id="clip13"><path d="M247 262 295 262 295 310 247 310Z" fill-rule="evenodd" clip-rule="evenodd"/></clipPath><clipPath id="clip14"><path d="M247 262 295 262 295 310 247 310Z" fill-rule="evenodd" clip-rule="evenodd"/></clipPath><clipPath id="clip15"><path d="M247 262 295 262 295 310 247 310Z" fill-rule="evenodd" clip-rule="evenodd"/></clipPath><clipPath id="clip16"><path d="M490 364 586 364 586 460 490 460Z" fill-rule="evenodd" clip-rule="evenodd"/></clipPath><clipPath id="clip17"><path d="M490 364 586 364 586 460 490 460Z" fill-rule="evenodd" clip-rule="evenodd"/></clipPath><clipPath id="clip18"><path d="M490 364 586 364 586 460 490 460Z" fill-rule="evenodd" clip-rule="evenodd"/></clipPath><clipPath id="clip19"><path d="M752 109 848 109 848 205 752 205Z" fill-rule="evenodd" clip-rule="evenodd"/></clipPath><clipPath id="clip20"><path d="M752 109 848 109 848 205 752 205Z" fill-rule="evenodd" clip-rule="evenodd"/></clipPath><clipPath id="clip21"><path d="M752 109 848 109 848 205 752 205Z" fill-rule="evenodd" clip-rule="evenodd"/></clipPath><clipPath id="clip22"><path d="M922 111 1018 111 1018 207 922 207Z" fill-rule="evenodd" clip-rule="evenodd"/></clipPath><clipPath id="clip23"><path d="M922 111 1018 111 1018 207 922 207Z" fill-rule="evenodd" clip-rule="evenodd"/></clipPath><clipPath id="clip24"><path d="M922 111 1018 111 1018 207 922 207Z" fill-rule="evenodd" clip-rule="evenodd"/></clipPath><clipPath id="clip25"><path d="M1091 109 1187 109 1187 205 1091 205Z" fill-rule="evenodd" clip-rule="evenodd"/></clipPath><clipPath id="clip26"><path d="M1091 109 1187 109 1187 205 1091 205Z" fill-rule="evenodd" clip-rule="evenodd"/></clipPath><clipPath id="clip27"><path d="M1091 109 1187 109 1187 205 1091 205Z" fill-rule="evenodd" clip-rule="evenodd"/></clipPath><clipPath id="clip28"><path d="M157 553 253 553 253 649 157 649Z" fill-rule="evenodd" clip-rule="evenodd"/></clipPath><clipPath id="clip29"><path d="M157 553 253 553 253 649 157 649Z" fill-rule="evenodd" clip-rule="evenodd"/></clipPath><clipPath id="clip30"><path d="M157 553 253 553 253 649 157 649Z" fill-rule="evenodd" clip-rule="evenodd"/></clipPath><clipPath id="clip31"><path d="M199 63 295 63 295 159 199 159Z" fill-rule="evenodd" clip-rule="evenodd"/></clipPath><clipPath id="clip32"><path d="M199 63 295 63 295 159 199 159Z" fill-rule="evenodd" clip-rule="evenodd"/></clipPath><clipPath id="clip33"><path d="M199 63 295 63 295 159 199 159Z" fill-rule="evenodd" clip-rule="evenodd"/></clipPath><clipPath id="clip34"><path d="M491 374 587 374 587 470 491 470Z" fill-rule="evenodd" clip-rule="evenodd"/></clipPath><clipPath id="clip35"><path d="M491 374 587 374 587 470 491 470Z" fill-rule="evenodd" clip-rule="evenodd"/></clipPath><clipPath id="clip36"><path d="M491 374 587 374 587 470 491 470Z" fill-rule="evenodd" clip-rule="evenodd"/></clipPath><clipPath id="clip37"><path d="M489 553 585 553 585 649 489 649Z" fill-rule="evenodd" clip-rule="evenodd"/></clipPath><clipPath id="clip38"><path d="M489 553 585 553 585 649 489 649Z" fill-rule="evenodd" clip-rule="evenodd"/></clipPath><clipPath id="clip39"><path d="M489 553 585 553 585 649 489 649Z" fill-rule="evenodd" clip-rule="evenodd"/></clipPath></defs><g clip-path="url(#clip0)"><rect x="0" y="0" width="1280" height="720" fill="#FFFFFF"/><g clip-path="url(#clip1)"><g clip-path="url(#clip2)"><g clip-path="url(#clip3)"><path d="M144 123 88 123 88 89 144 89 144 123ZM150 87C150 84.8 148.2 83 146 83L86 83C83.8 83 82 84.8 82 87L82 129 150 129 150 87Z"/><path d="M122 133 122 134C122 134.6 121.6 135 121 135L111 135C110.4 135 110 134.6 110 134L110 133 70 133 70 135C70 137.2 71.8 139 74 139L158 139C160.2 139 162 137.2 162 135L162 133 122 133Z"/></g></g></g><g clip-path="url(#clip4)"><g clip-path="url(#clip5)"><g clip-path="url(#clip6)"><path d="M782 440 788 440 788 448 782 448Z"/><path d="M782 452 788 452 788 458 782 458Z"/><path d="M792 452 821 452 821 458 792 458Z"/><path d="M749 452 778 452 778 458 749 458Z"/><path d="M813.42 424 756.58 424C754.603 424 753 425.603 753 427.58L753 436.42C753 438.397 754.603 440 756.58 440L813.42 440C815.397 440 817 438.397 817 436.42L817 427.58C817 425.603 815.397 424 813.42 424ZM763 434C761.895 434 761 433.105 761 432 761 430.895 761.895 430 763 430 764.105 430 765 430.895 765 432 765 433.105 764.105 434 763 434ZM773 434C771.895 434 771 433.105 771 432 771 430.895 771.895 430 773 430 774.105 430 775 430.895 775 432 775 433.105 774.105 434 773 434ZM783 434C781.895 434 781 433.105 781 432 781 430.895 781.895 430 783 430 784.105 430 785 430.895 785 432 785 433.105 784.105 434 783 434Z"/><path d="M813.42 404 756.58 404C754.603 404 753 405.603 753 407.58L753 416.42C753 418.397 754.603 420 756.58 420L813.42 420C815.397 420 817 418.397 817 416.42L817 407.58C817 405.603 815.397 404 813.42 404ZM763 414C761.895 414 761 413.105 761 412 761 410.895 761.895 410 763 410 764.105 410 765 410.895 765 412 765 413.105 764.105 414 763 414ZM773 414C771.895 414 771 413.105 771 412 771 410.895 771.895 410 773 410 774.105 410 775 410.895 775 412 775 413.105 774.105 414 773 414ZM783 414C781.895 414 781 413.105 781 412 781 410.895 781.895 410 783 410 784.105 410 785 410.895 785 412 785 413.105 784.105 414 783 414Z"/><path d="M813.42 384 756.58 384C754.603 384 753 385.603 753 387.58L753 396.42C753 398.397 754.603 400 756.58 400L813.42 400C815.397 400 817 398.397 817 396.42L817 387.58C817 385.603 815.397 384 813.42 384ZM763 394C761.895 394 761 393.105 761 392 761 390.895 761.895 390 763 390 764.105 390 765 390.895 765 392 765 393.105 764.105 394 763 394ZM773 394C771.895 394 771 393.105 771 392 771 390.895 771.895 390 773 390 774.105 390 775 390.895 775 392 775 393.105 774.105 394 773 394ZM783 394C781.895 394 781 393.105 781 392 781 390.895 781.895 390 783 390 784.105 390 785 390.895 785 392 785 393.105 784.105 394 783 394Z"/></g></g></g><g clip-path="url(#clip7)"><g clip-path="url(#clip8)"><g clip-path="url(#clip9)"><path d="M83 269 82 269 82 303.011 102 303.011 102 269 83 269ZM101 302.011 83 302.011 83 270 101 270Z"/><path d="M103.5 264 80.5 264C79.9484 264.002 79.5016 264.448 79.5 265L79.5 307.013C79.5019 307.564 79.9485 308.011 80.5 308.013L103.5 308.013C104.051 308.01 104.498 307.564 104.5 307.013L104.5 265C104.498 264.449 104.051 264.002 103.5 264ZM103.5 307.013 80.5 307.013 80.5 265 103.5 265Z"/><path d="M90 267.5 94.5 267.5C94.7762 267.5 95 267.276 95 267 95 266.724 94.7762 266.5 94.5 266.5L90 266.5C89.7238 266.5 89.5 266.724 89.5 267 89.5 267.276 89.7238 267.5 90 267.5Z"/></g></g></g><g clip-path="url(#clip10)"><g clip-path="url(#clip11)"><g clip-path="url(#clip12)"><path d="M173 269 172 269 172 303.011 192 303.011 192 269 173 269ZM191 302.011 173 302.011 173 270 191 270Z"/><path d="M193.5 264 170.5 264C169.948 264.002 169.502 264.448 169.5 265L169.5 307.013C169.502 307.564 169.949 308.011 170.5 308.013L193.5 308.013C194.051 308.01 194.498 307.564 194.5 307.013L194.5 265C194.498 264.449 194.051 264.002 193.5 264ZM193.5 307.013 170.5 307.013 170.5 265 193.5 265Z"/><path d="M180 267.5 184.5 267.5C184.776 267.5 185 267.276 185 267 185 266.724 184.776 266.5 184.5 266.5L180 266.5C179.724 266.5 179.5 266.724 179.5 267 179.5 267.276 179.724 267.5 180 267.5Z"/></g></g></g><g clip-path="url(#clip13)"><g clip-path="url(#clip14)"><g clip-path="url(#clip15)"><path d="M262 269 261 269 261 303.011 281 303.011 281 269 262 269ZM280 302.011 262 302.011 262 270 280 270Z"/><path d="M282.5 264 259.5 264C258.948 264.002 258.502 264.448 258.5 265L258.5 307.013C258.502 307.564 258.948 308.011 259.5 308.013L282.5 308.013C283.051 308.01 283.498 307.564 283.5 307.013L283.5 265C283.498 264.449 283.052 264.002 282.5 264ZM282.5 307.013 259.5 307.013 259.5 265 282.5 265Z"/><path d="M269 267.5 273.5 267.5C273.776 267.5 274 267.276 274 267 274 266.724 273.776 266.5 273.5 266.5L269 266.5C268.724 266.5 268.5 266.724 268.5 267 268.5 267.276 268.724 267.5 269 267.5Z"/></g></g></g><g clip-path="url(#clip16)"><g clip-path="url(#clip17)"><g clip-path="url(#clip18)"><path d="M574 441 546 441 546 437 539 437 539 428 566 428C568.209 428 570 426.209 570 424L570 414C569.996 412.847 569.492 411.752 568.618 411 569.492 410.248 569.996 409.153 570 408L570 398C569.996 396.847 569.492 395.752 568.618 395 569.492 394.248 569.996 393.153 570 392L570 382C570 379.791 568.209 378 566 378L510 378C507.791 378 506 379.791 506 382L506 392C506.004 393.153 506.508 394.248 507.382 395 506.508 395.752 506.004 396.847 506 398L506 408C506.004 409.153 506.508 410.248 507.382 411 506.508 411.752 506.004 412.847 506 414L506 424C506 426.209 507.791 428 510 428L537 428 537 437 530 437 530 441 502 441 502 443 530 443 530 447 546 447 546 443 574 443ZM508 392 508 382C508 380.895 508.895 380 510 380L566 380C567.105 380 568 380.895 568 382L568 392C568 393.105 567.105 394 566 394L510 394C508.895 394 508 393.105 508 392ZM508 408 508 398C508 396.895 508.895 396 510 396L566 396C567.105 396 568 396.895 568 398L568 408C568 409.105 567.105 410 566 410L510 410C508.895 410 508 409.105 508 408ZM508 424 508 414C508 412.895 508.895 412 510 412L566 412C567.105 412 568 412.895 568 414L568 424C568 425.105 567.105 426 566 426L510 426C508.895 426 508 425.105 508 424ZM544 445 532 445 532 439 544 439Z"/><path d="M518 387C518 388.105 517.105 389 516 389 514.895 389 514 388.105 514 387 514 385.895 514.895 385 516 385 517.105 385 518 385.895 518 387Z"/><path d="M528 387C528 388.105 527.105 389 526 389 524.895 389 524 388.105 524 387 524 385.895 524.895 385 526 385 527.105 385 528 385.895 528 387Z"/><path d="M538 387C538 388.105 537.105 389 536 389 534.895 389 534 388.105 534 387 534 385.895 534.895 385 536 385 537.105 385 538 385.895 538 387Z"/><path d="M518 403C518 404.105 517.105 405 516 405 514.895 405 514 404.105 514 403 514 401.895 514.895 401 516 401 517.105 401 518 401.895 518 403Z"/><path d="M528 403C528 404.105 527.105 405 526 405 524.895 405 524 404.105 524 403 524 401.895 524.895 401 526 401 527.105 401 528 401.895 528 403Z"/><path d="M538 403C538 404.105 537.105 405 536 405 534.895 405 534 404.105 534 403 534 401.895 534.895 401 536 401 537.105 401 538 401.895 538 403Z"/><path d="M518 419C518 420.105 517.105 421 516 421 514.895 421 514 420.105 514 419 514 417.895 514.895 417 516 417 517.105 417 518 417.895 518 419Z"/><path d="M528 419C528 420.105 527.105 421 526 421 524.895 421 524 420.105 524 419 524 417.895 524.895 417 526 417 527.105 417 528 417.895 528 419Z"/><path d="M538 419C538 420.105 537.105 421 536 421 534.895 421 534 420.105 534 419 534 417.895 534.895 417 536 417 537.105 417 538 417.895 538 419Z"/></g></g></g><g clip-path="url(#clip19)"><g clip-path="url(#clip20)"><g clip-path="url(#clip21)"><path d="M828 169 772 169 772 135 828 135 828 169ZM834 133C834 130.8 832.2 129 830 129L770 129C767.8 129 766 130.8 766 133L766 175 834 175 834 133Z"/><path d="M806 179 806 180C806 180.6 805.6 181 805 181L795 181C794.4 181 794 180.6 794 180L794 179 754 179 754 181C754 183.2 755.8 185 758 185L842 185C844.2 185 846 183.2 846 181L846 179 806 179Z"/></g></g></g><g clip-path="url(#clip22)"><g clip-path="url(#clip23)"><g clip-path="url(#clip24)"><path d="M998 171 942 171 942 137 998 137 998 171ZM1004 135C1004 132.8 1002.2 131 1000 131L940 131C937.8 131 936 132.8 936 135L936 177 1004 177 1004 135Z"/><path d="M976 181 976 182C976 182.6 975.6 183 975 183L965 183C964.4 183 964 182.6 964 182L964 181 924 181 924 183C924 185.2 925.8 187 928 187L1012 187C1014.2 187 1016 185.2 1016 183L1016 181 976 181Z"/></g></g></g><g clip-path="url(#clip25)"><g clip-path="url(#clip26)"><g clip-path="url(#clip27)"><path d="M1167 169 1111 169 1111 135 1167 135 1167 169ZM1173 133C1173 130.8 1171.2 129 1169 129L1109 129C1106.8 129 1105 130.8 1105 133L1105 175 1173 175 1173 133Z"/><path d="M1145 179 1145 180C1145 180.6 1144.6 181 1144 181L1134 181C1133.4 181 1133 180.6 1133 180L1133 179 1093 179 1093 181C1093 183.2 1094.8 185 1097 185L1181 185C1183.2 185 1185 183.2 1185 181L1185 179 1145 179Z"/></g></g></g><g clip-path="url(#clip28)"><g clip-path="url(#clip29)"><g clip-path="url(#clip30)"><path d="M234 614.994 234 579 176 579 176 615.01ZM178 581 232 581 232 612.993 178 613.01Z"/><path d="M173 578C173 576.895 173.895 576 175 576L235 576C236.105 576 237 576.895 237 578L237 619.013 239 619.013 239 578C239 575.791 237.209 574 235 574L175 574C172.791 574 171 575.791 171 578L171 619.013 173 619.013Z"/><path d="M210 621.994 210 623.994 200 623.994 200 621.994 159 621.994 159 623.994C159.003 626.754 161.24 628.991 164 628.994L246 628.994C248.76 628.991 250.997 626.754 251 623.994L251 621.994ZM246 626.994 164 626.994C162.343 626.994 161 625.651 161 623.994L198 623.994C197.964 625.062 198.8 625.958 199.868 625.994 199.912 625.995 199.956 625.995 200 625.994L210 625.994C211.068 626.031 211.964 625.194 212 624.126 212.001 624.082 212.001 624.038 212 623.994L249 623.994C249 625.651 247.657 626.994 246 626.994Z"/></g></g></g><g clip-path="url(#clip31)"><g clip-path="url(#clip32)"><g clip-path="url(#clip33)"><path d="M275 123 219 123 219 89 275 89 275 123ZM281 87C281 84.8 279.2 83 277 83L217 83C214.8 83 213 84.8 213 87L213 129 281 129 281 87Z"/><path d="M253 133 253 134C253 134.6 252.6 135 252 135L242 135C241.4 135 241 134.6 241 134L241 133 201 133 201 135C201 137.2 202.8 139 205 139L289 139C291.2 139 293 137.2 293 135L293 133 253 133Z"/></g></g></g><path d="M762.954 527.962C769.765 528.333 789.637 528.5 789.637 528.5L1153.69 528.5C1198.5 528.323 1234.68 491.888 1234.5 447.12 1234.32 402.865 1198.65 366.929 1154.36 366.387L1147.63 366.387C1147.56 333.772 1131.76 303.19 1105.19 284.251 1078.26 265.429 1043.93 260.672 1012.89 271.463 982.419 211.935 909.415 188.359 849.834 218.805 809.517 239.407 784.064 280.75 783.84 325.993L783.84 327.339C778.555 326.475 773.208 326.04 767.853 326.038 711.942 325.974 666.565 371.205 666.5 427.066 666.483 441.926 669.743 456.607 676.049 470.065 692.414 503.639 725.641 525.776 762.954 527.962ZM697.594 374.481C714.402 352.67 740.299 339.774 767.849 339.498 772.475 339.502 777.093 339.877 781.659 340.621L797.308 343.179 797.308 325.99C797.674 266.554 846.196 218.669 905.685 219.034 945.877 219.281 982.587 241.864 1000.9 277.608L1006.25 288.02 1017.32 284.174C1062.77 267.937 1112.8 291.591 1129.05 337.008 1132.42 346.436 1134.15 356.374 1134.15 366.387L1134.15 379.848 1154.36 379.848C1191.73 380.397 1221.57 411.104 1221.02 448.434 1220.48 485.252 1190.54 514.864 1153.69 515.039L775.691 515.039 763.685 514.52C715.392 512.44 677.931 471.639 680.013 423.389 680.777 405.683 686.907 388.627 697.592 374.481Z" stroke="#4472C4" stroke-width="0.666667" stroke-miterlimit="8" fill="none" fill-rule="evenodd"/><rect x="460" y="364" width="158" height="117" fill="#FFFFFF"/><g clip-path="url(#clip34)"><g clip-path="url(#clip35)"><g clip-path="url(#clip36)"><path d="M568 435.994 568 400 510 400 510 436.01ZM512 402 566 402 566 433.993 512 434.01Z"/><path d="M507 399C507 397.895 507.895 397 509 397L569 397C570.105 397 571 397.895 571 399L571 440.013 573 440.013 573 399C573 396.791 571.209 395 569 395L509 395C506.791 395 505 396.791 505 399L505 440.013 507 440.013Z"/><path d="M544 442.994 544 444.994 534 444.994 534 442.994 493 442.994 493 444.994C493.003 447.754 495.24 449.991 498 449.994L580 449.994C582.76 449.991 584.997 447.754 585 444.994L585 442.994ZM580 447.994 498 447.994C496.343 447.994 495 446.651 495 444.994L532 444.994C531.964 446.062 532.8 446.957 533.868 446.994 533.912 446.995 533.956 446.995 534 446.994L544 446.994C545.068 447.031 545.964 446.194 546 445.126 546.002 445.082 546.002 445.038 546 444.994L583 444.994C583 446.651 581.657 447.994 580 447.994Z"/></g></g></g><path d="M6.68343 0.338994 10.5106 0.923964 15.7992 2.49795 20.9533 4.63501 26.1671 7.33614 31.2528 10.6011 36.2715 14.3651 41.2253 18.6291 46.1144 23.3928 50.9393 28.6564 55.5745 34.2938 60.146 40.3682 64.5914 46.8799 68.9121 53.7679 77.1097 68.5361 84.619 84.6812 91.3761 101.887 97.3822 120.093 102.387 139.048 106.516 158.691 109.519 178.835 111.395 199.23 111.819 213.201 111.152 213.221 110.729 199.26 110.731 199.281 108.856 178.906 108.858 178.924 105.858 158.799 105.861 158.819 101.736 139.194 101.74 139.21 96.7402 120.273 96.7459 120.292 90.7459 102.104 90.7522 102.122 84.0022 84.9343 84.0103 84.9531 76.5103 68.8281 76.5211 68.8493 68.3336 54.0993 68.3426 54.1146 64.0301 47.2396 64.0372 47.2504 59.5997 40.7504 59.6087 40.7629 55.0462 34.7004 55.055 34.7117 50.43 29.0867 50.4418 29.1002 45.6293 23.8502 45.6424 23.8637 40.7674 19.1137 40.7825 19.1276 35.845 14.8776 35.8625 14.8917 30.8625 11.1417 30.8824 11.1555 25.8199 7.90551 25.8467 7.92097 20.6592 5.23347 20.6848 5.24541 15.5598 3.12041 15.5924 3.13198 10.3424 1.56948 10.3871 1.57951 6.5827 0.998007ZM7.55858 4.78204 0 0 8.36078-3.17764ZM115.443 211.758 111.687 219.875 107.447 212Z" fill="#4472C4" transform="matrix(-4.37114e-08 1 1 4.37114e-08 271.5 310.5)"/><path d="M6.67161 0.602049 10.5374 1.4305 15.8365 3.63846 20.9959 6.65861 26.2108 10.4913 31.2951 15.0734 36.3122 20.3414 41.2636 26.3582 46.1491 33.0601 50.9709 40.3868 55.6037 48.3377 60.1721 56.9112 64.6146 66.0464 68.9313 75.681 73.1227 85.8779 77.1262 96.5122 80.9414 107.645 84.6311 119.152 88.1336 131.035 91.386 143.357 97.3887 168.931 102.391 195.632 106.518 223.208 109.52 251.472 111.396 280.236 111.877 302.515 111.21 302.53 110.729 280.257 110.73 280.272 108.855 251.522 108.856 251.535 105.856 223.285 105.858 223.299 101.733 195.737 101.735 195.749 96.7349 169.061 96.738 169.076 90.738 143.514 90.7402 143.523 87.4902 131.21 87.4928 131.219 83.9928 119.344 83.9951 119.352 80.3076 107.852 80.3097 107.858 76.4972 96.7331 76.5005 96.7424 72.5005 86.1174 72.5042 86.1267 68.3167 75.9392 68.3208 75.9488 64.0083 66.3238 64.0127 66.3333 59.5752 57.2083 59.5808 57.2192 55.0183 48.6567 55.0245 48.6678 50.3995 40.7303 50.4091 40.7457 45.5966 33.4332 45.6056 33.4464 40.7306 26.7589 40.7426 26.7743 35.8051 20.7743 35.8211 20.7924 30.8211 15.5424 30.8393 15.5601 25.7768 10.9976 25.8026 11.0186 20.6151 7.2061 20.6441 7.22517 15.5191 4.22517 15.5593 4.24519 10.3093 2.05769 10.3677 2.07593 6.53192 1.25391ZM7.36533 5.07464 0 0 8.47891-2.84748ZM115.514 301.103 111.687 309.187 107.516 301.276Z" fill="#4472C4" transform="matrix(-4.37114e-08 1 1 4.37114e-08 182.5 310.5)"/><path d="M6.64839 0.88428 10.5619 2.00136 15.8666 4.78 21.0278 8.68237 26.2411 13.5816 31.3235 19.4798 36.3377 26.3116 41.2859 34.0783 46.1687 42.7172 50.9881 52.1682 55.6184 62.4301 60.1849 73.4397 64.6259 85.199 68.9412 97.6445 73.1312 110.715 77.1336 124.41 80.9478 138.729 84.6368 153.61 88.1383 168.929 91.3895 184.81 94.5154 201.065 97.3917 217.76 102.393 252.144 106.519 287.717 109.52 324.165 111.396 361.176 111.909 391.829 111.243 391.84 110.729 361.193 110.73 361.204 108.855 324.204 108.855 324.215 105.855 287.777 105.856 287.788 101.731 252.226 101.733 252.235 96.7326 217.86 96.734 217.869 93.859 201.182 93.8602 201.188 90.7352 184.938 90.7359 184.942 87.4859 169.067 87.4875 169.074 83.9875 153.762 83.989 153.768 80.3015 138.893 80.3029 138.898 76.4904 124.586 76.4925 124.593 72.4925 110.906 72.4951 110.914 68.3076 97.8518 68.3101 97.8592 63.9976 85.4217 64.0007 85.4303 59.5632 73.6803 59.5671 73.6902 55.0046 62.6902 55.0087 62.6996 50.3837 52.4496 50.3905 52.4639 45.578 43.0264 45.5848 43.039 40.7098 34.414 40.7189 34.4291 35.7814 26.6791 35.7938 26.6972 30.7938 19.8847 30.81 19.9051 25.7475 14.0301 25.7717 14.0554 20.5842 9.1804 20.6115 9.20339 15.4865 5.32839 15.5328 5.35778 10.2828 2.60778 10.346 2.63303 6.4654 1.52534ZM7.14539 5.37991 0 0 8.59116-2.48836ZM115.553 390.434 111.687 398.5 107.554 390.568Z" fill="#4472C4" transform="matrix(-4.37114e-08 1 1 4.37114e-08 92.5001 310.5)"/><path d="M6.67302-0.16234 26.8293 0.354488 53.4081 2.35571 79.6112 5.60765 105.189 9.98527 129.892 15.4262 153.533 21.8679 175.984 29.1225 186.62 33.0639 196.941 37.1926 206.764 41.5094 216.211 46.014 225.158 50.6442 233.608 55.4009 241.495 60.3458 248.881 65.3537 255.709 70.49 261.849 75.7527 267.426 81.079 272.381 86.4733 276.586 91.9967 280.103 97.5237 282.869 103.118 284.948 108.724 285.805 113.38 285.149 113.501 284.297 108.873 284.312 108.928 282.25 103.366 282.264 103.398 279.514 97.8352 279.531 97.8665 276.031 92.3665 276.047 92.3894 271.86 86.8894 271.879 86.913 266.942 81.538 266.957 81.5536 261.395 76.2411 261.408 76.2531 255.283 71.0031 255.3 71.0164 248.487 65.8914 248.5 65.9009 241.125 60.9009 241.135 60.9074 233.26 55.9699 233.274 55.978 224.836 51.228 224.847 51.2335 215.909 46.6085 215.919 46.6134 206.482 42.1134 206.491 42.1177 196.678 37.8052 196.689 37.8095 186.376 33.6845 186.384 33.6876 175.759 29.7501 175.773 29.7547 153.335 22.5047 153.35 22.5091 129.725 16.0716 129.741 16.0755 105.053 10.638 105.069 10.6411 79.5063 6.26606 79.5214 6.2683 53.3339 3.0183 53.35 3.01989 26.7875 1.01989 26.804 1.02072 6.65593 0.504108ZM7.89484 4.20375 0 0 8.0999-3.79362ZM289.296 111.653 286.25 120.062 281.349 112.58Z" fill="#4472C4" transform="matrix(1 0 0 -1 253.5 601.558)"/><path d="M0.0160072-0.332949 6.53051-0.0197516 12.9979 0.859312 19.4643 2.36604 25.8636 4.43641 32.2619 7.00828 38.534 10.1443 44.739 13.7796 50.88 17.8527 56.9592 22.4278 62.8477 27.5019 68.6087 32.8872 74.3076 38.7739 79.7553 44.9731 85.0784 51.6113 95.2166 65.8172 104.48 81.2764 112.865 97.8597 120.249 115.318 126.507 133.59 131.575 152.488 135.266 171.82 136.644 181.586 137.582 191.475 138.146 201.361 138.396 211.243 138.771 230.994 138.77 230.981 139.895 250.606 139.894 250.594 141.707 269.906 141.705 269.894 144.205 288.769 144.204 288.757 147.266 307.007 147.264 306.996 150.827 324.433 150.823 324.419 154.948 340.982 154.945 340.968 159.507 356.405 159.502 356.39 164.44 370.578 164.436 370.567 166.998 377.192 166.993 377.18 169.681 383.367 169.677 383.359 172.427 389.234 172.419 389.218 175.294 394.593 175.29 394.585 178.165 399.648 178.155 399.632 181.093 404.195 181.081 404.177 184.081 408.239 184.069 408.225 187.069 411.85 187.048 411.827 190.173 414.952 190.151 414.932 193.214 417.494 193.184 417.472 196.309 419.534 196.241 419.5 199.261 420.624 199.028 421.249 195.973 420.112 192.801 418.018 189.712 415.434 186.566 412.287 183.55 408.643 180.538 404.564 177.59 399.985 174.708 394.911 171.827 389.524 169.071 383.637 166.379 377.439 163.812 370.802 158.87 356.602 154.303 341.15 150.175 324.574 146.61 307.123 143.545 288.862 141.044 269.975 139.23 250.65 138.104 231.013 137.729 211.256 137.729 211.258 137.479 201.383 137.48 201.394 136.917 191.519 136.918 191.532 135.981 181.657 135.982 181.672 134.607 171.922 134.61 171.938 130.923 152.625 130.928 152.649 125.866 133.774 125.872 133.795 119.622 115.545 119.63 115.567 112.255 98.1298 112.265 98.1504 103.89 81.5879 103.902 81.6088 94.6516 66.1713 94.6662 66.1936 84.5412 52.0061 84.5524 52.021 79.2399 45.396 79.2496 45.4075 73.8121 39.22 73.823 39.2318 68.1355 33.3568 68.1474 33.3685 62.3974 27.9935 62.4074 28.0025 56.5324 22.94 56.5496 22.9538 50.4871 18.3913 50.5033 18.4028 44.3783 14.3403 44.394 14.3501 38.2065 10.7251 38.2259 10.7356 31.9759 7.61064 32.0007 7.62178 25.6257 5.05928 25.6474 5.06715 19.2724 3.00465 19.2994 3.01214 12.8619 1.51214 12.8926 1.5178 6.45511 0.642796 6.48399 0.645449-0.0160072 0.332949ZM198.786 416.735 205.625 422.5 196.91 424.512Z" fill="#4472C4" transform="matrix(-4.37114e-08 -1 -1 4.37114e-08 538.98 365.066)"/><path d="M0.00884644-0.333216 7.08163-0.145443 14.1647 0.481381 21.1822 1.54653 28.2031 2.92565 41.9831 6.87171 55.4504 12.2586 68.4766 18.897 80.9386 26.6623 92.7739 35.5544 103.795 45.3856 113.939 56.0932 123.082 67.4902 131.161 79.5779 137.988 92.2306 143.5 105.258 145.694 111.903 147.574 118.608 149.015 125.377 150.081 132.209 150.708 139.041 150.958 145.928 151.271 159.617 151.27 159.602 152.208 173.102 152.206 173.089 153.644 186.464 153.642 186.449 155.642 199.449 155.64 199.437 158.077 212.062 158.074 212.046 161.011 224.109 161.008 224.094 164.32 235.469 164.315 235.454 168.003 246.141 167.997 246.126 171.934 255.938 171.925 255.917 176.237 264.792 176.226 264.77 180.726 272.52 180.71 272.495 185.397 279.12 185.372 279.089 190.247 284.464 190.206 284.426 195.206 288.363 195.135 288.32 198.851 289.972 198.58 290.581 194.827 288.913 189.772 284.932 184.865 279.521 180.157 272.868 175.643 265.094 171.32 256.198 167.375 246.367 163.682 235.664 160.365 224.274 157.424 212.196 154.984 199.557 152.982 186.543 151.543 173.154 150.604 159.64 150.292 145.945 150.292 145.95 150.042 139.075 150.043 139.093 149.418 132.28 149.421 132.301 148.358 125.489 148.361 125.507 146.924 118.757 146.929 118.777 145.054 112.09 145.058 112.105 142.871 105.48 142.88 105.505 137.38 92.5049 137.394 92.5333 130.582 79.9083 130.598 79.9352 122.535 67.8727 122.552 67.8961 113.427 56.5211 113.446 56.5417 103.321 45.8542 103.341 45.8737 92.3406 36.0612 92.3623 36.079 80.5498 27.204 80.5737 27.2204 68.1362 19.4704 68.1611 19.4845 55.1611 12.8595 55.1887 12.872 41.7512 7.49699 41.7832 7.50795 28.0332 3.57045 28.0608 3.57708 21.0608 2.20208 21.075 2.20456 14.075 1.14206 14.0956 1.14454 7.03312 0.519536 7.05365 0.520716-0.00884644 0.333216ZM198.38 286.073 205.187 291.875 196.462 293.84Z" fill="#4472C4" transform="matrix(-4.37114e-08 -1 -1 4.37114e-08 539.332 364.633)"/><rect x="28.5001" y="53.5001" width="600" height="622" stroke="#2F528F" stroke-width="1.33333" stroke-miterlimit="8" fill="none"/><text font-family="Calibri,Calibri_MSFontService,sans-serif" font-weight="400" font-size="24" transform="translate(310.481 115)">Scoreboards<tspan x="0" y="164">Referee</tspan><tspan x="0" y="193">Phone/Tablet</tspan><tspan x="-144.749" y="541">Marshall</tspan><tspan x="173.979" y="537">Announcer</tspan><tspan font-style="italic" x="-280.42" y="-69">Competition</tspan><tspan font-style="italic" x="-155.713" y="-69">Site</tspan></text><path d="M0.0089228-2.83332 135.86-2.40549 135.842 3.26115-0.0089228 2.83332ZM133.044-8.08105 150.017 0.472441 132.991 8.91886Z" fill="#4472C4" transform="matrix(1 0 0 -1 587 421.472)"/><g clip-path="url(#clip37)"><g clip-path="url(#clip38)"><g clip-path="url(#clip39)"><path d="M566 614.994 566 579 508 579 508 615.01ZM510 581 564 581 564 612.993 510 613.01Z"/><path d="M505 578C505 576.895 505.895 576 507 576L567 576C568.105 576 569 576.895 569 578L569 619.013 571 619.013 571 578C571 575.791 569.209 574 567 574L507 574C504.791 574 503 575.791 503 578L503 619.013 505 619.013Z"/><path d="M542 621.994 542 623.994 532 623.994 532 621.994 491 621.994 491 623.994C491.003 626.754 493.24 628.991 496 628.994L578 628.994C580.76 628.991 582.997 626.754 583 623.994L583 621.994ZM578 626.994 496 626.994C494.343 626.994 493 625.651 493 623.994L530 623.994C529.964 625.062 530.8 625.958 531.868 625.994 531.912 625.995 531.956 625.995 532 625.994L542 625.994C543.068 626.031 543.964 625.194 544 624.126 544.002 624.082 544.002 624.038 544 623.994L581 623.994C581 625.651 579.657 626.994 578 626.994Z"/></g></g></g><text font-family="Calibri,Calibri_MSFontService,sans-serif" font-weight="400" font-size="24" transform="translate(503.755 473)">owlcms</text><path d="M591.847 599.373 594.374 598.032 594.296 598.089 598.359 594.089 598.317 594.139 601.942 588.826 601.919 588.866 604.982 582.679 604.965 582.719 607.34 575.781 607.328 575.823 608.828 568.386 608.823 568.427 609.385 560.74 609.385 560.78 609.197 556.905 609.201 556.938 608.638 553.125 608.648 553.171 606.461 545.733 606.481 545.785 603.106 538.847 603.133 538.894 598.758 532.707 598.79 532.746 593.665 527.433 593.716 527.476 587.904 523.476 587.944 523.5 584.944 522 584.98 522.015 581.855 520.89 581.898 520.903 578.71 520.215 578.754 520.221 575.567 519.971 575.573 519.972 572.366 519.783 569.132 519.213 562.952 517.005 557.087 513.6 551.918 509.187 547.507 503.957 544.098 498.15 542.223 492.131 542.859 491.932 544.724 497.915 544.693 497.845 548.068 503.595 548.035 503.549 552.41 508.737 552.372 508.698 557.497 513.073 557.448 513.038 563.26 516.413 563.205 516.388 569.33 518.575 569.276 518.561 572.463 519.123 572.425 519.119 575.616 519.307 578.829 519.559 582.06 520.255 585.224 521.395 588.263 522.914 594.122 526.946 599.288 532.301 603.693 538.531 607.092 545.518 609.294 553.005 609.862 556.857 610.052 560.768 609.486 568.497 607.978 575.976 605.589 582.955 602.506 589.183 598.85 594.541 594.729 598.598 592.16 599.962ZM594.594 602.994 585.718 601.889 591.927 595.452ZM538.808 493.991 541.468 485.452 546.703 492.704Z" fill="#4472C4"/><text font-family="Calibri,Calibri_MSFontService,sans-serif" font-weight="400" font-size="24" transform="translate(722.221 484)">publicresults</text><path d="M0.0342997-0.331564 1.87971-0.14066 3.76454 0.44429 7.45976 2.73787 11.0051 6.34649 14.5318 11.1957 17.8608 17.2256 21.0578 24.3092 24.1274 32.3278 26.945 41.2813 29.5734 50.9815 31.9513 61.3067 34.0161 72.2564 35.7679 83.7055 37.1441 95.5287 38.2076 107.664 38.8332 119.926 39.0834 132.375 38.5206 157.075 37.8952 169.146 37.0197 180.965 35.9565 192.41 34.6431 203.355 33.2045 213.676 31.578 223.372 29.8259 232.32 27.9478 240.333 25.9432 247.412 23.8731 253.434 21.7239 258.302 19.9613 260.439 19.447 260.014 21.1804 257.913 21.1326 257.99 23.2576 253.178 23.2473 253.204 25.3098 247.204 25.3043 247.222 27.3043 240.159 27.3005 240.174 29.1755 232.174 29.1729 232.186 30.9229 223.248 30.9213 223.257 32.5463 213.57 32.5449 213.579 33.9824 203.266 33.9815 203.273 35.294 192.335 35.2931 192.344 36.3556 180.907 36.3551 180.913 37.2301 169.1 37.2296 169.108 37.8546 157.045 37.8543 157.055 38.4168 132.367 38.4167 132.382 38.1667 119.944 38.1671 119.954 37.5421 107.704 37.5429 107.717 36.4804 95.5916 36.4814 95.601 35.1064 83.7885 35.108 83.8004 33.358 72.3629 33.3599 72.3743 31.2974 61.4368 31.3002 61.4498 28.9252 51.1373 28.9283 51.1497 26.3033 41.4622 26.307 41.4751 23.4945 32.5376 23.5012 32.5567 20.4387 24.5567 20.4462 24.5746 17.2587 17.5121 17.2707 17.5361 13.9582 11.5361 13.9804 11.5711 10.4804 6.75856 10.5122 6.79611 7.01222 3.23361 7.07421 3.28321 3.44921 1.03321 3.5262 1.06835 1.7137 0.505855 1.7782 0.519064-0.0342997 0.331564ZM23.3716 262.307 14.75 264.687 18.0183 256.362Z" fill="#4472C4" transform="matrix(1 0 0 -1 833.5 422.168)"/><path d="M0.00640907-0.333272 9.76275-0.14565 19.5908 0.417739 38.9869 2.60762 58.0719 6.17433 76.719 10.93 94.7405 16.9371 112.011 23.9454 128.344 31.893 143.616 40.7179 157.634 50.3559 164.147 55.4282 170.346 60.6253 176.108 66.0116 181.494 71.5227 186.444 77.0989 190.956 82.8642 195.029 88.6929 198.604 94.5876 201.677 100.609 204.25 106.633 206.258 112.783 207.765 118.874 208.645 125.093 208.959 131.245 208.396 155.762 207.77 167.771 206.895 179.466 205.831 190.786 204.518 201.668 203.079 211.926 201.453 221.56 199.701 230.383 197.823 238.334 195.818 245.35 193.748 251.372 191.598 256.178 189.854 258.273 189.342 257.847 191.056 255.787 191.008 255.864 193.133 251.114 193.122 251.142 195.185 245.142 195.179 245.158 197.179 238.158 197.176 238.173 199.051 230.236 199.048 230.248 200.798 221.435 200.796 221.445 202.421 211.82 202.42 211.829 203.857 201.579 203.857 201.585 205.169 190.71 205.168 190.719 206.231 179.406 206.23 179.413 207.105 167.725 207.105 167.733 207.73 155.733 207.729 155.742 208.292 131.242 208.292 131.267 207.98 125.142 207.982 125.172 207.107 118.984 207.114 119.018 205.614 112.955 205.621 112.978 203.621 106.853 203.631 106.881 201.068 100.881 201.078 100.902 198.016 94.9015 198.027 94.9228 194.465 89.0478 194.477 89.066 190.414 83.2535 190.425 83.2679 185.925 77.5179 185.938 77.5338 181.001 71.9713 181.012 71.983 175.637 66.483 175.647 66.4935 169.897 61.1185 169.911 61.1304 163.723 55.9429 163.733 55.9505 157.233 50.888 157.249 50.8997 143.249 41.2747 143.271 41.2886 128.021 32.4761 128.042 32.4872 111.729 24.5497 111.75 24.5589 94.4997 17.5589 94.5196 17.5662 76.5196 11.5662 76.5426 11.573 57.9176 6.82299 57.9388 6.82766 38.8763 3.26516 38.9001 3.26873 19.5251 1.08123 19.5434 1.08279 9.73092 0.520287 9.74359 0.520772-0.00640907 0.333272ZM193.257 260.156 184.625 262.5 187.929 254.188Z" fill="#4472C4" transform="matrix(1 0 0 -1 833.5 421.991)"/><path d="M0.00352093-0.333315 17.7571-0.145777 35.4534 0.417005 70.6527 2.66776 105.228 6.23158 139.054 11.0459 171.69 17.048 187.573 20.4248 203.018 24.114 218.024 27.9907 232.657 32.1179 246.728 36.4953 260.298 41.0604 273.368 45.8134 285.815 50.7543 297.637 55.821 308.773 61.0762 319.284 66.5195 328.984 72.0265 337.997 77.7225 346.2 83.4834 353.529 89.3718 360.048 95.3257 365.631 101.348 370.277 107.501 373.985 113.66 376.629 119.829 378.267 126.067 378.834 132.364 378.271 157.075 377.645 169.146 376.77 180.965 375.706 192.41 374.393 203.355 372.954 213.676 371.328 223.372 369.576 232.32 367.698 240.333 365.693 247.412 363.623 253.434 361.474 258.302 359.711 260.439 359.197 260.014 360.93 257.913 360.883 257.99 363.008 253.178 362.997 253.204 365.06 247.204 365.054 247.222 367.054 240.159 367.05 240.174 368.925 232.174 368.923 232.186 370.673 223.248 370.671 223.257 372.296 213.57 372.295 213.579 373.732 203.266 373.732 203.273 375.044 192.335 375.043 192.344 376.106 180.907 376.105 180.913 376.98 169.1 376.98 169.108 377.605 157.045 377.604 157.055 378.167 132.367 378.168 132.405 377.605 126.155 377.615 126.21 375.99 120.022 376.006 120.069 373.381 113.944 373.402 113.984 369.714 107.859 369.734 107.888 365.109 101.763 365.131 101.789 359.568 95.7891 359.588 95.8086 353.088 89.8711 353.104 89.8848 345.791 84.0098 345.808 84.0228 337.621 78.2728 337.634 78.2818 328.634 72.5943 328.648 72.6024 318.96 67.1024 318.972 67.1085 308.472 61.671 308.483 61.6764 297.358 56.4264 297.369 56.4314 285.556 51.3689 285.564 51.3723 273.127 46.4348 273.136 46.4383 260.074 41.6883 260.081 41.6909 246.519 37.1284 246.526 37.1308 232.463 32.7558 232.472 32.7583 217.847 28.6333 217.854 28.6352 202.854 24.7602 202.86 24.7617 187.423 21.0742 187.431 21.076 171.556 17.701 171.565 17.7028 138.94 11.7028 138.953 11.705 105.141 6.89251 105.153 6.89408 70.5908 3.33158 70.6037 3.33265 35.4162 1.08265 35.4269 1.08316 17.7394 0.520665 17.7465 0.520815-0.00352093 0.333315ZM363.122 262.307 354.5 264.687 357.768 256.362Z" fill="#4472C4" transform="matrix(1 0 0 -1 833.5 422.168)"/><text font-family="Calibri,Calibri_MSFontService,sans-serif" font-style="italic" font-weight="400" font-size="24" transform="translate(766.631 108)">Gym 1<tspan x="168.205" y="0">Gym 2</tspan><tspan x="338.073" y="0">Gym 3</tspan></text></g></svg>