<svg width="1280" height="720" xmlns="http://www.w3.org/2000/svg" xmlns:xlink="http://www.w3.org/1999/xlink" overflow="hidden"><g><rect x="0" y="0" width="1280" height="720" fill="#FFFFFF"/><g><g><g><path d="M83 302 82 302 82 336.011 102 336.011 102 302 83 302ZM101 335.011 83 335.011 83 303 101 303Z"/><path d="M103.5 297 80.5 297C79.9484 297.002 79.5016 297.448 79.5 298L79.5 340.013C79.5019 340.564 79.9485 341.011 80.5 341.013L103.5 341.013C104.051 341.01 104.498 340.564 104.5 340.013L104.5 298C104.498 297.449 104.051 297.002 103.5 297ZM103.5 340.013 80.5 340.013 80.5 298 103.5 298Z"/><path d="M90 300.5 94.5 300.5C94.7762 300.5 95 300.276 95 300 95 299.724 94.7762 299.5 94.5 299.5L90 299.5C89.7238 299.5 89.5 299.724 89.5 300 89.5 300.276 89.7238 300.5 90 300.5Z"/></g></g></g><g><g><g><path d="M173 302 172 302 172 336.011 192 336.011 192 302 173 302ZM191 335.011 173 335.011 173 303 191 303Z"/><path d="M193.5 297 170.5 297C169.948 297.002 169.502 297.448 169.5 298L169.5 340.013C169.502 340.564 169.949 341.011 170.5 341.013L193.5 341.013C194.051 341.01 194.498 340.564 194.5 340.013L194.5 298C194.498 297.449 194.051 297.002 193.5 297ZM193.5 340.013 170.5 340.013 170.5 298 193.5 298Z"/><path d="M180 300.5 184.5 300.5C184.776 300.5 185 300.276 185 300 185 299.724 184.776 299.5 184.5 299.5L180 299.5C179.724 299.5 179.5 299.724 179.5 300 179.5 300.276 179.724 300.5 180 300.5Z"/></g></g></g><g><g><g><path d="M262 302 261 302 261 336.011 281 336.011 281 302 262 302ZM280 335.011 262 335.011 262 303 280 303Z"/><path d="M282.5 297 259.5 297C258.948 297.002 258.502 297.448 258.5 298L258.5 340.013C258.502 340.564 258.948 341.011 259.5 341.013L282.5 341.013C283.051 341.01 283.498 340.564 283.5 340.013L283.5 298C283.498 297.449 283.052 297.002 282.5 297ZM282.5 340.013 259.5 340.013 259.5 298 282.5 298Z"/><path d="M269 300.5 273.5 300.5C273.776 300.5 274 300.276 274 300 274 299.724 273.776 299.5 273.5 299.5L269 299.5C268.724 299.5 268.5 299.724 268.5 300 268.5 300.276 268.724 300.5 269 300.5Z"/></g></g></g><g><g><g><path d="M168 489.994 168 454 110 454 110 490.01ZM112 456 166 456 166 487.993 112 488.01Z"/><path d="M107 453C107 451.895 107.895 451 109 451L169 451C170.105 451 171 451.895 171 453L171 494.013 173 494.013 173 453C173 450.791 171.209 449 169 449L109 449C106.791 449 105 450.791 105 453L105 494.013 107 494.013Z"/><path d="M144 496.994 144 498.994 134 498.994 134 496.994 93 496.994 93 498.994C93.0033 501.754 95.24 503.991 98 503.994L180 503.994C182.76 503.991 184.997 501.754 185 498.994L185 496.994ZM180 501.994 98 501.994C96.3431 501.994 95 500.651 95 498.994L132 498.994C131.964 500.062 132.8 500.957 133.868 500.994 133.912 500.995 133.956 500.995 134 500.994L144 500.994C145.068 501.031 145.964 500.194 146 499.126 146.001 499.082 146.001 499.038 146 498.994L183 498.994C183 500.651 181.657 501.994 180 501.994Z"/></g></g></g><path d="M6.63807 1.13061 11.1234 3.00266 14.7892 5.53483 18.4082 8.72132 21.9848 12.5438 25.5135 16.9784 28.9886 22.0016 32.4038 27.59 35.7527 33.7203 39.0287 40.3691 42.2248 47.513 45.3342 55.1286 48.3499 63.1923 51.2649 71.6808 54.0721 80.5705 56.7645 89.8379 59.3353 99.4609 64.0814 119.67 68.2545 141.015 71.7972 163.304 74.6524 186.35 76.7626 209.963 78.0708 233.954 78.3958 251.463 77.7293 251.476 77.4044 233.973 77.4048 233.985 76.0973 210.005 76.0981 210.016 73.9888 186.415 73.99 186.426 71.1363 163.392 71.1379 163.403 67.597 141.125 67.5991 141.137 63.4283 119.804 63.4309 119.817 58.6874 99.6183 58.6899 99.6281 56.1213 90.0135 56.1233 90.0204 53.433 80.7602 53.4352 80.7676 50.6304 71.8855 50.633 71.8934 47.7209 63.4131 47.7239 63.4216 44.7115 55.3667 44.7151 55.376 41.6097 47.7701 41.614 47.7802 38.4227 40.647 38.4279 40.6582 35.1578 34.0213 35.1643 34.0337 31.8226 27.9167 31.8307 27.9308 28.4246 22.3573 28.4349 22.3731 24.9716 17.3669 24.9849 17.3848 21.4714 12.9694 21.4888 12.9896 17.9324 9.18858 17.9555 9.21102 14.3633 6.04814 14.3942 6.07222 10.7733 3.57106 10.8344 3.60442 6.38129 1.74584ZM6.94868 5.63168 0 0 8.67455-2.17994ZM82.0371 250.062 78.1862 258.135 74.0385 250.211Z" fill="#4472C4" transform="matrix(1.83697e-16 1 1 -1.83697e-16 271.5 343.5)"/><path d="M6.5649 1.57271 11.1609 4.16668 14.8254 7.57388 18.4407 11.8586 22.013 16.9977 25.5377 22.96 29.0093 29.7146 32.4215 37.2302 35.7679 45.4756 39.0417 54.4192 42.2361 64.0297 45.3439 74.2755 48.3583 85.1248 51.2722 96.5462 54.0784 108.508 56.7699 120.978 59.3395 133.925 61.7802 147.317 64.0847 161.122 66.246 175.309 68.257 189.847 71.7988 219.842 74.6533 250.855 76.7631 282.632 78.071 314.918 78.4277 340.789 77.7611 340.798 77.4045 314.932 77.4047 314.941 76.0972 282.663 76.0976 282.672 73.9884 250.904 73.989 250.912 71.1353 219.907 71.1362 219.916 67.5953 189.929 67.5962 189.935 65.5859 175.403 65.5866 175.407 63.426 161.225 63.4267 161.23 61.123 147.429 61.1239 147.434 58.6841 134.047 58.6851 134.052 56.1165 121.11 56.1176 121.116 53.4274 108.651 53.4287 108.657 50.6239 96.7016 50.6254 96.7079 47.7132 85.2931 47.715 85.2999 44.7026 74.4577 44.7048 74.4652 41.5994 64.2274 41.602 64.2358 38.4107 54.6342 38.414 54.6437 35.1439 45.7101 35.148 45.7209 31.8064 37.4872 31.8117 37.4997 28.4056 29.9976 28.4127 30.0122 24.9493 23.2736 24.9588 23.2908 21.4453 17.3475 21.4586 17.3681 17.9022 12.2519 17.9211 12.2766 14.3289 8.01922 14.3567 8.04838 10.7358 4.68173 10.799 4.7279 6.23723 2.15329ZM6.56348 6.07624 0 0 8.79908-1.60504ZM82.0757 339.405 78.1863 347.459 74.0764 339.515Z" fill="#4472C4" transform="matrix(1.83697e-16 1 1 -1.83697e-16 182.5 343.5)"/><path d="M6.47285 1.96785 11.1895 5.33071 14.8496 9.60865 18.4606 14.9885 22.0293 21.4422 25.5511 28.9311 29.0203 37.4164 32.4307 46.8589 35.7756 57.2194 39.0482 68.4582 42.2416 80.5356 45.3486 93.412 48.3623 107.047 51.2756 121.402 54.0813 136.436 56.7724 152.11 59.3416 168.383 61.782 185.215 64.0862 202.568 66.2472 220.4 68.2579 238.672 70.111 257.343 71.7995 276.375 74.6537 315.357 76.7633 355.299 78.0711 395.882 78.4465 430.114 77.7799 430.121 77.4045 395.892 77.4046 395.899 76.0971 355.324 76.0974 355.331 73.9881 315.396 73.9885 315.402 71.1348 276.427 71.1352 276.432 69.4471 257.404 69.4474 257.407 67.5947 238.739 67.595 238.743 65.5848 220.475 65.5852 220.478 63.4246 202.65 63.4251 202.654 61.1214 185.305 61.1219 185.309 58.6822 168.48 58.6828 168.485 56.1142 152.216 56.115 152.22 53.4247 136.551 53.4255 136.556 50.6207 121.527 50.6217 121.532 47.7095 107.183 47.7107 107.188 44.6983 93.559 44.6998 93.5652 41.5943 80.6955 41.5961 80.7025 38.4048 68.6326 38.407 68.6406 35.1369 57.4104 35.1397 57.4196 31.798 47.0692 31.8017 47.08 28.3956 37.6493 28.4006 37.6623 24.9372 29.1913 24.9441 29.207 21.4307 21.7358 21.4406 21.7552 17.8842 15.3237 17.8991 15.3482 14.3069 9.99634 14.3304 10.0273 10.7095 5.79513 10.7693 5.84984 6.08583 2.51067ZM6.19166 6.45472 0 0 8.87877-1.0805ZM82.0984 428.74 78.1863 436.784 74.0988 428.828Z" fill="#4472C4" transform="matrix(1.83697e-16 1 1 -1.83697e-16 92.5 343.5)"/><path d="M6.67182-0.205762 31.8953 0.276767 47.5321 1.00973 62.7918 2.00129 77.5507 3.23165 91.684 4.68095 105.067 6.32936 117.574 8.15706 129.081 10.1443 139.463 12.2716 148.594 14.5189 152.656 15.6827 156.358 16.8692 159.686 18.077 162.627 19.3042 165.165 20.5499 167.287 21.814 168.98 23.0992 170.228 24.4126 171.009 25.7652 171.267 27.0923 171.515 28.3649 171.477 28.262 172.21 29.532 172.163 29.469 173.365 30.7341 173.325 30.6982 174.981 31.9558 174.95 31.9349 177.045 33.1826 177.021 33.1697 179.538 34.405 179.52 34.3966 182.444 35.6169 182.429 35.6112 185.744 36.8141 185.732 36.81 189.423 37.993 189.413 37.99 193.464 39.1507 193.452 39.1474 202.57 41.3916 202.558 41.3888 212.928 43.5136 212.918 43.5117 224.416 45.4974 224.407 45.496 236.906 47.3226 236.899 47.3216 250.274 48.9691 250.268 48.9683 264.395 50.417 264.388 50.4164 279.141 51.6462 279.135 51.6458 294.388 52.6369 294.382 52.6366 310.012 53.3692 310.002 53.3689 335.221 53.8513 335.209 54.5179 309.985 54.0353 294.348 53.3024 279.089 52.3108 264.33 51.0805 250.196 49.6312 236.814 47.9828 224.307 46.1551 212.8 44.1678 202.417 42.0406 193.286 39.7933 189.224 38.6295 185.523 37.4429 182.194 36.2352 179.253 35.0079 176.715 33.7623 174.593 32.4981 172.9 31.2129 171.652 29.8996 170.871 28.547 170.613 27.2198 170.365 25.9473 170.404 26.0501 169.671 24.7801 169.718 24.8431 168.515 23.5781 168.555 23.6139 166.899 22.3563 166.93 22.3772 164.836 21.1295 164.859 21.1424 162.342 19.9072 162.361 19.9155 159.437 18.6952 159.451 18.7009 156.136 17.498 156.148 17.5021 152.457 16.3191 152.467 16.3221 148.417 15.1615 148.429 15.1647 139.31 12.9205 139.323 12.9234 128.952 10.7985 128.962 10.8004 117.465 8.81474 117.473 8.8161 104.974 6.98956 104.981 6.99057 91.6059 5.34304 91.6126 5.3438 77.4859 3.89516 77.4922 3.89575 62.7394 2.66591 62.7455 2.66636 47.4919 1.67519 47.4979 1.67552 31.8687 0.942918 31.878 0.943223 6.65907 0.460783ZM7.92203 4.15228 0 0 8.07504-3.84626ZM333.958 50.1598 341.88 54.3121 333.805 58.1584Z" fill="#4472C4" transform="matrix(1 0 0 -1 187.5 475.812)"/><path d="M0.0231547-0.332528 4.41494-0.0267184 8.81807 0.881946 13.1993 2.3711 17.5497 4.41995 21.8609 7.00798 26.125 10.1151 30.334 13.7214 34.48 17.8074 38.5552 22.3538 42.5515 27.3412 46.4607 32.7506 50.2746 38.5627 53.9849 44.7584 57.5847 51.321 64.4111 65.4556 70.6904 80.8211 76.3534 97.2617 81.3323 114.624 85.559 132.755 88.9653 151.5 91.483 170.707 93.0438 190.222 93.579 209.883 94.114 229.534 94.113 229.517 95.6724 249.015 95.6707 248.998 98.1862 268.189 98.1836 268.172 101.587 286.902 101.584 286.886 105.807 305 105.802 304.984 110.776 322.33 110.771 322.313 116.428 338.737 116.422 338.719 122.693 354.066 122.685 354.047 129.503 368.165 129.495 368.15 133.088 374.699 133.082 374.688 136.785 380.873 136.778 380.861 140.584 386.661 140.575 386.649 144.475 392.045 144.465 392.032 148.451 397.006 148.439 396.992 152.501 401.524 152.486 401.509 156.617 405.579 156.6 405.564 160.79 409.154 160.769 409.137 165.011 412.228 164.986 412.212 169.27 414.783 169.241 414.768 173.559 416.801 173.524 416.787 177.868 418.264 177.813 418.25 179.933 418.588 179.829 419.247 177.68 418.904 173.292 417.412 168.941 415.364 164.63 412.776 160.366 409.669 156.157 406.062 152.011 401.976 147.936 397.43 143.94 392.442 140.031 387.033 136.217 381.221 132.506 375.025 128.907 368.463 122.08 354.328 115.801 338.963 110.138 322.522 105.159 305.16 100.933 287.029 97.5262 268.284 95.0086 249.077 93.4478 229.561 92.9126 209.901 92.3776 190.249 92.3786 190.267 90.8191 170.769 90.8209 170.786 88.3054 151.595 88.3079 151.611 84.9045 132.882 84.9079 132.898 80.6849 114.783 80.6891 114.8 75.715 97.4538 75.7202 97.4705 70.0631 81.0471 70.0697 81.0646 63.7979 65.7173 63.8063 65.7362 56.9882 51.6187 56.9961 51.634 53.4035 45.0845 53.4097 45.0955 49.7062 38.9111 49.7134 38.9227 45.9074 33.1226 45.9159 33.135 42.016 27.7384 42.026 27.7516 38.0407 22.7778 38.0526 22.7919 33.9905 18.2601 34.0047 18.275 29.8743 14.2044 29.8914 14.2201 25.7012 10.6299 25.7217 10.6461 21.4803 7.55553 21.5051 7.57192 17.221 5.00016 17.2505 5.01593 12.9323 2.98222 12.967 2.99626 8.62314 1.51981 8.66304 1.53067 4.3021 0.63071 4.34632 0.636784-0.0231547 0.332528ZM179.079 414.778 186.491 419.784 178.039 422.71Z" fill="#4472C4" transform="matrix(-1.83697e-16 -1 -1 1.83697e-16 577.284 373.991)"/><path d="M0.0135372-0.333058 5.18267-0.122958 10.3542 0.500003 15.5042 1.52175 20.6277 2.93021 30.7227 6.84384 40.5753 12.1389 50.1001 18.706 59.2174 26.4385 67.8474 35.2302 75.9103 44.9752 83.326 55.5676 90.0144 66.9017 95.8952 78.8719 100.888 91.3726 104.912 104.298 107.886 117.543 109.73 131.002 110.362 144.554 110.798 158.092 110.797 158.072 112.068 171.501 112.066 171.482 114.117 184.7 114.114 184.681 116.889 197.581 116.884 197.562 120.327 210.039 120.322 210.021 124.377 221.968 124.37 221.949 128.983 233.261 128.974 233.242 134.088 243.813 134.077 243.792 139.637 253.516 139.623 253.494 145.572 262.265 145.555 262.242 151.838 269.954 151.815 269.928 158.377 276.475 158.346 276.448 165.13 281.725 165.089 281.697 172.04 285.597 172 285.578 175.521 286.979 175.475 286.965 179.527 287.926 179.373 288.574 175.297 287.608 171.733 286.19 164.74 282.267 157.92 276.962 151.332 270.388 145.029 262.652 139.064 253.858 133.493 244.113 128.37 233.523 123.749 222.192 119.687 210.226 116.239 197.73 113.46 184.811 111.406 171.574 110.132 158.124 109.696 144.578 109.696 144.583 109.065 131.048 109.067 131.077 107.227 117.648 107.232 117.675 104.264 104.457 104.271 104.483 100.255 91.5832 100.264 91.6078 95.2808 79.1311 95.2912 79.1544 89.4217 67.2071 89.4338 67.2296 82.7585 55.9176 82.7725 55.9393 75.3719 45.3685 75.3881 45.3899 67.3428 35.6661 67.3617 35.6872 58.7523 26.9164 58.7745 26.9371 49.6816 19.2252 49.708 19.2454 40.2121 12.6982 40.2435 12.7174 30.4252 7.44082 30.4625 7.458 20.4025 3.55792 20.4346 3.56853 15.3391 2.16777 15.3626 2.17332 10.2369 1.15639 10.2619 1.16037 5.11606 0.540504 5.14239 0.542621-0.0135372 0.333058ZM178.66 284.108 186.058 289.135 177.598 292.038Z" fill="#4472C4" transform="matrix(-1.83697e-16 -1 -1 1.83697e-16 577.635 373.558)"/><text font-family="Calibri,Calibri_MSFontService,sans-serif" font-weight="400" font-size="24" transform="translate(169.423 187)">Scoreboards</text><text font-family="Calibri,Calibri_MSFontService,sans-serif" font-weight="400" font-size="24" transform="translate(302.481 315)">Referee</text><text font-family="Calibri,Calibri_MSFontService,sans-serif" font-weight="400" font-size="24" transform="translate(302.481 344)">Phone/Tablet</text><text font-family="Calibri,Calibri_MSFontService,sans-serif" font-weight="400" font-size="24" transform="translate(99.0323 527)">Marshal</text><text font-family="Calibri,Calibri_MSFontService,sans-serif" font-weight="400" font-size="24" transform="translate(246.428 582)">Announcer</text><text font-family="Calibri,Calibri_MSFontService,sans-serif" font-weight="400" font-size="24" transform="translate(538.755 482)">owlcms</text><path d="M6.67446-0.0842677 8.73816-0.00718642 17.407 0.944071 25.9384 2.47844 34.2645 4.55427 42.3173 7.13 50.029 10.1642 57.3318 13.6155 64.1578 17.4428 70.4392 21.6051 76.108 26.0615 81.0961 30.7718 85.3353 35.6959 88.7563 40.7939 91.2892 46.0262 92.8622 51.3522 93.3993 56.6946 93.9332 62.0059 93.9212 61.9448 95.4777 67.2146 95.458 67.1638 97.9688 72.3505 97.9455 72.31 101.342 77.372 101.318 77.3403 105.533 82.2361 105.509 82.2112 110.474 86.8993 110.451 86.8796 116.097 91.3184 116.076 91.3026 122.335 95.4505 122.314 95.4377 129.119 99.2532 129.099 99.2426 136.381 102.684 136.361 102.675 144.052 105.702 144.031 105.694 152.063 108.263 152.043 108.257 160.347 110.328 160.326 110.323 168.835 111.854 168.812 111.85 177.458 112.799 177.434 112.797 179.486 112.874 179.461 113.54 177.397 113.463 168.728 112.512 160.197 110.977 151.871 108.902 143.818 106.326 136.106 103.292 128.803 99.8404 121.977 96.0131 115.696 91.8509 110.027 87.3944 105.039 82.6841 100.8 77.7601 97.3789 72.662 94.8461 67.4297 93.273 62.1037 92.7359 56.7613 92.202 51.45 92.214 51.511 90.6575 46.2413 90.6772 46.2921 88.1665 41.1054 88.1897 41.1459 84.7928 36.0839 84.817 36.1157 80.6021 31.2198 80.6259 31.2447 75.6612 26.5566 75.6841 26.5763 70.0378 22.1375 70.0597 22.1533 63.7999 18.0054 63.821 18.0183 57.0159 14.2027 57.0364 14.2133 49.7542 10.7717 49.7746 10.7805 42.0833 7.75436 42.1038 7.76166 34.0717 5.19256 34.0926 5.1985 25.7879 3.12798 25.8095 3.13262 17.3003 1.60224 17.3229 1.60551 8.67737 0.656811 8.70129 0.658568 6.64958 0.581934ZM7.84513 4.29581 0 0 8.14373-3.69861ZM178.29 109.16 186.135 113.456 177.991 117.154Z" fill="#4472C4" transform="matrix(1 0 0 -1 343.5 534.956)"/><g><g><g><path d="M574 445 580 445 580 453 574 453Z"/><path d="M574 457 580 457 580 463 574 463Z"/><path d="M584 457 613 457 613 463 584 463Z"/><path d="M541 457 570 457 570 463 541 463Z"/><path d="M605.42 429 548.58 429C546.603 429 545 430.603 545 432.58L545 441.42C545 443.397 546.603 445 548.58 445L605.42 445C607.397 445 609 443.397 609 441.42L609 432.58C609 430.603 607.397 429 605.42 429ZM555 439C553.895 439 553 438.105 553 437 553 435.895 553.895 435 555 435 556.105 435 557 435.895 557 437 557 438.105 556.105 439 555 439ZM565 439C563.895 439 563 438.105 563 437 563 435.895 563.895 435 565 435 566.105 435 567 435.895 567 437 567 438.105 566.105 439 565 439ZM575 439C573.895 439 573 438.105 573 437 573 435.895 573.895 435 575 435 576.105 435 577 435.895 577 437 577 438.105 576.105 439 575 439Z"/><path d="M605.42 409 548.58 409C546.603 409 545 410.603 545 412.58L545 421.42C545 423.397 546.603 425 548.58 425L605.42 425C607.397 425 609 423.397 609 421.42L609 412.58C609 410.603 607.397 409 605.42 409ZM555 419C553.895 419 553 418.105 553 417 553 415.895 553.895 415 555 415 556.105 415 557 415.895 557 417 557 418.105 556.105 419 555 419ZM565 419C563.895 419 563 418.105 563 417 563 415.895 563.895 415 565 415 566.105 415 567 415.895 567 417 567 418.105 566.105 419 565 419ZM575 419C573.895 419 573 418.105 573 417 573 415.895 573.895 415 575 415 576.105 415 577 415.895 577 417 577 418.105 576.105 419 575 419Z"/><path d="M605.42 389 548.58 389C546.603 389 545 390.603 545 392.58L545 401.42C545 403.397 546.603 405 548.58 405L605.42 405C607.397 405 609 403.397 609 401.42L609 392.58C609 390.603 607.397 389 605.42 389ZM555 399C553.895 399 553 398.105 553 397 553 395.895 553.895 395 555 395 556.105 395 557 395.895 557 397 557 398.105 556.105 399 555 399ZM565 399C563.895 399 563 398.105 563 397 563 395.895 563.895 395 565 395 566.105 395 567 395.895 567 397 567 398.105 566.105 399 565 399ZM575 399C573.895 399 573 398.105 573 397 573 395.895 573.895 395 575 395 576.105 395 577 395.895 577 397 577 398.105 576.105 399 575 399Z"/></g></g></g><g><g><g><path d="M329 548 273 548 273 514 329 514 329 548ZM335 512C335 509.8 333.2 508 331 508L271 508C268.8 508 267 509.8 267 512L267 554 335 554 335 512Z"/><path d="M307 558 307 559C307 559.6 306.6 560 306 560L296 560C295.4 560 295 559.6 295 559L295 558 255 558 255 560C255 562.2 256.8 564 259 564L343 564C345.2 564 347 562.2 347 560L347 558 307 558Z"/></g></g></g><g><g><g><path d="M194 152.994 194 117 136 117 136 153.01ZM138 119 192 119 192 150.993 138 151.01Z"/><path d="M133 116C133 114.895 133.895 114 135 114L195 114C196.105 114 197 114.895 197 116L197 157.013 199 157.013 199 116C199 113.791 197.209 112 195 112L135 112C132.791 112 131 113.791 131 116L131 157.013 133 157.013Z"/><path d="M170 159.994 170 161.994 160 161.994 160 159.994 119 159.994 119 161.994C119.003 164.754 121.24 166.991 124 166.994L206 166.994C208.76 166.991 210.997 164.754 211 161.994L211 159.994ZM206 164.994 124 164.994C122.343 164.994 121 163.651 121 161.994L158 161.994C157.964 163.062 158.8 163.957 159.868 163.994 159.912 163.995 159.956 163.995 160 163.994L170 163.994C171.068 164.031 171.964 163.194 172 162.126 172.001 162.082 172.001 162.038 172 161.994L209 161.994C209 163.651 207.657 164.994 206 164.994Z"/></g></g></g><g><g><g><path d="M329 153.994 329 118 271 118 271 154.01ZM273 120 327 120 327 151.993 273 152.01Z"/><path d="M268 117C268 115.895 268.895 115 270 115L330 115C331.105 115 332 115.895 332 117L332 158.013 334 158.013 334 117C334 114.791 332.209 113 330 113L270 113C267.791 113 266 114.791 266 117L266 158.013 268 158.013Z"/><path d="M305 160.994 305 162.994 295 162.994 295 160.994 254 160.994 254 162.994C254.003 165.754 256.24 167.991 259 167.994L341 167.994C343.76 167.991 345.997 165.754 346 162.994L346 160.994ZM341 165.994 259 165.994C257.343 165.994 256 164.651 256 162.994L293 162.994C292.964 164.062 293.8 164.957 294.868 164.994 294.912 164.995 294.956 164.995 295 164.994L305 164.994C306.068 165.031 306.964 164.194 307 163.126 307.001 163.082 307.001 163.038 307 162.994L344 162.994C344 164.651 342.657 165.994 341 165.994Z"/></g></g></g><path d="M510.029 501.23C512.679 501.416 520.411 501.5 520.411 501.5L662.058 501.5C679.492 501.411 693.569 483.137 693.5 460.684 693.432 438.488 679.553 420.465 662.32 420.193L659.699 420.193C659.674 403.835 653.526 388.496 643.186 378.997 632.71 369.557 619.351 367.171 607.276 372.583 595.419 342.727 567.014 330.903 543.832 346.173 528.146 356.506 518.242 377.242 518.155 399.933L518.155 400.608C516.099 400.175 514.019 399.957 511.935 399.956 490.181 399.923 472.525 422.609 472.5 450.626 472.493 458.079 473.762 465.442 476.215 472.192 482.583 489.031 495.511 500.134 510.029 501.23ZM484.598 424.252C491.138 413.313 501.214 406.845 511.933 406.706 513.733 406.708 515.53 406.897 517.307 407.27L523.396 408.553 523.396 399.932C523.538 370.122 542.417 346.105 565.563 346.288 581.201 346.412 595.485 357.738 602.611 375.666L604.693 380.888 608.997 378.959C626.684 370.815 646.148 382.679 652.471 405.457 653.784 410.186 654.455 415.171 654.457 420.193L654.457 426.944 662.32 426.944C676.857 427.219 688.469 442.62 688.255 461.343 688.044 479.809 676.397 494.661 662.058 494.749L514.984 494.749 510.313 494.489C491.523 493.445 476.947 472.981 477.758 448.782 478.055 439.901 480.44 431.347 484.597 424.252Z" stroke="#4472C4" stroke-width="0.666667" stroke-miterlimit="8" fill="none" fill-rule="evenodd"/><rect x="28.5001" y="53.5001" width="431" height="576" stroke="#2F528F" stroke-width="1.33333" stroke-miterlimit="8" fill="none"/><text font-family="Calibri,Calibri_MSFontService,sans-serif" font-style="italic" font-weight="400" font-size="24" transform="translate(30.0607 46)">Competition Site</text></g></svg>