<svg width="1280" height="720" xmlns="http://www.w3.org/2000/svg" xmlns:xlink="http://www.w3.org/1999/xlink" overflow="hidden"><g><rect x="0" y="0" width="1280" height="720" fill="#FFFFFF"/><g><g><g><path d="M83 302 82 302 82 336.011 102 336.011 102 302 83 302ZM101 335.011 83 335.011 83 303 101 303Z"/><path d="M103.5 297 80.5 297C79.9484 297.002 79.5016 297.448 79.5 298L79.5 340.013C79.5019 340.564 79.9485 341.011 80.5 341.013L103.5 341.013C104.051 341.01 104.498 340.564 104.5 340.013L104.5 298C104.498 297.449 104.051 297.002 103.5 297ZM103.5 340.013 80.5 340.013 80.5 298 103.5 298Z"/><path d="M90 300.5 94.5 300.5C94.7762 300.5 95 300.276 95 300 95 299.724 94.7762 299.5 94.5 299.5L90 299.5C89.7238 299.5 89.5 299.724 89.5 300 89.5 300.276 89.7238 300.5 90 300.5Z"/></g></g></g><g><g><g><path d="M137 302 136 302 136 336.011 156 336.011 156 302 137 302ZM155 335.011 137 335.011 137 303 155 303Z"/><path d="M157.5 297 134.5 297C133.948 297.002 133.502 297.448 133.5 298L133.5 340.013C133.502 340.564 133.949 341.011 134.5 341.013L157.5 341.013C158.051 341.01 158.498 340.564 158.5 340.013L158.5 298C158.498 297.449 158.051 297.002 157.5 297ZM157.5 340.013 134.5 340.013 134.5 298 157.5 298Z"/><path d="M144 300.5 148.5 300.5C148.776 300.5 149 300.276 149 300 149 299.724 148.776 299.5 148.5 299.5L144 299.5C143.724 299.5 143.5 299.724 143.5 300 143.5 300.276 143.724 300.5 144 300.5Z"/></g></g></g><g><g><g><path d="M183 302 182 302 182 336.011 202 336.011 202 302 183 302ZM201 335.011 183 335.011 183 303 201 303Z"/><path d="M203.5 297 180.5 297C179.948 297.002 179.502 297.448 179.5 298L179.5 340.013C179.502 340.564 179.949 341.011 180.5 341.013L203.5 341.013C204.051 341.01 204.498 340.564 204.5 340.013L204.5 298C204.498 297.449 204.051 297.002 203.5 297ZM203.5 340.013 180.5 340.013 180.5 298 203.5 298Z"/><path d="M190 300.5 194.5 300.5C194.776 300.5 195 300.276 195 300 195 299.724 194.776 299.5 194.5 299.5L190 299.5C189.724 299.5 189.5 299.724 189.5 300 189.5 300.276 189.724 300.5 190 300.5Z"/></g></g></g><path d="M337.123 522.095C341.404 522.374 353.894 522.5 353.894 522.5L582.709 522.5C610.871 522.367 633.612 494.956 633.5 461.276 633.39 427.982 610.97 400.947 583.132 400.539L578.898 400.539C578.859 376.002 568.927 352.995 552.224 338.746 535.301 324.586 513.721 321.007 494.215 329.125 475.062 284.341 429.177 266.605 391.729 289.51 366.389 305.009 350.391 336.112 350.251 370.15L350.251 371.162C346.929 370.512 343.569 370.185 340.202 370.184 305.061 370.135 276.541 404.164 276.5 446.189 276.489 457.368 278.538 468.413 282.502 478.538 292.787 503.797 313.671 520.45 337.123 522.095ZM296.043 406.628C306.607 390.219 322.885 380.517 340.2 380.31 343.107 380.313 346.01 380.595 348.88 381.155L358.716 383.079 358.716 370.148C358.946 325.432 389.443 289.407 426.833 289.682 452.094 289.868 475.168 306.857 486.68 333.749L490.042 341.581 496.996 338.689C525.566 326.473 557.008 344.268 567.223 378.436 569.343 385.529 570.428 393.006 570.43 400.539L570.43 410.666 583.132 410.666C606.615 411.079 625.373 434.181 625.027 462.265 624.687 489.964 605.872 512.241 582.709 512.373L345.129 512.373 337.583 511.983C307.23 510.418 283.684 479.722 284.993 443.423 285.473 430.102 289.326 417.271 296.042 406.628Z" stroke="#4472C4" stroke-width="0.666667" stroke-miterlimit="8" fill="none" fill-rule="evenodd"/><path d="M6.67367 0.132991 8.35063 0.250374 16.6326 1.95351 24.78 4.69955 32.7279 8.41307 40.4117 13.019 47.7672 18.4426 54.7299 24.6093 61.2353 31.4449 67.2188 38.8753 72.6158 46.8264 77.3613 55.2243 81.3904 63.9951 84.638 73.0648 87.0389 82.3595 88.5275 91.8051 88.6802 94.6522 88.0145 94.6879 87.8627 91.8579 87.8663 91.892 86.3828 82.4791 86.3894 82.5106 83.9963 73.2462 84.0053 73.2752 80.7676 64.2335 80.7786 64.2602 76.7613 55.5153 76.774 55.5402 72.0421 47.1663 72.0565 47.1895 66.6749 39.261 66.6911 39.2828 60.7247 31.8738 60.7429 31.8945 54.2568 25.0792 54.2773 25.0989 47.3364 18.9515 47.3596 18.9703 40.0289 13.565 40.0554 13.5826 32.3998 8.9937 32.4301 9.0098 24.5147 5.31145 24.5493 5.32533 16.439 2.59178 16.4783 2.6024 8.23808 0.907846 8.28195 0.913864 6.62712 0.79803ZM7.70117 4.54885 0 0 8.25978-3.43162ZM92.2702 93.1244 88.7045 101.327 84.2817 93.5529Z" fill="#4472C4" transform="matrix(1.83697e-16 1 1 -1.83697e-16 192.5 343.5)"/><path d="M6.67047 0.328681 8.36428 0.515573 12.5329 1.55997 16.6678 2.9954 20.7675 4.80947 24.8287 6.99083 32.775 12.3837 40.4586 19.0736 47.8113 26.9485 54.7697 35.9002 61.2699 45.8212 67.2478 56.6038 72.6389 68.1406 77.3787 80.3241 81.4025 93.0468 84.6453 106.201 87.0422 119.68 88.5282 133.375 88.7915 140.505 88.1253 140.53 87.8624 133.412 87.8641 133.435 86.3807 119.763 86.3839 119.785 83.9909 106.329 83.9954 106.35 80.7578 93.2168 80.7636 93.2375 76.7463 80.5354 76.7535 80.5557 72.0216 68.3926 72.0303 68.4128 66.6487 56.8965 66.6591 56.917 60.6928 46.1552 60.7055 46.1763 54.2194 36.2769 54.2351 36.2987 47.2942 27.3695 47.3138 27.3924 39.9831 19.5412 40.0078 19.5651 32.3523 12.8996 32.384 12.924 24.4686 7.55214 24.4981 7.56998 20.4632 5.4028 20.4861 5.41397 16.4106 3.61061 16.4362 3.62069 12.3282 2.19462 12.3565 2.20306 8.22422 1.16775 8.26867 1.17574 6.59736 0.991326ZM7.5647 4.77235 0 0 8.3567-3.18834ZM92.4065 139.037 88.7045 147.179 84.4119 139.333Z" fill="#4472C4" transform="matrix(1.83697e-16 1 1 -1.83697e-16 146.5 343.5)"/><path d="M6.65614 0.566842 8.38486 0.829189 12.5634 2.2602 16.7036 4.22484 20.8062 6.70633 24.8636 9.68531 28.8685 13.1428 32.8134 17.06 36.6906 21.4183 40.4927 26.1994 44.2119 31.3849 47.8422 36.959 54.7938 49.1835 61.2893 62.7351 67.263 77.4638 72.6505 93.2229 77.387 109.865 81.408 127.244 84.6485 145.213 87.0437 163.623 88.5285 182.329 88.8576 194.51 88.1912 194.528 87.8623 182.356 87.8632 182.374 86.3798 163.685 86.3815 163.701 83.9885 145.307 83.991 145.323 80.7534 127.371 80.7567 127.387 76.7394 110.024 76.7436 110.04 72.0116 93.4137 72.0168 93.4303 66.6352 77.6883 66.6417 77.7057 60.6754 62.9952 60.6837 63.014 54.1976 49.4822 54.2085 49.5029 47.2676 37.2973 47.278 37.3144 43.6574 31.755 43.6658 31.7674 39.9558 26.5947 39.9658 26.6079 36.1746 21.8405 36.1864 21.8546 32.3221 17.5108 32.3363 17.5258 28.407 13.624 28.4241 13.6398 24.4379 10.1985 24.4585 10.2149 20.4236 7.25253 20.4484 7.26906 16.3729 4.80399 16.4026 4.81992 12.2946 2.87059 12.3295 2.88479 8.19722 1.4696 8.2552 1.48381 6.55611 1.22596ZM7.38951 5.03936 0 0 8.46519-2.88799ZM92.4869 193.079 88.7045 201.184 84.4898 193.295Z" fill="#4472C4" transform="matrix(1.83697e-16 1 1 -1.83697e-16 92.5 343.5)"/><path d="M6.67499-0.00253117 9.94412 0.159682 19.5754 1.55409 28.5843 3.72131 36.6571 6.53274 40.2547 8.14431 43.5003 9.86919 46.36 11.6947 48.7956 13.6073 50.7685 15.5948 52.2381 17.6471 53.1586 19.754 53.47 21.848 53.7748 23.8981 53.7506 23.8137 54.6393 25.8479 54.6049 25.7872 56.0384 27.7893 56.004 27.7485 57.9436 29.7025 57.9129 29.6751 60.3195 31.5649 60.293 31.5461 63.1277 33.3557 63.1048 33.3424 66.3288 35.0557 66.3086 35.0459 69.8829 36.647 69.8562 36.6364 77.8999 39.4377 77.8682 39.4284 86.846 41.5882 86.8158 41.5823 96.4164 42.9723 96.3851 42.9693 99.6386 43.1307 99.6055 43.7966 96.3364 43.6343 86.7051 42.2399 77.6962 40.0727 69.6234 37.2613 66.0258 35.6497 62.7802 33.9248 59.9205 32.0993 57.4849 30.1868 55.512 28.1992 54.0424 26.1469 53.122 24.04 52.8106 21.946 52.5057 19.8959 52.5299 19.9803 51.6412 17.9461 51.6757 18.0068 50.2421 16.0047 50.2765 16.0455 48.3369 14.0915 48.3677 14.1189 45.961 12.2291 45.9875 12.2479 43.1528 10.4383 43.1757 10.4516 39.9518 8.73827 39.9719 8.74813 36.3977 7.14702 36.4243 7.1576 28.3806 4.35633 28.4123 4.36562 19.4345 2.20586 19.4647 2.21167 9.86414 0.821721 9.89538 0.824751 6.64195 0.663316ZM7.79193 4.39156 0 0 8.1884-3.59861ZM98.4886 39.4025 106.281 43.794 98.0921 47.3926Z" fill="#4472C4" transform="matrix(1 0 0 -1 187.5 476.294)"/><path d="M0.00558768-0.333286 12.8744-0.117535 25.6479 0.511614 38.2198 1.52651 50.4897 2.89963 62.3573 4.60347 73.7223 6.61058 84.4843 8.89355 94.5431 11.4251 103.799 14.178 112.152 17.1254 119.502 20.2411 125.752 23.4997 130.804 26.8787 134.551 30.3528 135.914 32.1359 136.907 33.9351 137.517 35.7552 137.72 37.5533 138.083 41.0744 138.07 41.0121 139.126 44.5039 139.106 44.4524 140.809 47.8892 140.785 47.8485 143.089 51.2027 143.064 51.171 145.923 54.4151 145.899 54.3905 149.266 57.4969 149.243 57.4775 153.073 60.4188 153.051 60.4033 157.297 63.1518 157.266 63.1339 166.821 67.9427 166.781 67.9256 177.445 71.6331 177.415 71.6241 183.048 72.9961 183.027 72.9916 188.798 74.0057 188.772 74.0021 193.889 74.4811 193.827 75.1448 188.696 74.6646 182.901 73.6463 177.242 72.268 166.541 68.5481 156.95 63.7213 152.678 60.9557 148.825 57.9971 145.434 54.8688 142.551 51.5967 140.222 48.2064 138.496 44.7235 137.423 41.1744 137.057 37.6233 137.058 37.6266 136.859 35.8652 136.874 35.9336 136.285 34.1756 136.309 34.2308 135.342 32.4797 135.37 32.5211 134.038 30.7804 134.076 30.8223 130.37 27.3855 130.411 27.4181 125.397 24.0639 125.428 24.0824 119.206 20.8384 119.23 20.8497 111.901 17.7433 111.92 17.7507 103.585 14.8095 103.601 14.8146 94.3599 12.0661 94.3736 12.0699 84.3276 9.54158 84.3398 9.54441 73.5895 7.26391 73.6007 7.26609 62.2467 5.26091 62.2573 5.26261 50.4001 3.56027 50.4104 3.56158 38.1507 2.18961 38.161 2.1906 25.5994 1.17654 25.6098 1.17722 12.847 0.54859 12.8578 0.548947-0.00558768 0.333286ZM192.746 70.7459 200.515 75.1783 192.308 78.7339Z" fill="#4472C4" transform="matrix(-1.83697e-16 -1 -1 1.83697e-16 303.678 391.015)"/><path d="M0.015834-0.332957 11.9078 0.232573 23.7209 1.88302 35.3463 4.54509 46.6912 8.14638 57.6631 12.6146 68.1693 17.8777 78.1172 23.8636 87.4141 30.5005 95.9672 37.7166 103.684 45.4404 110.471 53.6004 116.235 62.1254 120.883 70.9441 124.32 79.985 126.453 89.1764 127.183 98.4234 127.63 107.646 127.627 107.615 128.931 116.76 128.925 116.731 131.028 125.732 131.021 125.705 133.866 134.489 133.856 134.464 137.386 142.96 137.375 142.936 141.533 151.072 141.52 151.049 146.249 158.752 146.235 158.73 151.477 165.929 151.46 165.908 157.16 172.529 157.14 172.508 163.239 178.481 163.217 178.461 169.658 183.712 169.632 183.693 176.359 188.151 176.328 188.133 183.283 191.726 183.246 191.71 190.373 194.365 190.323 194.351 198.222 195.965 198.089 196.618 190.164 194.999 182.995 192.327 176.006 188.717 169.25 184.239 162.784 178.968 156.664 172.975 150.946 166.332 145.688 159.112 140.945 151.387 136.776 143.228 133.235 134.708 130.382 125.897 128.273 116.868 126.965 107.693 126.517 98.4607 126.518 98.4708 125.79 89.2537 125.798 89.3028 123.676 80.1577 123.689 80.2008 120.267 71.2 120.284 71.2369 115.654 62.4524 115.673 62.4837 109.928 53.9876 109.948 54.014 103.181 45.8784 103.201 45.9008 95.5056 38.1978 95.5265 38.217 86.9945 31.0187 87.0157 31.0352 77.7404 24.4138 77.7623 24.4281 67.8366 18.4556 67.8592 18.468 57.3761 13.2165 57.3997 13.2272 46.4521 8.7688 46.4769 8.77779 35.1577 5.18466 35.1841 5.19187 23.5861 2.53608 23.6144 2.54128 11.8306 0.894934 11.8609 0.897764-0.015834 0.332957ZM197.186 192.188 204.795 196.889 196.469 200.156Z" fill="#4472C4" transform="matrix(-1.83697e-16 -1 -1 1.83697e-16 305.389 395.295)"/><path d="M388 429.167 473.134 429.167 473.134 434.833 388 434.833ZM470.301 423.5 487.301 432 470.301 440.5Z" fill="#4472C4"/><text font-family="Calibri,Calibri_MSFontService,sans-serif" font-weight="400" font-size="24" transform="translate(464.805 492)">publicresults</text><path d="M528.167 387.907 528.189 374.812 528.253 362.127 528.351 350.266 528.412 344.772 528.479 339.638 528.552 334.915 528.63 330.655 528.713 326.908 528.799 323.727 528.888 321.161 528.98 319.26 529.075 318.056 529.174 317.628 529.267 317.226 529.26 317.275 529.352 316.101 529.352 316.111 529.443 314.217 529.443 314.221 529.532 311.659 529.532 311.662 529.618 308.482 529.618 308.484 529.7 304.739 529.7 304.74 529.779 300.481 529.852 295.76 529.919 290.627 529.979 285.135 530.078 273.275 530.078 273.276 530.141 260.593 530.141 260.594 530.152 254.166 530.819 254.167 530.808 260.596 530.744 273.28 530.646 285.142 530.585 290.636 530.518 295.77 530.445 300.493 530.367 304.753 530.284 308.499 530.198 311.681 530.109 314.247 530.017 316.148 529.922 317.352 529.823 317.779 529.73 318.182 529.737 318.133 529.645 319.307 529.645 319.297 529.554 321.191 529.554 321.186 529.465 323.749 529.465 323.746 529.379 326.925 529.379 326.924 529.297 330.669 529.297 330.667 529.218 334.926 529.145 339.647 529.078 344.78 529.018 350.272 528.919 362.132 528.919 362.131 528.856 374.815 528.856 374.814 528.833 387.908ZM526.483 255.493 530.497 247.5 534.483 255.507Z" fill="#4472C4"/><g><g><g><path d="M519 145 518 145 518 179.011 538 179.011 538 145 519 145ZM537 178.011 519 178.011 519 146 537 146Z"/><path d="M539.5 140 516.5 140C515.948 140.002 515.502 140.448 515.5 141L515.5 183.012C515.502 183.564 515.948 184.011 516.5 184.012L539.5 184.012C540.051 184.01 540.498 183.564 540.5 183.012L540.5 141C540.498 140.449 540.052 140.002 539.5 140ZM539.5 183.012 516.5 183.012 516.5 141 539.5 141Z"/><path d="M526 143.5 530.5 143.5C530.776 143.5 531 143.276 531 143 531 142.724 530.776 142.5 530.5 142.5L526 142.5C525.724 142.5 525.5 142.724 525.5 143 525.5 143.276 525.724 143.5 526 143.5Z"/></g></g></g><text font-family="Calibri,Calibri_MSFontService,sans-serif" font-weight="400" font-size="14" transform="translate(504.18 204)">Internet</text><text font-family="Calibri,Calibri_MSFontService,sans-serif" font-weight="400" font-size="14" transform="translate(550.514 204)">-</text><text font-family="Calibri,Calibri_MSFontService,sans-serif" font-weight="400" font-size="14" transform="translate(504.014 221)">accessed</text><text font-family="Calibri,Calibri_MSFontService,sans-serif" font-weight="400" font-size="14" transform="translate(496.927 238)">Scoreboard</text><g><g><g><path d="M566 461 538 461 538 457 531 457 531 448 558 448C560.209 448 562 446.209 562 444L562 434C561.996 432.847 561.492 431.752 560.618 431 561.492 430.248 561.996 429.153 562 428L562 418C561.996 416.847 561.492 415.752 560.618 415 561.492 414.248 561.996 413.153 562 412L562 402C562 399.791 560.209 398 558 398L502 398C499.791 398 498 399.791 498 402L498 412C498.004 413.153 498.508 414.248 499.382 415 498.508 415.752 498.004 416.847 498 418L498 428C498.004 429.153 498.508 430.248 499.382 431 498.508 431.752 498.004 432.847 498 434L498 444C498 446.209 499.791 448 502 448L529 448 529 457 522 457 522 461 494 461 494 463 522 463 522 467 538 467 538 463 566 463ZM500 412 500 402C500 400.895 500.895 400 502 400L558 400C559.105 400 560 400.895 560 402L560 412C560 413.105 559.105 414 558 414L502 414C500.895 414 500 413.105 500 412ZM500 428 500 418C500 416.895 500.895 416 502 416L558 416C559.105 416 560 416.895 560 418L560 428C560 429.105 559.105 430 558 430L502 430C500.895 430 500 429.105 500 428ZM500 444 500 434C500 432.895 500.895 432 502 432L558 432C559.105 432 560 432.895 560 434L560 444C560 445.105 559.105 446 558 446L502 446C500.895 446 500 445.105 500 444ZM536 465 524 465 524 459 536 459Z"/><path d="M510 407C510 408.105 509.105 409 508 409 506.895 409 506 408.105 506 407 506 405.895 506.895 405 508 405 509.105 405 510 405.895 510 407Z"/><path d="M520 407C520 408.105 519.105 409 518 409 516.895 409 516 408.105 516 407 516 405.895 516.895 405 518 405 519.105 405 520 405.895 520 407Z"/><path d="M530 407C530 408.105 529.105 409 528 409 526.895 409 526 408.105 526 407 526 405.895 526.895 405 528 405 529.105 405 530 405.895 530 407Z"/><path d="M510 423C510 424.105 509.105 425 508 425 506.895 425 506 424.105 506 423 506 421.895 506.895 421 508 421 509.105 421 510 421.895 510 423Z"/><path d="M520 423C520 424.105 519.105 425 518 425 516.895 425 516 424.105 516 423 516 421.895 516.895 421 518 421 519.105 421 520 421.895 520 423Z"/><path d="M530 423C530 424.105 529.105 425 528 425 526.895 425 526 424.105 526 423 526 421.895 526.895 421 528 421 529.105 421 530 421.895 530 423Z"/><path d="M510 439C510 440.105 509.105 441 508 441 506.895 441 506 440.105 506 439 506 437.895 506.895 437 508 437 509.105 437 510 437.895 510 439Z"/><path d="M520 439C520 440.105 519.105 441 518 441 516.895 441 516 440.105 516 439 516 437.895 516.895 437 518 437 519.105 437 520 437.895 520 439Z"/><path d="M530 439C530 440.105 529.105 441 528 441 526.895 441 526 440.105 526 439 526 437.895 526.895 437 528 437 529.105 437 530 437.895 530 439Z"/></g></g></g><rect x="31.5001" y="53.5001" width="233" height="576" stroke="#2F528F" stroke-width="1.33333" stroke-miterlimit="8" fill="none"/><text font-family="Calibri,Calibri_MSFontService,sans-serif" font-weight="400" font-size="24" transform="translate(94.5361 285)">Referees</text><text font-family="Calibri,Calibri_MSFontService,sans-serif" font-weight="400" font-size="24" transform="translate(302.674 489)">owlcms</text><g><g><g><path d="M344 452 350 452 350 460 344 460Z"/><path d="M344 464 350 464 350 470 344 470Z"/><path d="M354 464 383 464 383 470 354 470Z"/><path d="M311 464 340 464 340 470 311 470Z"/><path d="M375.42 436 318.58 436C316.603 436 315 437.603 315 439.58L315 448.42C315 450.397 316.603 452 318.58 452L375.42 452C377.397 452 379 450.397 379 448.42L379 439.58C379 437.603 377.397 436 375.42 436ZM325 446C323.895 446 323 445.105 323 444 323 442.895 323.895 442 325 442 326.105 442 327 442.895 327 444 327 445.105 326.105 446 325 446ZM335 446C333.895 446 333 445.105 333 444 333 442.895 333.895 442 335 442 336.105 442 337 442.895 337 444 337 445.105 336.105 446 335 446ZM345 446C343.895 446 343 445.105 343 444 343 442.895 343.895 442 345 442 346.105 442 347 442.895 347 444 347 445.105 346.105 446 345 446Z"/><path d="M375.42 416 318.58 416C316.603 416 315 417.603 315 419.58L315 428.42C315 430.397 316.603 432 318.58 432L375.42 432C377.397 432 379 430.397 379 428.42L379 419.58C379 417.603 377.397 416 375.42 416ZM325 426C323.895 426 323 425.105 323 424 323 422.895 323.895 422 325 422 326.105 422 327 422.895 327 424 327 425.105 326.105 426 325 426ZM335 426C333.895 426 333 425.105 333 424 333 422.895 333.895 422 335 422 336.105 422 337 422.895 337 424 337 425.105 336.105 426 335 426ZM345 426C343.895 426 343 425.105 343 424 343 422.895 343.895 422 345 422 346.105 422 347 422.895 347 424 347 425.105 346.105 426 345 426Z"/><path d="M375.42 396 318.58 396C316.603 396 315 397.603 315 399.58L315 408.42C315 410.397 316.603 412 318.58 412L375.42 412C377.397 412 379 410.397 379 408.42L379 399.58C379 397.603 377.397 396 375.42 396ZM325 406C323.895 406 323 405.105 323 404 323 402.895 323.895 402 325 402 326.105 402 327 402.895 327 404 327 405.105 326.105 406 325 406ZM335 406C333.895 406 333 405.105 333 404 333 402.895 333.895 402 335 402 336.105 402 337 402.895 337 404 337 405.105 336.105 406 335 406ZM345 406C343.895 406 343 405.105 343 404 343 402.895 343.895 402 345 402 346.105 402 347 402.895 347 404 347 405.105 346.105 406 345 406Z"/></g></g></g><text font-family="Calibri,Calibri_MSFontService,sans-serif" font-weight="400" font-size="24" transform="translate(110.732 563)">Announcer</text><g><g><g><path d="M190 528 134 528 134 494 190 494 190 528ZM196 492C196 489.8 194.2 488 192 488L132 488C129.8 488 128 489.8 128 492L128 534 196 534 196 492Z"/><path d="M168 538 168 539C168 539.6 167.6 540 167 540L157 540C156.4 540 156 539.6 156 539L156 538 116 538 116 540C116 542.2 117.8 544 120 544L204 544C206.2 544 208 542.2 208 540L208 538 168 538Z"/></g></g></g><text font-family="Calibri,Calibri_MSFontService,sans-serif" font-style="italic" font-weight="400" font-size="24" transform="translate(39.5735 617)">Competition Site</text><g><g><g><path d="M121 158.994 121 123 63 123 63 159.01ZM65 125 119 125 119 156.993 65 157.01Z"/><path d="M60 122C60 120.895 60.8954 120 62 120L122 120C123.105 120 124 120.895 124 122L124 163.013 126 163.013 126 122C126 119.791 124.209 118 122 118L62 118C59.7909 118 58 119.791 58 122L58 163.013 60 163.013Z"/><path d="M97 165.994 97 167.994 87 167.994 87 165.994 46 165.994 46 167.994C46.0033 170.754 48.24 172.991 51 172.994L133 172.994C135.76 172.991 137.997 170.754 138 167.994L138 165.994ZM133 170.994 51 170.994C49.3432 170.994 48 169.651 48 167.994L85 167.994C84.9635 169.062 85.7997 169.957 86.8677 169.994 86.9118 169.995 86.9559 169.995 87 169.994L97 169.994C98.068 170.031 98.9635 169.194 99 168.126 99.0015 168.082 99.0015 168.038 99 167.994L136 167.994C136 169.651 134.657 170.994 133 170.994Z"/></g></g></g><g><g><g><path d="M242 158.994 242 123 184 123 184 159.01ZM186 125 240 125 240 156.993 186 157.01Z"/><path d="M181 122C181 120.895 181.895 120 183 120L243 120C244.105 120 245 120.895 245 122L245 163.013 247 163.013 247 122C247 119.791 245.209 118 243 118L183 118C180.791 118 179 119.791 179 122L179 163.013 181 163.013Z"/><path d="M218 165.994 218 167.994 208 167.994 208 165.994 167 165.994 167 167.994C167.003 170.754 169.24 172.991 172 172.994L254 172.994C256.76 172.991 258.997 170.754 259 167.994L259 165.994ZM254 170.994 172 170.994C170.343 170.994 169 169.651 169 167.994L206 167.994C205.964 169.062 206.8 169.957 207.868 169.994 207.912 169.995 207.956 169.995 208 169.994L218 169.994C219.068 170.031 219.964 169.194 220 168.126 220.001 168.082 220.001 168.038 220 167.994L257 167.994C257 169.651 255.657 170.994 254 170.994Z"/></g></g></g><text font-family="Calibri,Calibri_MSFontService,sans-serif" font-weight="400" font-size="24" transform="translate(117.502 107)">Displays</text></g></svg>