<svg width="1280" height="720" xmlns="http://www.w3.org/2000/svg" xmlns:xlink="http://www.w3.org/1999/xlink" overflow="hidden"><g><rect x="0" y="0" width="1280" height="720" fill="#FFFFFF"/><g><g><g><path d="M83 302 82 302 82 336.011 102 336.011 102 302 83 302ZM101 335.011 83 335.011 83 303 101 303Z"/><path d="M103.5 297 80.5 297C79.9484 297.002 79.5016 297.448 79.5 298L79.5 340.013C79.5019 340.564 79.9485 341.011 80.5 341.013L103.5 341.013C104.051 341.01 104.498 340.564 104.5 340.013L104.5 298C104.498 297.449 104.051 297.002 103.5 297ZM103.5 340.013 80.5 340.013 80.5 298 103.5 298Z"/><path d="M90 300.5 94.5 300.5C94.7762 300.5 95 300.276 95 300 95 299.724 94.7762 299.5 94.5 299.5L90 299.5C89.7238 299.5 89.5 299.724 89.5 300 89.5 300.276 89.7238 300.5 90 300.5Z"/></g></g></g><g><g><g><path d="M173 302 172 302 172 336.011 192 336.011 192 302 173 302ZM191 335.011 173 335.011 173 303 191 303Z"/><path d="M193.5 297 170.5 297C169.948 297.002 169.502 297.448 169.5 298L169.5 340.013C169.502 340.564 169.949 341.011 170.5 341.013L193.5 341.013C194.051 341.01 194.498 340.564 194.5 340.013L194.5 298C194.498 297.449 194.051 297.002 193.5 297ZM193.5 340.013 170.5 340.013 170.5 298 193.5 298Z"/><path d="M180 300.5 184.5 300.5C184.776 300.5 185 300.276 185 300 185 299.724 184.776 299.5 184.5 299.5L180 299.5C179.724 299.5 179.5 299.724 179.5 300 179.5 300.276 179.724 300.5 180 300.5Z"/></g></g></g><g><g><g><path d="M262 302 261 302 261 336.011 281 336.011 281 302 262 302ZM280 335.011 262 335.011 262 303 280 303Z"/><path d="M282.5 297 259.5 297C258.948 297.002 258.502 297.448 258.5 298L258.5 340.013C258.502 340.564 258.948 341.011 259.5 341.013L282.5 341.013C283.051 341.01 283.498 340.564 283.5 340.013L283.5 298C283.498 297.449 283.052 297.002 282.5 297ZM282.5 340.013 259.5 340.013 259.5 298 282.5 298Z"/><path d="M269 300.5 273.5 300.5C273.776 300.5 274 300.276 274 300 274 299.724 273.776 299.5 273.5 299.5L269 299.5C268.724 299.5 268.5 299.724 268.5 300 268.5 300.276 268.724 300.5 269 300.5Z"/></g></g></g><g><g><g><path d="M168 489.994 168 454 110 454 110 490.01ZM112 456 166 456 166 487.993 112 488.01Z"/><path d="M107 453C107 451.895 107.895 451 109 451L169 451C170.105 451 171 451.895 171 453L171 494.013 173 494.013 173 453C173 450.791 171.209 449 169 449L109 449C106.791 449 105 450.791 105 453L105 494.013 107 494.013Z"/><path d="M144 496.994 144 498.994 134 498.994 134 496.994 93 496.994 93 498.994C93.0033 501.754 95.24 503.991 98 503.994L180 503.994C182.76 503.991 184.997 501.754 185 498.994L185 496.994ZM180 501.994 98 501.994C96.3431 501.994 95 500.651 95 498.994L132 498.994C131.964 500.062 132.8 500.957 133.868 500.994 133.912 500.995 133.956 500.995 134 500.994L144 500.994C145.068 501.031 145.964 500.194 146 499.126 146.001 499.082 146.001 499.038 146 498.994L183 498.994C183 500.651 181.657 501.994 180 501.994Z"/></g></g></g><path d="M690.029 501.23C692.679 501.416 700.411 501.5 700.411 501.5L842.058 501.5C859.492 501.411 873.569 483.137 873.5 460.684 873.432 438.488 859.553 420.465 842.32 420.193L839.699 420.193C839.674 403.835 833.526 388.496 823.186 378.997 812.71 369.557 799.351 367.171 787.276 372.583 775.419 342.727 747.014 330.903 723.832 346.173 708.146 356.506 698.242 377.242 698.155 399.933L698.155 400.608C696.099 400.175 694.019 399.957 691.935 399.956 670.181 399.923 652.525 422.609 652.5 450.626 652.493 458.079 653.762 465.442 656.215 472.192 662.583 489.031 675.511 500.134 690.029 501.23ZM664.598 424.252C671.138 413.313 681.214 406.845 691.933 406.706 693.733 406.708 695.53 406.897 697.307 407.27L703.396 408.553 703.396 399.932C703.538 370.122 722.417 346.105 745.563 346.288 761.201 346.412 775.485 357.738 782.611 375.666L784.693 380.888 788.997 378.959C806.684 370.815 826.148 382.679 832.471 405.457 833.784 410.186 834.455 415.171 834.457 420.193L834.457 426.944 842.32 426.944C856.857 427.219 868.469 442.62 868.255 461.343 868.044 479.809 856.397 494.661 842.058 494.749L694.984 494.749 690.313 494.489C671.523 493.445 656.947 472.981 657.758 448.782 658.055 439.901 660.44 431.347 664.597 424.252Z" stroke="#4472C4" stroke-width="0.666667" stroke-miterlimit="8" fill="none" fill-rule="evenodd"/><path d="M6.63807 1.13061 11.1234 3.00266 14.7892 5.53483 18.4082 8.72132 21.9848 12.5438 25.5135 16.9784 28.9886 22.0016 32.4038 27.59 35.7527 33.7203 39.0287 40.3691 42.2248 47.513 45.3342 55.1286 48.3499 63.1923 51.2649 71.6808 54.0721 80.5705 56.7645 89.8379 59.3353 99.4609 64.0814 119.67 68.2545 141.015 71.7972 163.304 74.6524 186.35 76.7626 209.963 78.0708 233.954 78.3958 251.463 77.7293 251.476 77.4044 233.973 77.4048 233.985 76.0973 210.005 76.0981 210.016 73.9888 186.415 73.99 186.426 71.1363 163.392 71.1379 163.403 67.597 141.125 67.5991 141.137 63.4283 119.804 63.4309 119.817 58.6874 99.6183 58.6899 99.6281 56.1213 90.0135 56.1233 90.0204 53.433 80.7602 53.4352 80.7676 50.6304 71.8855 50.633 71.8934 47.7209 63.4131 47.7239 63.4216 44.7115 55.3667 44.7151 55.376 41.6097 47.7701 41.614 47.7802 38.4227 40.647 38.4279 40.6582 35.1578 34.0213 35.1643 34.0337 31.8226 27.9167 31.8307 27.9308 28.4246 22.3573 28.4349 22.3731 24.9716 17.3669 24.9849 17.3848 21.4714 12.9694 21.4888 12.9896 17.9324 9.18858 17.9555 9.21102 14.3633 6.04814 14.3942 6.07222 10.7733 3.57106 10.8344 3.60442 6.38129 1.74584ZM6.94868 5.63168 0 0 8.67455-2.17994ZM82.0371 250.062 78.1862 258.135 74.0385 250.211Z" fill="#4472C4" transform="matrix(1.83697e-16 1 1 -1.83697e-16 271.5 343.5)"/><path d="M6.5649 1.57271 11.1609 4.16668 14.8254 7.57388 18.4407 11.8586 22.013 16.9977 25.5377 22.96 29.0093 29.7146 32.4215 37.2302 35.7679 45.4756 39.0417 54.4192 42.2361 64.0297 45.3439 74.2755 48.3583 85.1248 51.2722 96.5462 54.0784 108.508 56.7699 120.978 59.3395 133.925 61.7802 147.317 64.0847 161.122 66.246 175.309 68.257 189.847 71.7988 219.842 74.6533 250.855 76.7631 282.632 78.071 314.918 78.4277 340.789 77.7611 340.798 77.4045 314.932 77.4047 314.941 76.0972 282.663 76.0976 282.672 73.9884 250.904 73.989 250.912 71.1353 219.907 71.1362 219.916 67.5953 189.929 67.5962 189.935 65.5859 175.403 65.5866 175.407 63.426 161.225 63.4267 161.23 61.123 147.429 61.1239 147.434 58.6841 134.047 58.6851 134.052 56.1165 121.11 56.1176 121.116 53.4274 108.651 53.4287 108.657 50.6239 96.7016 50.6254 96.7079 47.7132 85.2931 47.715 85.2999 44.7026 74.4577 44.7048 74.4652 41.5994 64.2274 41.602 64.2358 38.4107 54.6342 38.414 54.6437 35.1439 45.7101 35.148 45.7209 31.8064 37.4872 31.8117 37.4997 28.4056 29.9976 28.4127 30.0122 24.9493 23.2736 24.9588 23.2908 21.4453 17.3475 21.4586 17.3681 17.9022 12.2519 17.9211 12.2766 14.3289 8.01922 14.3567 8.04838 10.7358 4.68173 10.799 4.7279 6.23723 2.15329ZM6.56348 6.07624 0 0 8.79908-1.60504ZM82.0757 339.405 78.1863 347.459 74.0764 339.515Z" fill="#4472C4" transform="matrix(1.83697e-16 1 1 -1.83697e-16 182.5 343.5)"/><path d="M6.47285 1.96785 11.1895 5.33071 14.8496 9.60865 18.4606 14.9885 22.0293 21.4422 25.5511 28.9311 29.0203 37.4164 32.4307 46.8589 35.7756 57.2194 39.0482 68.4582 42.2416 80.5356 45.3486 93.412 48.3623 107.047 51.2756 121.402 54.0813 136.436 56.7724 152.11 59.3416 168.383 61.782 185.215 64.0862 202.568 66.2472 220.4 68.2579 238.672 70.111 257.343 71.7995 276.375 74.6537 315.357 76.7633 355.299 78.0711 395.882 78.4465 430.114 77.7799 430.121 77.4045 395.892 77.4046 395.899 76.0971 355.324 76.0974 355.331 73.9881 315.396 73.9885 315.402 71.1348 276.427 71.1352 276.432 69.4471 257.404 69.4474 257.407 67.5947 238.739 67.595 238.743 65.5848 220.475 65.5852 220.478 63.4246 202.65 63.4251 202.654 61.1214 185.305 61.1219 185.309 58.6822 168.48 58.6828 168.485 56.1142 152.216 56.115 152.22 53.4247 136.551 53.4255 136.556 50.6207 121.527 50.6217 121.532 47.7095 107.183 47.7107 107.188 44.6983 93.559 44.6998 93.5652 41.5943 80.6955 41.5961 80.7025 38.4048 68.6326 38.407 68.6406 35.1369 57.4104 35.1397 57.4196 31.798 47.0692 31.8017 47.08 28.3956 37.6493 28.4006 37.6623 24.9372 29.1913 24.9441 29.207 21.4307 21.7358 21.4406 21.7552 17.8842 15.3237 17.8991 15.3482 14.3069 9.99634 14.3304 10.0273 10.7095 5.79513 10.7693 5.84984 6.08583 2.51067ZM6.19166 6.45472 0 0 8.87877-1.0805ZM82.0984 428.74 78.1863 436.784 74.0988 428.828Z" fill="#4472C4" transform="matrix(1.83697e-16 1 1 -1.83697e-16 92.5 343.5)"/><path d="M6.67182-0.205762 31.8953 0.276767 47.5321 1.00973 62.7918 2.00129 77.5507 3.23165 91.684 4.68095 105.067 6.32936 117.574 8.15706 129.081 10.1443 139.463 12.2716 148.594 14.5189 152.656 15.6827 156.358 16.8692 159.686 18.077 162.627 19.3042 165.165 20.5499 167.287 21.814 168.98 23.0992 170.228 24.4126 171.009 25.7652 171.267 27.0923 171.515 28.3649 171.477 28.262 172.21 29.532 172.163 29.469 173.365 30.7341 173.325 30.6982 174.981 31.9558 174.95 31.9349 177.045 33.1826 177.021 33.1697 179.538 34.405 179.52 34.3966 182.444 35.6169 182.429 35.6112 185.744 36.8141 185.732 36.81 189.423 37.993 189.413 37.99 193.464 39.1507 193.452 39.1474 202.57 41.3916 202.558 41.3888 212.928 43.5136 212.918 43.5117 224.416 45.4974 224.407 45.496 236.906 47.3226 236.899 47.3216 250.274 48.9691 250.268 48.9683 264.395 50.417 264.388 50.4164 279.141 51.6462 279.135 51.6458 294.388 52.6369 294.382 52.6366 310.012 53.3692 310.002 53.3689 335.221 53.8513 335.209 54.5179 309.985 54.0353 294.348 53.3024 279.089 52.3108 264.33 51.0805 250.196 49.6312 236.814 47.9828 224.307 46.1551 212.8 44.1678 202.417 42.0406 193.286 39.7933 189.224 38.6295 185.523 37.4429 182.194 36.2352 179.253 35.0079 176.715 33.7623 174.593 32.4981 172.9 31.2129 171.652 29.8996 170.871 28.547 170.613 27.2198 170.365 25.9473 170.404 26.0501 169.671 24.7801 169.718 24.8431 168.515 23.5781 168.555 23.6139 166.899 22.3563 166.93 22.3772 164.836 21.1295 164.859 21.1424 162.342 19.9072 162.361 19.9155 159.437 18.6952 159.451 18.7009 156.136 17.498 156.148 17.5021 152.457 16.3191 152.467 16.3221 148.417 15.1615 148.429 15.1647 139.31 12.9205 139.323 12.9234 128.952 10.7985 128.962 10.8004 117.465 8.81474 117.473 8.8161 104.974 6.98956 104.981 6.99057 91.6059 5.34304 91.6126 5.3438 77.4859 3.89516 77.4922 3.89575 62.7394 2.66591 62.7455 2.66636 47.4919 1.67519 47.4979 1.67552 31.8687 0.942918 31.878 0.943223 6.65907 0.460783ZM7.92203 4.15228 0 0 8.07504-3.84626ZM333.958 50.1598 341.88 54.3121 333.805 58.1584Z" fill="#4472C4" transform="matrix(1 0 0 -1 187.5 475.812)"/><path d="M0.0231547-0.332528 4.41494-0.0267184 8.81807 0.881946 13.1993 2.3711 17.5497 4.41995 21.8609 7.00798 26.125 10.1151 30.334 13.7214 34.48 17.8074 38.5552 22.3538 42.5515 27.3412 46.4607 32.7506 50.2746 38.5627 53.9849 44.7584 57.5847 51.321 64.4111 65.4556 70.6904 80.8211 76.3534 97.2617 81.3323 114.624 85.559 132.755 88.9653 151.5 91.483 170.707 93.0438 190.222 93.579 209.883 94.114 229.534 94.113 229.517 95.6724 249.015 95.6707 248.998 98.1862 268.189 98.1836 268.172 101.587 286.902 101.584 286.886 105.807 305 105.802 304.984 110.776 322.33 110.771 322.313 116.428 338.737 116.422 338.719 122.693 354.066 122.685 354.047 129.503 368.165 129.495 368.15 133.088 374.699 133.082 374.688 136.785 380.873 136.778 380.861 140.584 386.661 140.575 386.649 144.475 392.045 144.465 392.032 148.451 397.006 148.439 396.992 152.501 401.524 152.486 401.509 156.617 405.579 156.6 405.564 160.79 409.154 160.769 409.137 165.011 412.228 164.986 412.212 169.27 414.783 169.241 414.768 173.559 416.801 173.524 416.787 177.868 418.264 177.813 418.25 179.933 418.588 179.829 419.247 177.68 418.904 173.292 417.412 168.941 415.364 164.63 412.776 160.366 409.669 156.157 406.062 152.011 401.976 147.936 397.43 143.94 392.442 140.031 387.033 136.217 381.221 132.506 375.025 128.907 368.463 122.08 354.328 115.801 338.963 110.138 322.522 105.159 305.16 100.933 287.029 97.5262 268.284 95.0086 249.077 93.4478 229.561 92.9126 209.901 92.3776 190.249 92.3786 190.267 90.8191 170.769 90.8209 170.786 88.3054 151.595 88.3079 151.611 84.9045 132.882 84.9079 132.898 80.6849 114.783 80.6891 114.8 75.715 97.4538 75.7202 97.4705 70.0631 81.0471 70.0697 81.0646 63.7979 65.7173 63.8063 65.7362 56.9882 51.6187 56.9961 51.634 53.4035 45.0845 53.4097 45.0955 49.7062 38.9111 49.7134 38.9227 45.9074 33.1226 45.9159 33.135 42.016 27.7384 42.026 27.7516 38.0407 22.7778 38.0526 22.7919 33.9905 18.2601 34.0047 18.275 29.8743 14.2044 29.8914 14.2201 25.7012 10.6299 25.7217 10.6461 21.4803 7.55553 21.5051 7.57192 17.221 5.00016 17.2505 5.01593 12.9323 2.98222 12.967 2.99626 8.62314 1.51981 8.66304 1.53067 4.3021 0.63071 4.34632 0.636784-0.0231547 0.332528ZM179.079 414.778 186.491 419.784 178.039 422.71Z" fill="#4472C4" transform="matrix(-1.83697e-16 -1 -1 1.83697e-16 577.284 373.991)"/><path d="M0.0135372-0.333058 5.18267-0.122958 10.3542 0.500003 15.5042 1.52175 20.6277 2.93021 30.7227 6.84384 40.5753 12.1389 50.1001 18.706 59.2174 26.4385 67.8474 35.2302 75.9103 44.9752 83.326 55.5676 90.0144 66.9017 95.8952 78.8719 100.888 91.3726 104.912 104.298 107.886 117.543 109.73 131.002 110.362 144.554 110.798 158.092 110.797 158.072 112.068 171.501 112.066 171.482 114.117 184.7 114.114 184.681 116.889 197.581 116.884 197.562 120.327 210.039 120.322 210.021 124.377 221.968 124.37 221.949 128.983 233.261 128.974 233.242 134.088 243.813 134.077 243.792 139.637 253.516 139.623 253.494 145.572 262.265 145.555 262.242 151.838 269.954 151.815 269.928 158.377 276.475 158.346 276.448 165.13 281.725 165.089 281.697 172.04 285.597 172 285.578 175.521 286.979 175.475 286.965 179.527 287.926 179.373 288.574 175.297 287.608 171.733 286.19 164.74 282.267 157.92 276.962 151.332 270.388 145.029 262.652 139.064 253.858 133.493 244.113 128.37 233.523 123.749 222.192 119.687 210.226 116.239 197.73 113.46 184.811 111.406 171.574 110.132 158.124 109.696 144.578 109.696 144.583 109.065 131.048 109.067 131.077 107.227 117.648 107.232 117.675 104.264 104.457 104.271 104.483 100.255 91.5832 100.264 91.6078 95.2808 79.1311 95.2912 79.1544 89.4217 67.2071 89.4338 67.2296 82.7585 55.9176 82.7725 55.9393 75.3719 45.3685 75.3881 45.3899 67.3428 35.6661 67.3617 35.6872 58.7523 26.9164 58.7745 26.9371 49.6816 19.2252 49.708 19.2454 40.2121 12.6982 40.2435 12.7174 30.4252 7.44082 30.4625 7.458 20.4025 3.55792 20.4346 3.56853 15.3391 2.16777 15.3626 2.17332 10.2369 1.15639 10.2619 1.16037 5.11606 0.540504 5.14239 0.542621-0.0135372 0.333058ZM178.66 284.108 186.058 289.135 177.598 292.038Z" fill="#4472C4" transform="matrix(-1.83697e-16 -1 -1 1.83697e-16 577.635 373.558)"/><text font-family="Calibri,Calibri_MSFontService,sans-serif" font-weight="400" font-size="24" transform="translate(169.423 187)">Scoreboards</text><text font-family="Calibri,Calibri_MSFontService,sans-serif" font-weight="400" font-size="24" transform="translate(302.481 315)">Referee</text><text font-family="Calibri,Calibri_MSFontService,sans-serif" font-weight="400" font-size="24" transform="translate(302.481 344)">Phone/Tablet</text><text font-family="Calibri,Calibri_MSFontService,sans-serif" font-weight="400" font-size="24" transform="translate(99.0323 527)">Marshal</text><text font-family="Calibri,Calibri_MSFontService,sans-serif" font-weight="400" font-size="24" transform="translate(512.938 506)">Announcer</text><path d="M619 416.167 684.996 416.167 684.996 421.833 619 421.833ZM682.162 410.5 699.162 419 682.162 427.5Z" fill="#4472C4"/><text font-family="Calibri,Calibri_MSFontService,sans-serif" font-weight="400" font-size="24" transform="translate(528.755 481)">owlcms</text><text font-family="Calibri,Calibri_MSFontService,sans-serif" font-weight="400" font-size="24" transform="translate(682.221 479)">publicresults</text><path d="M0.0130178-0.333079 4.93395-0.140753 9.86318 0.4302 19.6326 2.65224 29.249 6.23706 38.6295 11.0846 47.698 17.0969 56.3787 24.1762 64.5955 32.2253 72.2725 41.1472 79.3333 50.8451 85.7017 61.2221 91.3011 72.1817 96.0549 83.6272 99.8864 95.4618 102.719 107.589 104.475 119.912 105.077 132.333 104.559 144.751 103.051 157.07 100.618 169.194 97.3269 181.026 93.2429 192.469 88.4323 203.427 82.9608 213.804 76.894 223.501 70.2972 232.424 63.2357 240.474 55.7745 247.556 47.9784 253.571 39.912 258.423 31.6399 262.011 23.2293 264.238 21.4176 264.418 21.3515 263.755 23.1367 263.577 23.0844 263.586 31.445 261.373 31.3977 261.39 39.6264 257.82 39.5873 257.84 47.6183 253.01 47.5865 253.032 55.3538 247.038 55.3279 247.061 62.7657 240.001 62.7446 240.023 69.7868 231.995 69.7694 232.016 76.3502 223.115 76.3356 223.137 82.3891 213.461 82.3769 213.482 87.8371 203.127 87.8267 203.149 92.6277 192.212 92.619 192.234 96.695 180.813 96.6878 180.836 99.9727 169.027 99.967 169.051 102.395 156.952 102.391 156.977 103.896 144.684 103.894 144.71 104.41 132.32 104.41 132.35 103.809 119.96 103.812 119.991 102.061 107.698 102.066 107.726 99.2403 95.6271 99.2478 95.6539 95.4248 83.8453 95.4341 83.8705 90.6904 72.4496 90.7014 72.4734 85.1139 61.5371 85.1267 61.5598 78.772 51.205 78.7866 51.2269 71.7415 41.5506 71.7583 41.5718 64.0994 32.6709 64.1189 32.6916 55.923 24.663 55.9456 24.6832 47.2894 17.6239 47.3159 17.6434 38.2762 11.6503 38.3073 11.6686 28.9607 6.83852 28.9973 6.85473 19.4206 3.28468 19.4631 3.29738 9.73295 1.08427 9.76852 1.09036 4.86988 0.522949 4.89521 0.524908-0.0130178 0.333079ZM23.0616 267.955 14.7433 264.668 22.364 259.986Z" fill="#4472C4" transform="matrix(1 0 0 -1 793.5 422.168)"/><g><g><g><path d="M768 137 767 137 767 171.011 787 171.011 787 137 768 137ZM786 170.011 768 170.011 768 138 786 138Z"/><path d="M788.5 132 765.5 132C764.948 132.002 764.502 132.448 764.5 133L764.5 175.012C764.502 175.564 764.948 176.011 765.5 176.012L788.5 176.012C789.051 176.01 789.498 175.564 789.5 175.012L789.5 133C789.498 132.449 789.052 132.002 788.5 132ZM788.5 175.012 765.5 175.012 765.5 133 788.5 133Z"/><path d="M775 135.5 779.5 135.5C779.776 135.5 780 135.276 780 135 780 134.724 779.776 134.5 779.5 134.5L775 134.5C774.724 134.5 774.5 134.724 774.5 135 774.5 135.276 774.724 135.5 775 135.5Z"/></g></g></g><text font-family="Calibri,Calibri_MSFontService,sans-serif" font-weight="400" font-size="14" transform="translate(757.476 191)">Internet</text><text font-family="Calibri,Calibri_MSFontService,sans-serif" font-weight="400" font-size="14" transform="translate(748.056 208)">Scoreboard</text><g><g><g><path d="M783 448 755 448 755 444 748 444 748 435 775 435C777.209 435 779 433.209 779 431L779 421C778.996 419.847 778.492 418.752 777.618 418 778.492 417.248 778.996 416.153 779 415L779 405C778.996 403.847 778.492 402.752 777.618 402 778.492 401.248 778.996 400.153 779 399L779 389C779 386.791 777.209 385 775 385L719 385C716.791 385 715 386.791 715 389L715 399C715.004 400.153 715.508 401.248 716.382 402 715.508 402.752 715.004 403.847 715 405L715 415C715.004 416.153 715.508 417.248 716.382 418 715.508 418.752 715.004 419.847 715 421L715 431C715 433.209 716.791 435 719 435L746 435 746 444 739 444 739 448 711 448 711 450 739 450 739 454 755 454 755 450 783 450ZM717 399 717 389C717 387.895 717.895 387 719 387L775 387C776.105 387 777 387.895 777 389L777 399C777 400.105 776.105 401 775 401L719 401C717.895 401 717 400.105 717 399ZM717 415 717 405C717 403.895 717.895 403 719 403L775 403C776.105 403 777 403.895 777 405L777 415C777 416.105 776.105 417 775 417L719 417C717.895 417 717 416.105 717 415ZM717 431 717 421C717 419.895 717.895 419 719 419L775 419C776.105 419 777 419.895 777 421L777 431C777 432.105 776.105 433 775 433L719 433C717.895 433 717 432.105 717 431ZM753 452 741 452 741 446 753 446Z"/><path d="M727 394C727 395.105 726.105 396 725 396 723.895 396 723 395.105 723 394 723 392.895 723.895 392 725 392 726.105 392 727 392.895 727 394Z"/><path d="M737 394C737 395.105 736.105 396 735 396 733.895 396 733 395.105 733 394 733 392.895 733.895 392 735 392 736.105 392 737 392.895 737 394Z"/><path d="M747 394C747 395.105 746.105 396 745 396 743.895 396 743 395.105 743 394 743 392.895 743.895 392 745 392 746.105 392 747 392.895 747 394Z"/><path d="M727 410C727 411.105 726.105 412 725 412 723.895 412 723 411.105 723 410 723 408.895 723.895 408 725 408 726.105 408 727 408.895 727 410Z"/><path d="M737 410C737 411.105 736.105 412 735 412 733.895 412 733 411.105 733 410 733 408.895 733.895 408 735 408 736.105 408 737 408.895 737 410Z"/><path d="M747 410C747 411.105 746.105 412 745 412 743.895 412 743 411.105 743 410 743 408.895 743.895 408 745 408 746.105 408 747 408.895 747 410Z"/><path d="M727 426C727 427.105 726.105 428 725 428 723.895 428 723 427.105 723 426 723 424.895 723.895 424 725 424 726.105 424 727 424.895 727 426Z"/><path d="M737 426C737 427.105 736.105 428 735 428 733.895 428 733 427.105 733 426 733 424.895 733.895 424 735 424 736.105 424 737 424.895 737 426Z"/><path d="M747 426C747 427.105 746.105 428 745 428 743.895 428 743 427.105 743 426 743 424.895 743.895 424 745 424 746.105 424 747 424.895 747 426Z"/></g></g></g><g><g><g><path d="M590 435 534 435 534 401 590 401 590 435ZM596 399C596 396.8 594.2 395 592 395L532 395C529.8 395 528 396.8 528 399L528 441 596 441 596 399Z"/><path d="M568 445 568 446C568 446.6 567.6 447 567 447L557 447C556.4 447 556 446.6 556 446L556 445 516 445 516 447C516 449.2 517.8 451 520 451L604 451C606.2 451 608 449.2 608 447L608 445 568 445Z"/></g></g></g><g><g><g><path d="M194 152.994 194 117 136 117 136 153.01ZM138 119 192 119 192 150.993 138 151.01Z"/><path d="M133 116C133 114.895 133.895 114 135 114L195 114C196.105 114 197 114.895 197 116L197 157.013 199 157.013 199 116C199 113.791 197.209 112 195 112L135 112C132.791 112 131 113.791 131 116L131 157.013 133 157.013Z"/><path d="M170 159.994 170 161.994 160 161.994 160 159.994 119 159.994 119 161.994C119.003 164.754 121.24 166.991 124 166.994L206 166.994C208.76 166.991 210.997 164.754 211 161.994L211 159.994ZM206 164.994 124 164.994C122.343 164.994 121 163.651 121 161.994L158 161.994C157.964 163.062 158.8 163.957 159.868 163.994 159.912 163.995 159.956 163.995 160 163.994L170 163.994C171.068 164.031 171.964 163.194 172 162.126 172.001 162.082 172.001 162.038 172 161.994L209 161.994C209 163.651 207.657 164.994 206 164.994Z"/></g></g></g><g><g><g><path d="M329 153.994 329 118 271 118 271 154.01ZM273 120 327 120 327 151.993 273 152.01Z"/><path d="M268 117C268 115.895 268.895 115 270 115L330 115C331.105 115 332 115.895 332 117L332 158.013 334 158.013 334 117C334 114.791 332.209 113 330 113L270 113C267.791 113 266 114.791 266 117L266 158.013 268 158.013Z"/><path d="M305 160.994 305 162.994 295 162.994 295 160.994 254 160.994 254 162.994C254.003 165.754 256.24 167.991 259 167.994L341 167.994C343.76 167.991 345.997 165.754 346 162.994L346 160.994ZM341 165.994 259 165.994C257.343 165.994 256 164.651 256 162.994L293 162.994C292.964 164.062 293.8 164.957 294.868 164.994 294.912 164.995 294.956 164.995 295 164.994L305 164.994C306.068 165.031 306.964 164.194 307 163.126 307.001 163.082 307.001 163.038 307 162.994L344 162.994C344 164.651 342.657 165.994 341 165.994Z"/></g></g></g><rect x="28.5001" y="53.5001" width="607" height="576" stroke="#2F528F" stroke-width="1.33333" stroke-miterlimit="8" fill="none"/><text font-family="Calibri,Calibri_MSFontService,sans-serif" font-style="italic" font-weight="400" font-size="24" transform="translate(30.0607 46)">Competition Site</text></g></svg>