<svg width="1280" height="720" xmlns="http://www.w3.org/2000/svg" xmlns:xlink="http://www.w3.org/1999/xlink" overflow="hidden"><defs><clipPath id="clip0"><path d="M0 0 1280 0 1280 720 0 720Z" fill-rule="evenodd" clip-rule="evenodd"/></clipPath><clipPath id="clip1"><path d="M68 63 164 63 164 159 68 159Z" fill-rule="evenodd" clip-rule="evenodd"/></clipPath><clipPath id="clip2"><path d="M68 63 164 63 164 159 68 159Z" fill-rule="evenodd" clip-rule="evenodd"/></clipPath><clipPath id="clip3"><path d="M68 63 164 63 164 159 68 159Z" fill-rule="evenodd" clip-rule="evenodd"/></clipPath><clipPath id="clip4"><path d="M68 262 116 262 116 310 68 310Z" fill-rule="evenodd" clip-rule="evenodd"/></clipPath><clipPath id="clip5"><path d="M68 262 116 262 116 310 68 310Z" fill-rule="evenodd" clip-rule="evenodd"/></clipPath><clipPath id="clip6"><path d="M68 262 116 262 116 310 68 310Z" fill-rule="evenodd" clip-rule="evenodd"/></clipPath><clipPath id="clip7"><path d="M158 262 206 262 206 310 158 310Z" fill-rule="evenodd" clip-rule="evenodd"/></clipPath><clipPath id="clip8"><path d="M158 262 206 262 206 310 158 310Z" fill-rule="evenodd" clip-rule="evenodd"/></clipPath><clipPath id="clip9"><path d="M158 262 206 262 206 310 158 310Z" fill-rule="evenodd" clip-rule="evenodd"/></clipPath><clipPath id="clip10"><path d="M247 262 295 262 295 310 247 310Z" fill-rule="evenodd" clip-rule="evenodd"/></clipPath><clipPath id="clip11"><path d="M247 262 295 262 295 310 247 310Z" fill-rule="evenodd" clip-rule="evenodd"/></clipPath><clipPath id="clip12"><path d="M247 262 295 262 295 310 247 310Z" fill-rule="evenodd" clip-rule="evenodd"/></clipPath><clipPath id="clip13"><path d="M490 364 586 364 586 460 490 460Z" fill-rule="evenodd" clip-rule="evenodd"/></clipPath><clipPath id="clip14"><path d="M490 364 586 364 586 460 490 460Z" fill-rule="evenodd" clip-rule="evenodd"/></clipPath><clipPath id="clip15"><path d="M490 364 586 364 586 460 490 460Z" fill-rule="evenodd" clip-rule="evenodd"/></clipPath><clipPath id="clip16"><path d="M199 63 295 63 295 159 199 159Z" fill-rule="evenodd" clip-rule="evenodd"/></clipPath><clipPath id="clip17"><path d="M199 63 295 63 295 159 199 159Z" fill-rule="evenodd" clip-rule="evenodd"/></clipPath><clipPath id="clip18"><path d="M199 63 295 63 295 159 199 159Z" fill-rule="evenodd" clip-rule="evenodd"/></clipPath><clipPath id="clip19"><path d="M491 374 587 374 587 470 491 470Z" fill-rule="evenodd" clip-rule="evenodd"/></clipPath><clipPath id="clip20"><path d="M491 374 587 374 587 470 491 470Z" fill-rule="evenodd" clip-rule="evenodd"/></clipPath><clipPath id="clip21"><path d="M491 374 587 374 587 470 491 470Z" fill-rule="evenodd" clip-rule="evenodd"/></clipPath><clipPath id="clip22"><path d="M133 531 229 531 229 627 133 627Z" fill-rule="evenodd" clip-rule="evenodd"/></clipPath><clipPath id="clip23"><path d="M133 531 229 531 229 627 133 627Z" fill-rule="evenodd" clip-rule="evenodd"/></clipPath><clipPath id="clip24"><path d="M133 531 229 531 229 627 133 627Z" fill-rule="evenodd" clip-rule="evenodd"/></clipPath><clipPath id="clip25"><path d="M345 561 441 561 441 657 345 657Z" fill-rule="evenodd" clip-rule="evenodd"/></clipPath><clipPath id="clip26"><path d="M345 561 441 561 441 657 345 657Z" fill-rule="evenodd" clip-rule="evenodd"/></clipPath><clipPath id="clip27"><path d="M345 561 441 561 441 657 345 657Z" fill-rule="evenodd" clip-rule="evenodd"/></clipPath></defs><g clip-path="url(#clip0)"><rect x="0" y="0" width="1280" height="720" fill="#FFFFFF"/><g clip-path="url(#clip1)"><g clip-path="url(#clip2)"><g clip-path="url(#clip3)"><path d="M144 123 88 123 88 89 144 89 144 123ZM150 87C150 84.8 148.2 83 146 83L86 83C83.8 83 82 84.8 82 87L82 129 150 129 150 87Z"/><path d="M122 133 122 134C122 134.6 121.6 135 121 135L111 135C110.4 135 110 134.6 110 134L110 133 70 133 70 135C70 137.2 71.8 139 74 139L158 139C160.2 139 162 137.2 162 135L162 133 122 133Z"/></g></g></g><g clip-path="url(#clip4)"><g clip-path="url(#clip5)"><g clip-path="url(#clip6)"><path d="M83 269 82 269 82 303.011 102 303.011 102 269 83 269ZM101 302.011 83 302.011 83 270 101 270Z"/><path d="M103.5 264 80.5 264C79.9484 264.002 79.5016 264.448 79.5 265L79.5 307.013C79.5019 307.564 79.9485 308.011 80.5 308.013L103.5 308.013C104.051 308.01 104.498 307.564 104.5 307.013L104.5 265C104.498 264.449 104.051 264.002 103.5 264ZM103.5 307.013 80.5 307.013 80.5 265 103.5 265Z"/><path d="M90 267.5 94.5 267.5C94.7762 267.5 95 267.276 95 267 95 266.724 94.7762 266.5 94.5 266.5L90 266.5C89.7238 266.5 89.5 266.724 89.5 267 89.5 267.276 89.7238 267.5 90 267.5Z"/></g></g></g><g clip-path="url(#clip7)"><g clip-path="url(#clip8)"><g clip-path="url(#clip9)"><path d="M173 269 172 269 172 303.011 192 303.011 192 269 173 269ZM191 302.011 173 302.011 173 270 191 270Z"/><path d="M193.5 264 170.5 264C169.948 264.002 169.502 264.448 169.5 265L169.5 307.013C169.502 307.564 169.949 308.011 170.5 308.013L193.5 308.013C194.051 308.01 194.498 307.564 194.5 307.013L194.5 265C194.498 264.449 194.051 264.002 193.5 264ZM193.5 307.013 170.5 307.013 170.5 265 193.5 265Z"/><path d="M180 267.5 184.5 267.5C184.776 267.5 185 267.276 185 267 185 266.724 184.776 266.5 184.5 266.5L180 266.5C179.724 266.5 179.5 266.724 179.5 267 179.5 267.276 179.724 267.5 180 267.5Z"/></g></g></g><g clip-path="url(#clip10)"><g clip-path="url(#clip11)"><g clip-path="url(#clip12)"><path d="M262 269 261 269 261 303.011 281 303.011 281 269 262 269ZM280 302.011 262 302.011 262 270 280 270Z"/><path d="M282.5 264 259.5 264C258.948 264.002 258.502 264.448 258.5 265L258.5 307.013C258.502 307.564 258.948 308.011 259.5 308.013L282.5 308.013C283.051 308.01 283.498 307.564 283.5 307.013L283.5 265C283.498 264.449 283.052 264.002 282.5 264ZM282.5 307.013 259.5 307.013 259.5 265 282.5 265Z"/><path d="M269 267.5 273.5 267.5C273.776 267.5 274 267.276 274 267 274 266.724 273.776 266.5 273.5 266.5L269 266.5C268.724 266.5 268.5 266.724 268.5 267 268.5 267.276 268.724 267.5 269 267.5Z"/></g></g></g><g clip-path="url(#clip13)"><g clip-path="url(#clip14)"><g clip-path="url(#clip15)"><path d="M574 441 546 441 546 437 539 437 539 428 566 428C568.209 428 570 426.209 570 424L570 414C569.996 412.847 569.492 411.752 568.618 411 569.492 410.248 569.996 409.153 570 408L570 398C569.996 396.847 569.492 395.752 568.618 395 569.492 394.248 569.996 393.153 570 392L570 382C570 379.791 568.209 378 566 378L510 378C507.791 378 506 379.791 506 382L506 392C506.004 393.153 506.508 394.248 507.382 395 506.508 395.752 506.004 396.847 506 398L506 408C506.004 409.153 506.508 410.248 507.382 411 506.508 411.752 506.004 412.847 506 414L506 424C506 426.209 507.791 428 510 428L537 428 537 437 530 437 530 441 502 441 502 443 530 443 530 447 546 447 546 443 574 443ZM508 392 508 382C508 380.895 508.895 380 510 380L566 380C567.105 380 568 380.895 568 382L568 392C568 393.105 567.105 394 566 394L510 394C508.895 394 508 393.105 508 392ZM508 408 508 398C508 396.895 508.895 396 510 396L566 396C567.105 396 568 396.895 568 398L568 408C568 409.105 567.105 410 566 410L510 410C508.895 410 508 409.105 508 408ZM508 424 508 414C508 412.895 508.895 412 510 412L566 412C567.105 412 568 412.895 568 414L568 424C568 425.105 567.105 426 566 426L510 426C508.895 426 508 425.105 508 424ZM544 445 532 445 532 439 544 439Z"/><path d="M518 387C518 388.105 517.105 389 516 389 514.895 389 514 388.105 514 387 514 385.895 514.895 385 516 385 517.105 385 518 385.895 518 387Z"/><path d="M528 387C528 388.105 527.105 389 526 389 524.895 389 524 388.105 524 387 524 385.895 524.895 385 526 385 527.105 385 528 385.895 528 387Z"/><path d="M538 387C538 388.105 537.105 389 536 389 534.895 389 534 388.105 534 387 534 385.895 534.895 385 536 385 537.105 385 538 385.895 538 387Z"/><path d="M518 403C518 404.105 517.105 405 516 405 514.895 405 514 404.105 514 403 514 401.895 514.895 401 516 401 517.105 401 518 401.895 518 403Z"/><path d="M528 403C528 404.105 527.105 405 526 405 524.895 405 524 404.105 524 403 524 401.895 524.895 401 526 401 527.105 401 528 401.895 528 403Z"/><path d="M538 403C538 404.105 537.105 405 536 405 534.895 405 534 404.105 534 403 534 401.895 534.895 401 536 401 537.105 401 538 401.895 538 403Z"/><path d="M518 419C518 420.105 517.105 421 516 421 514.895 421 514 420.105 514 419 514 417.895 514.895 417 516 417 517.105 417 518 417.895 518 419Z"/><path d="M528 419C528 420.105 527.105 421 526 421 524.895 421 524 420.105 524 419 524 417.895 524.895 417 526 417 527.105 417 528 417.895 528 419Z"/><path d="M538 419C538 420.105 537.105 421 536 421 534.895 421 534 420.105 534 419 534 417.895 534.895 417 536 417 537.105 417 538 417.895 538 419Z"/></g></g></g><g clip-path="url(#clip16)"><g clip-path="url(#clip17)"><g clip-path="url(#clip18)"><path d="M275 123 219 123 219 89 275 89 275 123ZM281 87C281 84.8 279.2 83 277 83L217 83C214.8 83 213 84.8 213 87L213 129 281 129 281 87Z"/><path d="M253 133 253 134C253 134.6 252.6 135 252 135L242 135C241.4 135 241 134.6 241 134L241 133 201 133 201 135C201 137.2 202.8 139 205 139L289 139C291.2 139 293 137.2 293 135L293 133 253 133Z"/></g></g></g><rect x="460" y="364" width="158" height="117" fill="#FFFFFF"/><g clip-path="url(#clip19)"><g clip-path="url(#clip20)"><g clip-path="url(#clip21)"><path d="M568 435.994 568 400 510 400 510 436.01ZM512 402 566 402 566 433.993 512 434.01Z"/><path d="M507 399C507 397.895 507.895 397 509 397L569 397C570.105 397 571 397.895 571 399L571 440.013 573 440.013 573 399C573 396.791 571.209 395 569 395L509 395C506.791 395 505 396.791 505 399L505 440.013 507 440.013Z"/><path d="M544 442.994 544 444.994 534 444.994 534 442.994 493 442.994 493 444.994C493.003 447.754 495.24 449.991 498 449.994L580 449.994C582.76 449.991 584.997 447.754 585 444.994L585 442.994ZM580 447.994 498 447.994C496.343 447.994 495 446.651 495 444.994L532 444.994C531.964 446.062 532.8 446.957 533.868 446.994 533.912 446.995 533.956 446.995 534 446.994L544 446.994C545.068 447.031 545.964 446.194 546 445.126 546.002 445.082 546.002 445.038 546 444.994L583 444.994C583 446.651 581.657 447.994 580 447.994Z"/></g></g></g><path d="M6.68343 0.338994 10.5106 0.923964 15.7992 2.49795 20.9533 4.63501 26.1671 7.33614 31.2528 10.6011 36.2715 14.3651 41.2253 18.6291 46.1144 23.3928 50.9393 28.6564 55.5745 34.2938 60.146 40.3682 64.5914 46.8799 68.9121 53.7679 77.1097 68.5361 84.619 84.6812 91.3761 101.887 97.3822 120.093 102.387 139.048 106.516 158.691 109.519 178.835 111.395 199.23 111.819 213.201 111.152 213.221 110.729 199.26 110.731 199.281 108.856 178.906 108.858 178.924 105.858 158.799 105.861 158.819 101.736 139.194 101.74 139.21 96.7402 120.273 96.7459 120.292 90.7459 102.104 90.7522 102.122 84.0022 84.9343 84.0103 84.9531 76.5103 68.8281 76.5211 68.8493 68.3336 54.0993 68.3426 54.1146 64.0301 47.2396 64.0372 47.2504 59.5997 40.7504 59.6087 40.7629 55.0462 34.7004 55.055 34.7117 50.43 29.0867 50.4418 29.1002 45.6293 23.8502 45.6424 23.8637 40.7674 19.1137 40.7825 19.1276 35.845 14.8776 35.8625 14.8917 30.8625 11.1417 30.8824 11.1555 25.8199 7.90551 25.8467 7.92097 20.6592 5.23347 20.6848 5.24541 15.5598 3.12041 15.5924 3.13198 10.3424 1.56948 10.3871 1.57951 6.5827 0.998007ZM7.55858 4.78204 0 0 8.36078-3.17764ZM115.443 211.758 111.687 219.875 107.447 212Z" fill="#4472C4" transform="matrix(-4.37114e-08 1 1 4.37114e-08 271.5 310.5)"/><path d="M6.67161 0.602049 10.5374 1.4305 15.8365 3.63846 20.9959 6.65861 26.2108 10.4913 31.2951 15.0734 36.3122 20.3414 41.2636 26.3582 46.1491 33.0601 50.9709 40.3868 55.6037 48.3377 60.1721 56.9112 64.6146 66.0464 68.9313 75.681 73.1227 85.8779 77.1262 96.5122 80.9414 107.645 84.6311 119.152 88.1336 131.035 91.386 143.357 97.3887 168.931 102.391 195.632 106.518 223.208 109.52 251.472 111.396 280.236 111.877 302.515 111.21 302.53 110.729 280.257 110.73 280.272 108.855 251.522 108.856 251.535 105.856 223.285 105.858 223.299 101.733 195.737 101.735 195.749 96.7349 169.061 96.738 169.076 90.738 143.514 90.7402 143.523 87.4902 131.21 87.4928 131.219 83.9928 119.344 83.9951 119.352 80.3076 107.852 80.3097 107.858 76.4972 96.7331 76.5005 96.7424 72.5005 86.1174 72.5042 86.1267 68.3167 75.9392 68.3208 75.9488 64.0083 66.3238 64.0127 66.3333 59.5752 57.2083 59.5808 57.2192 55.0183 48.6567 55.0245 48.6678 50.3995 40.7303 50.4091 40.7457 45.5966 33.4332 45.6056 33.4464 40.7306 26.7589 40.7426 26.7743 35.8051 20.7743 35.8211 20.7924 30.8211 15.5424 30.8393 15.5601 25.7768 10.9976 25.8026 11.0186 20.6151 7.2061 20.6441 7.22517 15.5191 4.22517 15.5593 4.24519 10.3093 2.05769 10.3677 2.07593 6.53192 1.25391ZM7.36533 5.07464 0 0 8.47891-2.84748ZM115.514 301.103 111.687 309.187 107.516 301.276Z" fill="#4472C4" transform="matrix(-4.37114e-08 1 1 4.37114e-08 182.5 310.5)"/><path d="M6.64839 0.88428 10.5619 2.00136 15.8666 4.78 21.0278 8.68237 26.2411 13.5816 31.3235 19.4798 36.3377 26.3116 41.2859 34.0783 46.1687 42.7172 50.9881 52.1682 55.6184 62.4301 60.1849 73.4397 64.6259 85.199 68.9412 97.6445 73.1312 110.715 77.1336 124.41 80.9478 138.729 84.6368 153.61 88.1383 168.929 91.3895 184.81 94.5154 201.065 97.3917 217.76 102.393 252.144 106.519 287.717 109.52 324.165 111.396 361.176 111.909 391.829 111.243 391.84 110.729 361.193 110.73 361.204 108.855 324.204 108.855 324.215 105.855 287.777 105.856 287.788 101.731 252.226 101.733 252.235 96.7326 217.86 96.734 217.869 93.859 201.182 93.8602 201.188 90.7352 184.938 90.7359 184.942 87.4859 169.067 87.4875 169.074 83.9875 153.762 83.989 153.768 80.3015 138.893 80.3029 138.898 76.4904 124.586 76.4925 124.593 72.4925 110.906 72.4951 110.914 68.3076 97.8518 68.3101 97.8592 63.9976 85.4217 64.0007 85.4303 59.5632 73.6803 59.5671 73.6902 55.0046 62.6902 55.0087 62.6996 50.3837 52.4496 50.3905 52.4639 45.578 43.0264 45.5848 43.039 40.7098 34.414 40.7189 34.4291 35.7814 26.6791 35.7938 26.6972 30.7938 19.8847 30.81 19.9051 25.7475 14.0301 25.7717 14.0554 20.5842 9.1804 20.6115 9.20339 15.4865 5.32839 15.5328 5.35778 10.2828 2.60778 10.346 2.63303 6.4654 1.52534ZM7.14539 5.37991 0 0 8.59116-2.48836ZM115.553 390.434 111.687 398.5 107.554 390.568Z" fill="#4472C4" transform="matrix(-4.37114e-08 1 1 4.37114e-08 92.5001 310.5)"/><path d="M0.0160072-0.332949 6.53051-0.0197516 12.9979 0.859312 19.4643 2.36604 25.8636 4.43641 32.2619 7.00828 38.534 10.1443 44.739 13.7796 50.88 17.8527 56.9592 22.4278 62.8477 27.5019 68.6087 32.8872 74.3076 38.7739 79.7553 44.9731 85.0784 51.6113 95.2166 65.8172 104.48 81.2764 112.865 97.8597 120.249 115.318 126.507 133.59 131.575 152.488 135.266 171.82 136.644 181.586 137.582 191.475 138.146 201.361 138.396 211.243 138.771 230.994 138.77 230.981 139.895 250.606 139.894 250.594 141.707 269.906 141.705 269.894 144.205 288.769 144.204 288.757 147.266 307.007 147.264 306.996 150.827 324.433 150.823 324.419 154.948 340.982 154.945 340.968 159.507 356.405 159.502 356.39 164.44 370.578 164.436 370.567 166.998 377.192 166.993 377.18 169.681 383.367 169.677 383.359 172.427 389.234 172.419 389.218 175.294 394.593 175.29 394.585 178.165 399.648 178.155 399.632 181.093 404.195 181.081 404.177 184.081 408.239 184.069 408.225 187.069 411.85 187.048 411.827 190.173 414.952 190.151 414.932 193.214 417.494 193.184 417.472 196.309 419.534 196.241 419.5 199.261 420.624 199.028 421.249 195.973 420.112 192.801 418.018 189.712 415.434 186.566 412.287 183.55 408.643 180.538 404.564 177.59 399.985 174.708 394.911 171.827 389.524 169.071 383.637 166.379 377.439 163.812 370.802 158.87 356.602 154.303 341.15 150.175 324.574 146.61 307.123 143.545 288.862 141.044 269.975 139.23 250.65 138.104 231.013 137.729 211.256 137.729 211.258 137.479 201.383 137.48 201.394 136.917 191.519 136.918 191.532 135.981 181.657 135.982 181.672 134.607 171.922 134.61 171.938 130.923 152.625 130.928 152.649 125.866 133.774 125.872 133.795 119.622 115.545 119.63 115.567 112.255 98.1298 112.265 98.1504 103.89 81.5879 103.902 81.6088 94.6516 66.1713 94.6662 66.1936 84.5412 52.0061 84.5524 52.021 79.2399 45.396 79.2496 45.4075 73.8121 39.22 73.823 39.2318 68.1355 33.3568 68.1474 33.3685 62.3974 27.9935 62.4074 28.0025 56.5324 22.94 56.5496 22.9538 50.4871 18.3913 50.5033 18.4028 44.3783 14.3403 44.394 14.3501 38.2065 10.7251 38.2259 10.7356 31.9759 7.61064 32.0007 7.62178 25.6257 5.05928 25.6474 5.06715 19.2724 3.00465 19.2994 3.01214 12.8619 1.51214 12.8926 1.5178 6.45511 0.642796 6.48399 0.645449-0.0160072 0.332949ZM198.786 416.735 205.625 422.5 196.91 424.512Z" fill="#4472C4" transform="matrix(-4.37114e-08 -1 -1 4.37114e-08 538.98 365.066)"/><path d="M0.00884644-0.333216 7.08163-0.145443 14.1647 0.481381 21.1822 1.54653 28.2031 2.92565 41.9831 6.87171 55.4504 12.2586 68.4766 18.897 80.9386 26.6623 92.7739 35.5544 103.795 45.3856 113.939 56.0932 123.082 67.4902 131.161 79.5779 137.988 92.2306 143.5 105.258 145.694 111.903 147.574 118.608 149.015 125.377 150.081 132.209 150.708 139.041 150.958 145.928 151.271 159.617 151.27 159.602 152.208 173.102 152.206 173.089 153.644 186.464 153.642 186.449 155.642 199.449 155.64 199.437 158.077 212.062 158.074 212.046 161.011 224.109 161.008 224.094 164.32 235.469 164.315 235.454 168.003 246.141 167.997 246.126 171.934 255.938 171.925 255.917 176.237 264.792 176.226 264.77 180.726 272.52 180.71 272.495 185.397 279.12 185.372 279.089 190.247 284.464 190.206 284.426 195.206 288.363 195.135 288.32 198.851 289.972 198.58 290.581 194.827 288.913 189.772 284.932 184.865 279.521 180.157 272.868 175.643 265.094 171.32 256.198 167.375 246.367 163.682 235.664 160.365 224.274 157.424 212.196 154.984 199.557 152.982 186.543 151.543 173.154 150.604 159.64 150.292 145.945 150.292 145.95 150.042 139.075 150.043 139.093 149.418 132.28 149.421 132.301 148.358 125.489 148.361 125.507 146.924 118.757 146.929 118.777 145.054 112.09 145.058 112.105 142.871 105.48 142.88 105.505 137.38 92.5049 137.394 92.5333 130.582 79.9083 130.598 79.9352 122.535 67.8727 122.552 67.8961 113.427 56.5211 113.446 56.5417 103.321 45.8542 103.341 45.8737 92.3406 36.0612 92.3623 36.079 80.5498 27.204 80.5737 27.2204 68.1362 19.4704 68.1611 19.4845 55.1611 12.8595 55.1887 12.872 41.7512 7.49699 41.7832 7.50795 28.0332 3.57045 28.0608 3.57708 21.0608 2.20208 21.075 2.20456 14.075 1.14206 14.0956 1.14454 7.03312 0.519536 7.05365 0.520716-0.00884644 0.333216ZM198.38 286.073 205.187 291.875 196.462 293.84Z" fill="#4472C4" transform="matrix(-4.37114e-08 -1 -1 4.37114e-08 539.332 364.633)"/><rect x="28.5001" y="53.5001" width="600" height="622" stroke="#2F528F" stroke-width="1.33333" stroke-miterlimit="8" fill="none"/><text font-family="Calibri,Calibri_MSFontService,sans-serif" font-weight="400" font-size="24" transform="translate(310.481 115)">Scoreboards<tspan x="0" y="164">Referee</tspan><tspan x="0" y="193">Phone/Tablet</tspan><tspan x="193.274" y="358">owlcms</tspan></text><g clip-path="url(#clip22)"><g clip-path="url(#clip23)"><g clip-path="url(#clip24)"><path d="M210 592.994 210 557 152 557 152 593.01ZM154 559 208 559 208 590.993 154 591.01Z"/><path d="M149 556C149 554.895 149.895 554 151 554L211 554C212.105 554 213 554.895 213 556L213 597.013 215 597.013 215 556C215 553.791 213.209 552 211 552L151 552C148.791 552 147 553.791 147 556L147 597.013 149 597.013Z"/><path d="M186 599.994 186 601.994 176 601.994 176 599.994 135 599.994 135 601.994C135.003 604.754 137.24 606.991 140 606.994L222 606.994C224.76 606.991 226.997 604.754 227 601.994L227 599.994ZM222 604.994 140 604.994C138.343 604.994 137 603.651 137 601.994L174 601.994C173.964 603.062 174.8 603.958 175.868 603.994 175.912 603.995 175.956 603.995 176 603.994L186 603.994C187.068 604.031 187.964 603.194 188 602.126 188.001 602.082 188.001 602.038 188 601.994L225 601.994C225 603.651 223.657 604.994 222 604.994Z"/></g></g></g><path d="M6.67185-0.20509 29.2622 0.229339 58.3363 1.79247 86.9103 4.35599 114.859 7.7949 141.808 12.1093 167.693 17.1737 180.076 19.9255 192.146 22.9273 203.777 26.0539 215.034 29.3058 225.792 32.6835 236.05 36.2488 245.808 39.8768 255.068 43.6309 263.705 47.5111 271.779 51.5166 279.166 55.5236 285.932 59.6579 292.012 63.8575 297.407 68.186 301.989 72.5171 305.888 76.856 308.913 81.2687 311.128 85.7606 311.701 88.1226 311.053 88.2798 310.489 85.9536 310.514 86.0224 308.326 81.5849 308.35 81.626 305.35 77.251 305.377 77.2853 301.502 72.9728 301.521 72.9922 296.958 68.6797 296.979 68.6975 291.604 64.385 291.623 64.3993 285.561 60.2118 285.576 60.2219 278.826 56.0969 278.841 56.1055 271.466 52.1055 271.477 52.1111 263.414 48.1111 263.426 48.1166 254.801 44.2416 254.812 44.2464 245.562 40.4964 245.571 40.4999 235.821 36.8749 235.828 36.8774 225.578 33.3149 225.588 33.318 214.838 29.943 214.845 29.9452 203.595 26.6952 203.601 26.6969 191.976 23.5719 191.982 23.5735 179.92 20.5735 179.928 20.5754 167.553 17.8254 167.561 17.8271 141.686 12.7646 141.697 12.7666 114.76 8.45414 114.772 8.45584 86.8343 5.01834 86.8452 5.0195 58.2827 2.457 58.2946 2.45785 29.2321 0.895353 29.2436 0.895772 6.65903 0.461453ZM7.92161 4.15308 0 0 8.07543-3.84544ZM315.057 86.1426 312.625 94.75 307.198 87.6402Z" fill="#4472C4" transform="matrix(1 0 0 -1 229.5 580.212)"/><text font-family="Calibri,Calibri_MSFontService,sans-serif" font-weight="400" font-size="24" transform="translate(141.605 635)">Marshall<tspan x="199.76" y="21">Announcer</tspan></text><g clip-path="url(#clip25)"><g clip-path="url(#clip26)"><g clip-path="url(#clip27)"><path d="M422 622.994 422 587 364 587 364 623.01ZM366 589 420 589 420 620.993 366 621.01Z"/><path d="M361 586C361 584.895 361.895 584 363 584L423 584C424.105 584 425 584.895 425 586L425 627.013 427 627.013 427 586C427 583.791 425.209 582 423 582L363 582C360.791 582 359 583.791 359 586L359 627.013 361 627.013Z"/><path d="M398 629.994 398 631.994 388 631.994 388 629.994 347 629.994 347 631.994C347.003 634.754 349.24 636.991 352 636.994L434 636.994C436.76 636.991 438.997 634.754 439 631.994L439 629.994ZM434 634.994 352 634.994C350.343 634.994 349 633.651 349 631.994L386 631.994C385.964 633.062 386.8 633.958 387.868 633.994 387.912 633.995 387.956 633.995 388 633.994L398 633.994C399.068 634.031 399.964 633.194 400 632.126 400.001 632.082 400.001 632.038 400 631.994L437 631.994C437 633.651 435.657 634.994 434 634.994Z"/></g></g></g><path d="M6.67319 0.155139 9.42455 0.356905 18.7815 2.49204 28.0078 5.81856 36.9798 10.3986 45.6335 16.0424 53.9703 22.7494 61.8039 30.2697 69.135 38.6659 75.901 47.8126 81.977 57.5844 87.3644 67.858 91.8749 78.633 95.571 89.7841 98.2652 101.187 99.9572 112.78 100.198 117.762 99.5323 117.795 99.2921 112.829 99.2952 112.861 97.6077 101.298 97.6131 101.327 94.9256 89.9516 94.9336 89.9799 91.2461 78.8549 91.255 78.8787 86.755 68.1287 86.7673 68.1548 81.3923 57.9048 81.4044 57.926 75.3419 48.176 75.357 48.1982 68.607 39.0732 68.6239 39.0942 61.3114 30.7192 61.3316 30.7405 53.5192 23.2405 53.541 23.2597 45.2285 16.5722 45.2554 16.5917 36.6304 10.9667 36.6609 10.9844 27.7234 6.42189 27.7619 6.43857 18.5744 3.12607 18.6133 3.13748 9.30084 1.01248 9.35062 1.01994 6.62443 0.82002ZM7.68603 4.57438 0 0 8.27112-3.40419ZM103.796 116.254 100.188 124.437 95.8055 116.64Z" fill="#4472C4" transform="matrix(1 0 0 -1 441.5 609.885)"/><text font-family="Calibri,Calibri_MSFontService,sans-serif" font-style="italic" font-weight="400" font-size="19" transform="translate(33.0966 68)">Competition<tspan x="97.2333" y="0">Site</tspan></text></g></svg>