<svg width="1280" height="720" xmlns="http://www.w3.org/2000/svg" xmlns:xlink="http://www.w3.org/1999/xlink" overflow="hidden"><g><rect x="0" y="0" width="1280" height="720" fill="#FFFFFF"/><rect x="28.5001" y="53.5001" width="600" height="622" stroke="#2F528F" stroke-width="1.33333" stroke-miterlimit="8" fill="none"/><text font-family="Calibri,Calibri_MSFontService,sans-serif" font-style="italic" font-weight="400" font-size="24" transform="translate(30.0607 46)">Competition</text><text font-family="Calibri,Calibri_MSFontService,sans-serif" font-style="italic" font-weight="400" font-size="24" transform="translate(154.767 46)">Site</text><g><g><g><path d="M84 269 83 269 83 303.011 103 303.011 103 269 84 269ZM102 302.011 84 302.011 84 270 102 270Z"/><path d="M104.5 264 81.5 264C80.9484 264.002 80.5016 264.448 80.5 265L80.5 307.013C80.5019 307.564 80.9485 308.011 81.5 308.013L104.5 308.013C105.051 308.01 105.498 307.564 105.5 307.013L105.5 265C105.498 264.449 105.051 264.002 104.5 264ZM104.5 307.013 81.5 307.013 81.5 265 104.5 265Z"/><path d="M91 267.5 95.5 267.5C95.7762 267.5 96 267.276 96 267 96 266.724 95.7762 266.5 95.5 266.5L91 266.5C90.7238 266.5 90.5 266.724 90.5 267 90.5 267.276 90.7238 267.5 91 267.5Z"/></g></g></g><g><g><g><path d="M174 269 173 269 173 303.011 193 303.011 193 269 174 269ZM192 302.011 174 302.011 174 270 192 270Z"/><path d="M194.5 264 171.5 264C170.948 264.002 170.502 264.448 170.5 265L170.5 307.013C170.502 307.564 170.949 308.011 171.5 308.013L194.5 308.013C195.051 308.01 195.498 307.564 195.5 307.013L195.5 265C195.498 264.449 195.051 264.002 194.5 264ZM194.5 307.013 171.5 307.013 171.5 265 194.5 265Z"/><path d="M181 267.5 185.5 267.5C185.776 267.5 186 267.276 186 267 186 266.724 185.776 266.5 185.5 266.5L181 266.5C180.724 266.5 180.5 266.724 180.5 267 180.5 267.276 180.724 267.5 181 267.5Z"/></g></g></g><g><g><g><path d="M263 269 262 269 262 303.011 282 303.011 282 269 263 269ZM281 302.011 263 302.011 263 270 281 270Z"/><path d="M283.5 264 260.5 264C259.948 264.002 259.502 264.448 259.5 265L259.5 307.013C259.502 307.564 259.948 308.011 260.5 308.013L283.5 308.013C284.051 308.01 284.498 307.564 284.5 307.013L284.5 265C284.498 264.449 284.052 264.002 283.5 264ZM283.5 307.013 260.5 307.013 260.5 265 283.5 265Z"/><path d="M270 267.5 274.5 267.5C274.776 267.5 275 267.276 275 267 275 266.724 274.776 266.5 274.5 266.5L270 266.5C269.724 266.5 269.5 266.724 269.5 267 269.5 267.276 269.724 267.5 270 267.5Z"/></g></g></g><g><g><g><path d="M155 521.994 155 486 97 486 97 522.01ZM99 488 153 488 153 519.993 99 520.01Z"/><path d="M94 485C94 483.895 94.8954 483 96 483L156 483C157.105 483 158 483.895 158 485L158 526.013 160 526.013 160 485C160 482.791 158.209 481 156 481L96 481C93.7909 481 92 482.791 92 485L92 526.013 94 526.013Z"/><path d="M131 528.994 131 530.994 121 530.994 121 528.994 80 528.994 80 530.994C80.0033 533.754 82.24 535.991 85 535.994L167 535.994C169.76 535.991 171.997 533.754 172 530.994L172 528.994ZM167 533.994 85 533.994C83.3431 533.994 82 532.651 82 530.994L119 530.994C118.964 532.062 119.8 532.958 120.868 532.994 120.912 532.995 120.956 532.995 121 532.994L131 532.994C132.068 533.031 132.964 532.194 133 531.126 133.001 531.082 133.001 531.038 133 530.994L170 530.994C170 532.651 168.657 533.994 167 533.994Z"/></g></g></g><g><g><g><path d="M337 134 281 134 281 100 337 100 337 134ZM343 98C343 95.8 341.2 94 339 94L279 94C276.8 94 275 95.8 275 98L275 140 343 140 343 98Z"/><path d="M315 144 315 145C315 145.6 314.6 146 314 146L304 146C303.4 146 303 145.6 303 145L303 144 263 144 263 146C263 148.2 264.8 150 267 150L351 150C353.2 150 355 148.2 355 146L355 144 315 144Z"/></g></g></g><path d="M6.68282 0.34617 10.5275 0.935215 15.7673 2.49293 20.9683 4.63531 26.1245 7.34257 31.2259 10.5938 36.2627 14.3685 41.2252 18.646 46.1036 23.4062 50.8879 28.6287 55.5684 34.2934 60.135 40.3802 64.5778 46.869 68.8884 53.7422 77.0628 68.5462 84.5822 84.6399 91.3637 101.86 97.3261 120.045 102.388 139.035 106.467 158.67 109.482 178.788 111.351 199.229 111.785 213.158 111.118 213.179 110.685 199.26 110.686 199.28 108.819 178.858 108.821 178.878 105.809 158.778 105.812 158.797 101.737 139.18 101.741 139.198 96.6843 120.226 96.6897 120.244 90.7333 102.077 90.7399 102.095 83.9656 84.8938 83.9738 84.9127 76.4635 68.8386 76.4737 68.8586 68.3092 54.0725 68.3186 54.0885 64.0166 47.2288 64.0239 47.2401 59.589 40.7628 59.5974 40.7745 55.0398 34.6997 55.0495 34.712 50.3794 29.0599 50.3906 29.0727 45.6183 23.8634 45.6313 23.8768 40.767 19.1304 40.7822 19.1443 35.8361 14.8809 35.8538 14.8951 30.8362 11.1349 30.8569 11.1493 25.778 7.91229 25.8022 7.92631 20.6721 5.23276 20.7001 5.24584 15.5291 3.11582 15.5611 3.12712 10.3594 1.58076 10.4039 1.59073 6.58186 1.00515ZM7.55341 4.79019 0 0 8.3642-3.16861ZM115.408 211.711 111.659 219.832 107.412 211.96Z" fill="#4472C4" transform="matrix(1.83697e-16 1 1 -1.83697e-16 272.5 310.5)"/><path d="M6.6701 0.616106 10.5547 1.45436 15.8045 3.64919 21.0101 6.66478 26.1678 10.4732 31.2686 15.045 36.3035 20.3513 41.2633 26.3637 46.1386 33.0539 50.9198 40.3937 55.5973 48.355 60.161 56.9096 64.6011 66.0294 68.9075 75.6861 73.0702 85.8517 77.079 96.498 80.9238 107.597 84.5946 119.119 88.081 131.038 91.3733 143.326 97.3326 168.888 102.392 195.582 106.469 223.183 109.483 251.463 111.351 280.196 111.845 302.484 111.178 302.498 110.685 280.218 110.686 280.232 108.818 251.513 108.819 251.526 105.807 223.26 105.809 223.274 101.733 195.687 101.736 195.7 96.6789 169.019 96.6817 169.032 90.7253 143.483 90.728 143.494 87.438 131.214 87.44 131.222 83.9558 119.31 83.9581 119.318 80.2899 107.803 80.2925 107.811 76.4505 96.7204 76.4535 96.7287 72.448 86.0911 72.4514 86.1 68.2925 75.9435 68.2965 75.953 63.9945 66.306 63.9992 66.3161 59.5643 57.2069 59.5699 57.2179 55.0123 48.6748 55.019 48.6868 50.3489 40.738 50.357 40.7511 45.5847 33.4251 45.5947 33.4395 40.7304 26.7644 40.7426 26.7802 35.7965 20.7845 35.8119 20.8018 30.7942 15.5136 30.8136 15.5324 25.7346 10.9802 25.7591 11.0001 20.629 7.21209 20.6599 7.23237 15.4889 4.23685 15.5275 4.25596 10.3258 2.08126 10.3841 2.09956 6.52948 1.26777ZM7.35458 5.0902 0 0 8.48491-2.82954ZM115.481 301.07 111.659 309.156 107.483 301.247Z" fill="#4472C4" transform="matrix(1.83697e-16 1 1 -1.83697e-16 183.5 310.5)"/><path d="M6.6472 0.879222 10.5798 1.9751 15.8358 4.80744 21.0424 8.69506 26.1986 13.6024 31.2968 19.492 36.3287 26.3274 41.2855 34.0724 46.1581 42.6908 50.9369 52.1464 55.6122 62.4032 60.1741 73.425 64.6125 85.1753 68.9175 97.618 73.0789 110.717 77.0865 124.435 80.9304 138.737 84.6002 153.585 88.0858 168.944 91.377 184.777 94.4636 201.047 97.3356 217.72 102.394 252.12 106.47 287.688 109.484 324.132 111.351 361.16 111.878 391.809 111.211 391.82 110.685 361.177 110.685 361.188 108.818 324.171 108.819 324.182 105.806 287.748 105.808 287.759 101.732 252.201 101.733 252.212 96.6767 217.821 96.6779 217.83 93.8071 201.163 93.8081 201.169 90.7225 184.904 90.7237 184.91 87.4337 169.083 87.435 169.089 83.9508 153.736 83.9522 153.742 80.284 138.9 80.2857 138.906 76.4437 124.612 76.4456 124.619 72.44 110.907 72.4423 110.915 68.2834 97.8239 68.2861 97.832 63.984 85.3977 63.9872 85.4065 59.5523 73.6654 59.5561 73.6751 54.9985 62.6636 55.0032 62.6744 50.3331 52.4291 50.3389 52.4412 45.5666 42.9984 45.574 43.0121 40.7097 34.4085 40.7191 34.4241 35.773 26.696 35.7853 26.7139 30.7677 19.8979 30.7841 19.9184 25.7051 14.0509 25.7274 14.0742 20.5973 9.1917 20.6276 9.21733 15.4566 5.35633 15.498 5.38267 10.2963 2.57964 10.3649 2.6073 6.46824 1.52142ZM7.14907 5.37502 0 0 8.58945-2.49425ZM115.521 390.413 111.659 398.48 107.522 390.55Z" fill="#4472C4" transform="matrix(1.83697e-16 1 1 -1.83697e-16 93.5001 310.5)"/><path d="M487.69 421.663 472.855 420.955 458.121 418.886 443.621 415.551 429.47 411.038 415.785 405.439 402.68 398.844 390.272 391.343 378.676 383.026 368.008 373.984 358.384 364.306 349.92 354.083 342.735 343.407 339.654 337.92 336.937 332.356 334.599 326.723 332.652 321.032 331.112 315.294 329.994 309.521 329.313 303.724 329.083 297.928 328.848 292.145 328.85 292.172 328.156 286.4 328.16 286.425 327.021 280.675 327.026 280.699 325.458 274.984 325.464 275.005 323.48 269.335 323.488 269.355 321.104 263.742 321.113 263.76 318.343 258.214 318.352 258.232 315.212 252.765 315.227 252.788 307.894 242.137 307.914 242.163 299.277 231.964 299.297 231.986 289.474 222.329 289.495 222.348 278.604 213.324 278.626 213.34 266.786 205.039 266.808 205.053 254.139 197.566 254.161 197.578 240.78 190.994 240.804 191.005 226.83 185.416 226.854 185.424 212.406 180.92 212.432 180.927 197.628 177.597 197.656 177.602 182.615 175.538 182.644 175.541 174.144 175.144 174.175 174.478 182.69 174.876 197.76 176.944 212.592 180.279 227.065 184.792 241.063 190.391 254.467 196.985 267.159 204.486 279.019 212.802 289.931 221.844 299.775 231.521 308.433 241.745 315.783 252.421 318.935 257.908 321.714 263.472 324.106 269.105 326.097 274.796 327.672 280.534 328.816 286.308 329.514 292.105 329.749 297.902 329.978 303.685 329.976 303.659 330.655 309.431 330.651 309.407 331.765 315.156 331.759 315.133 333.293 320.848 333.287 320.827 335.226 326.497 335.218 326.477 337.549 332.091 337.541 332.073 340.249 337.618 340.24 337.602 343.31 343.068 343.295 343.045 350.464 353.697 350.444 353.67 358.888 363.869 358.868 363.847 368.471 373.504 368.45 373.485 379.097 382.509 379.076 382.492 390.65 390.793 390.628 390.779 403.014 398.266 402.991 398.254 416.073 404.837 416.049 404.827 429.71 410.416 429.685 410.407 443.81 414.911 443.784 414.904 458.256 418.234 458.228 418.228 472.932 420.292 472.902 420.289 487.722 420.997ZM175.305 178.869 167.5 174.5 175.678 170.878Z" fill="#4472C4"/><path d="M0.00961329-0.333195 22.7985 0.324309 45.4181 2.24162 67.6806 5.33445 89.4081 9.51887 110.423 14.711 130.547 20.8271 149.602 27.7835 167.408 35.4956 175.792 39.6111 183.795 43.8834 191.398 48.3033 198.578 52.8605 205.314 57.5447 211.582 62.3456 217.361 67.2531 222.628 72.2571 227.362 77.3474 231.539 82.5142 235.137 87.7475 238.133 93.0373 240.504 98.3736 242.229 103.75 242.915 107.871 242.257 107.981 241.575 103.884 241.586 103.931 239.875 98.5944 239.888 98.6279 237.53 93.3229 237.545 93.3518 234.564 88.0887 234.579 88.1132 230.997 82.9026 231.012 82.9233 226.85 77.7755 226.866 77.7929 222.147 72.7186 222.162 72.7333 216.908 67.7428 216.922 67.7553 211.157 62.8592 211.17 62.8698 204.914 58.0786 204.927 58.0876 198.203 53.4118 198.215 53.4196 191.046 48.8696 191.058 48.8764 183.466 44.4628 183.476 44.4687 175.483 40.2019 175.493 40.207 167.122 36.0976 167.136 36.1042 149.346 28.3992 149.364 28.4064 130.327 21.4565 130.344 21.4623 110.237 15.3514 110.254 15.3561 89.2567 10.1682 89.2736 10.1719 67.5631 5.99073 67.5803 5.99358 45.3352 2.90317 45.3529 2.90515 22.7515 0.989378 22.77 0.99043-0.00961329 0.333195ZM246.42 106.172 243.3 114.555 238.466 107.029Z" fill="#4472C4" transform="matrix(-1.83697e-16 -1 -1 1.83697e-16 487.055 417.8)"/><text font-family="Calibri,Calibri_MSFontService,sans-serif" font-weight="400" font-size="24" transform="translate(76.3932 167)">Attempt</text><text font-family="Calibri,Calibri_MSFontService,sans-serif" font-weight="400" font-size="24" transform="translate(87.6465 196)">Board</text><text font-family="Calibri,Calibri_MSFontService,sans-serif" font-weight="400" font-size="24" transform="translate(116.057 336)">Referee</text><text font-family="Calibri,Calibri_MSFontService,sans-serif" font-weight="400" font-size="24" transform="translate(196.677 336)">Decisions</text><text font-family="Calibri,Calibri_MSFontService,sans-serif" font-weight="400" font-size="19" transform="translate(116.057 360)">(</text><text font-family="Calibri,Calibri_MSFontService,sans-serif" font-weight="400" font-size="19" transform="translate(121.723 360)">Phone</text><text font-family="Calibri,Calibri_MSFontService,sans-serif" font-weight="400" font-size="19" transform="translate(170.223 360)">/</text><text font-family="Calibri,Calibri_MSFontService,sans-serif" font-weight="400" font-size="19" transform="translate(177.39 360)">Tablet</text><text font-family="Calibri,Calibri_MSFontService,sans-serif" font-weight="400" font-size="19" transform="translate(223.83 360)">)</text><text font-family="Calibri,Calibri_MSFontService,sans-serif" font-weight="400" font-size="24" transform="translate(91.899 567)">Marshall</text><text font-family="Calibri,Calibri_MSFontService,sans-serif" font-weight="400" font-size="24" transform="translate(222.606 633)">Announcer</text><g><g><g><path d="M305 594.994 305 559 247 559 247 595.01ZM249 561 303 561 303 592.993 249 593.01Z"/><path d="M244 558C244 556.895 244.895 556 246 556L306 556C307.105 556 308 556.895 308 558L308 599.013 310 599.013 310 558C310 555.791 308.209 554 306 554L246 554C243.791 554 242 555.791 242 558L242 599.013 244 599.013Z"/><path d="M281 601.994 281 603.994 271 603.994 271 601.994 230 601.994 230 603.994C230.003 606.754 232.24 608.991 235 608.994L317 608.994C319.76 608.991 321.997 606.754 322 603.994L322 601.994ZM317 606.994 235 606.994C233.343 606.994 232 605.651 232 603.994L269 603.994C268.964 605.062 269.8 605.958 270.868 605.994 270.912 605.995 270.956 605.995 271 605.994L281 605.994C282.068 606.031 282.964 605.194 283 604.126 283.001 604.082 283.001 604.038 283 603.994L320 603.994C320 605.651 318.657 606.994 317 606.994Z"/></g></g></g><path d="M6.70408 0.122338 14.9807 1.44789 22.3242 3.58881 29.486 6.48329 36.4109 10.0738 43.0404 14.3021 49.3167 19.1103 55.1813 24.4407 60.576 30.2354 65.4424 36.437 69.722 42.9879 73.3561 49.8307 76.2858 56.9079 78.4521 64.1621 79.7955 71.5355 80.2553 78.949 80.7138 86.3427 80.709 86.3036 82.0456 93.6395 82.0371 93.6038 84.1932 100.824 84.1818 100.792 87.0989 107.839 87.0853 107.81 90.7048 114.625 90.6895 114.599 94.953 121.125 94.9361 121.102 99.785 127.281 99.7667 127.26 105.142 133.034 105.123 133.014 110.967 138.326 110.945 138.308 117.199 143.099 117.175 143.083 123.78 147.295 123.754 147.28 130.652 150.857 130.623 150.844 137.755 153.726 137.724 153.715 145.031 155.845 144.99 155.836 153.246 157.158 153.141 157.817 144.864 156.491 137.521 154.35 130.359 151.456 123.434 147.865 116.805 143.637 110.528 138.829 104.664 133.498 99.2692 127.704 94.4027 121.502 90.1231 114.951 86.489 108.108 83.5593 101.031 81.3931 93.777 80.0496 86.4036 79.5899 78.9902 79.1313 71.5965 79.1361 71.6356 77.7995 64.2997 77.808 64.3353 75.6519 57.115 75.6633 57.1472 72.7462 50.1004 72.7598 50.1293 69.1403 43.3139 69.1556 43.3399 64.8922 36.8137 64.909 36.8372 60.0602 30.658 60.0784 30.6794 54.7028 24.9051 54.7226 24.9247 48.8786 19.6131 48.9001 19.631 42.6464 14.84 42.6699 14.8565 36.0649 10.6439 36.0907 10.6588 29.1931 7.08237 29.2217 7.0955 22.0899 4.21318 22.1215 4.22415 14.8141 2.09374 14.8547 2.10287 6.59865 0.780616ZM7.71075 4.53259 0 0 8.25252-3.44904ZM152.134 153.406 159.845 157.939 151.593 161.388Z" fill="#4472C4" transform="matrix(1 0 0 -1 324.5 581.439)"/><path d="M6.67123-0.22419 14.5892-0.0945963 29.0639 0.601413 43.3103 1.72416 57.2146 3.2432 70.6628 5.1281 83.5413 7.34847 95.7363 9.87397 107.134 12.6744 117.622 15.7195 127.085 18.9797 135.413 22.4255 142.492 26.0288 148.206 29.7599 150.525 31.6736 152.459 33.6099 153.995 35.5714 155.118 37.5574 155.807 39.5656 156.037 41.5502 156.263 43.499 156.247 43.4291 156.915 45.3741 156.89 45.3183 157.985 47.2556 157.957 47.2141 159.466 49.1401 159.439 49.1101 161.347 51.0208 161.323 50.9993 163.616 52.8909 163.586 52.869 169.269 56.58 169.238 56.562 176.29 60.1513 176.266 60.1403 184.572 63.5772 184.553 63.5701 194 66.8242 193.984 66.8193 204.457 69.8602 204.444 69.8566 215.829 72.6539 215.817 72.6512 228.001 75.1743 227.99 75.1722 240.857 77.3908 240.847 77.3891 254.285 79.2726 254.275 79.2713 268.169 80.7893 268.159 80.7883 282.396 81.9103 282.385 81.9097 296.85 82.6052 296.839 82.6048 304.752 82.7343 304.741 83.4009 296.823 83.2713 282.348 82.5753 268.102 81.4526 254.198 79.9335 240.749 78.0486 227.871 75.8283 215.676 73.3028 204.278 70.5024 193.791 67.4572 184.327 64.1971 175.999 60.7513 168.92 57.148 163.206 53.417 160.887 51.5033 158.953 49.567 157.417 47.6055 156.294 45.6196 155.605 43.6115 155.375 41.6269 155.149 39.678 155.165 39.7479 154.497 37.8029 154.523 37.8587 153.427 35.9213 153.455 35.9628 151.946 34.0368 151.973 34.0668 150.065 32.1561 150.089 32.1776 147.796 30.2859 147.826 30.3079 142.143 26.5968 142.174 26.6148 135.122 23.0256 135.146 23.0365 126.84 19.5996 126.859 19.6067 117.412 16.3525 117.428 16.3575 106.955 13.3165 106.968 13.3201 95.5832 10.5228 95.5951 10.5255 83.4115 8.00241 83.4225 8.00449 70.5547 5.78596 70.5651 5.78758 57.1271 3.90412 57.1371 3.90537 43.2429 2.38743 43.253 2.38838 29.0166 1.26642 29.0268 1.26707 14.5624 0.571555 14.573 0.571895 6.66032 0.442388ZM7.93347 4.13038 0 0 8.06439-3.86855ZM303.479 79.0463 311.412 83.1767 303.348 87.0452Z" fill="#4472C4" transform="matrix(1 0 0 -1 176.5 506.677)"/><text font-family="Calibri,Calibri_MSFontService,sans-serif" font-weight="400" font-size="24" transform="translate(251.088 182)">Scoreboard</text><g><g><g><path d="M568 435.994 568 400 510 400 510 436.01ZM512 402 566 402 566 433.993 512 434.01Z"/><path d="M507 399C507 397.895 507.895 397 509 397L569 397C570.105 397 571 397.895 571 399L571 440.013 573 440.013 573 399C573 396.791 571.209 395 569 395L509 395C506.791 395 505 396.791 505 399L505 440.013 507 440.013Z"/><path d="M544 442.994 544 444.994 534 444.994 534 442.994 493 442.994 493 444.994C493.003 447.754 495.24 449.991 498 449.994L580 449.994C582.76 449.991 584.997 447.754 585 444.994L585 442.994ZM580 447.994 498 447.994C496.343 447.994 495 446.651 495 444.994L532 444.994C531.964 446.062 532.8 446.957 533.868 446.994 533.912 446.995 533.956 446.995 534 446.994L544 446.994C545.068 447.031 545.964 446.194 546 445.126 546.002 445.082 546.002 445.038 546 444.994L583 444.994C583 446.651 581.657 447.994 580 447.994Z"/></g></g></g><text font-family="Calibri,Calibri_MSFontService,sans-serif" font-weight="400" font-size="24" transform="translate(503.755 473)">owlcms</text><g><g><g><path d="M149 130 93 130 93 96 149 96 149 130ZM155 94C155 91.8 153.2 90 151 90L91 90C88.8 90 87 91.8 87 94L87 136 155 136 155 94Z"/><path d="M127 140 127 141C127 141.6 126.6 142 126 142L116 142C115.4 142 115 141.6 115 141L115 140 75 140 75 142C75 144.2 76.8 146 79 146L163 146C165.2 146 167 144.2 167 142L167 140 127 140Z"/></g></g></g></g></svg>